{
copyright = "Copyright 2025 The Compu Project Authors (https://github.com/vladimirnikolic1/Compu) ";
designer = "Vladimir Nikolic";
designerURL = "https://www.coroflot.com/vladimirnikolic";
familyName = Compu;
customParameters = (
{
name = glyphOrder;
value = (
.notdef,
paragraph,
euro,
nonbreakingspace,
degree,
periodcentered.loclCAT,
periodcentered.loclCAT.case,
guillemetleft,
periodcentered,
guillemetright,
questiondown,
macron,
cedilla,
circumflex,
caron,
gravecomb,
circumflexcomb,
tildecomb,
macroncomb,
dotaccentcomb,
dieresiscomb,
ringcomb,
hungarumlautcomb,
caroncomb,
cedillacomb,
ogonekcomb,
caroncomb.alt,
ordfeminine,
ordmasculine,
Gcommaaccent,
gcommaaccent,
idotless,
Kcommaaccent,
kcommaaccent,
Lcommaaccent,
lcommaaccent,
Ncommaaccent,
ncommaaccent,
Umacron,
umacron,
Scommaaccent,
scommaaccent,
Tcommaaccent,
tcommaaccent,
jdotless,
Germandbls,
Ygrave,
ygrave,
idotaccent,
space,
exclam,
quotedbl,
numbersign,
dollar,
percent,
ampersand,
quotesingle,
parenleft,
parenright,
asterisk,
plus,
comma,
hyphen,
period,
slash,
zero,
one,
two,
three,
four,
five,
six,
seven,
eight,
nine,
colon,
semicolon,
less,
equal,
greater,
question,
at,
A,
B,
C,
D,
E,
F,
G,
H,
I,
J,
K,
L,
M,
N,
O,
P,
Q,
R,
S,
T,
U,
V,
W,
X,
Y,
Z,
bracketleft,
backslash,
bracketright,
asciicircum,
underscore,
grave,
a,
b,
c,
d,
e,
f,
g,
h,
i,
j,
k,
l,
m,
n,
o,
p,
q,
r,
s,
t,
u,
v,
w,
x,
y,
z,
braceleft,
bar,
braceright,
asciitilde,
exclamdown,
cent,
sterling,
yen,
section,
dieresis,
copyright,
registered,
acute,
ae,
AE,
multiply,
divide,
Oslash,
oslash,
Thorn,
thorn,
ydieresis,
germandbls,
wdieresis,
Wdieresis,
Wgrave,
wgrave,
Wacute,
wacute,
bullet,
ellipsis,
breve,
dotaccent,
ring,
ogonek,
tilde,
hungarumlaut,
acutecomb,
amacron,
Amacron,
hbar,
Hbar,
ccedilla,
Ccedilla,
imacron,
Imacron,
emacron,
Emacron,
dcroat,
Dcroat,
dcaron,
Dcaron,
cdotaccent,
Cdotaccent,
ccaron,
Ccaron,
scedilla,
Scedilla,
cacute,
aogonek,
abreve,
Abreve,
Cacute,
gdotaccent,
Gdotaccent,
nacute,
Nacute,
lslash,
tcaron,

glyphs = (
{
glyphname = .notdef;
layers = (
{
layerId = "2063BA69-310B-4872-9248-C1144A07CAA9";
paths = (
{
nodes = (
"25 678 LINE",
"607 678 LINE",
"607 0 LINE",
"25 0 LINE"
);
},
{
nodes = (
"194 168 LINE",
"440 168 LINE",
"440 510 LINE",
"194 510 LINE"
);
}
);
width = 636;
}
);
},
{
glyphname = paragraph;
layers = (
{
layerId = "2063BA69-310B-4872-9248-C1144A07CAA9";
paths = (
{
nodes = (
"233 772 LINE",
"233 -91 LINE",
"51 -91 LINE",
"51 772 LINE"
);
}
);
width = 0;
}
);
unicode = 00B6;
},
{
glyphname = euro;
layers = (
{
layerId = "2063BA69-310B-4872-9248-C1144A07CAA9";
paths = (
{
nodes = (
"30 407 LINE",
"74 407 LINE",
"74 586 LINE SMOOTH",
"74 616 OFFCURVE",
"103 653 OFFCURVE",
"148 673 OFFCURVE",
"201 679 OFFCURVE",
"225 679 QCURVE SMOOTH",
"489 679 LINE SMOOTH",
"513 679 OFFCURVE",
"566 673 OFFCURVE",
"611 653 OFFCURVE",
"640 616 OFFCURVE",
"640 586 QCURVE SMOOTH",
"640 432 LINE",
"376 432 LINE",
"376 445 LINE",
"393 451 OFFCURVE",
"422 474 OFFCURVE",
"422 494 QCURVE",
"301 494 LINE",
"301 407 LINE",
"435 407 LINE",
"435 359 LINE",
"301 359 LINE",
"301 326 LINE",
"435 326 LINE",
"435 273 LINE",
"301 273 LINE",
"301 185 LINE",
"422 185 LINE",
"422 205 OFFCURVE",
"393 228 OFFCURVE",
"376 234 QCURVE",
"376 247 LINE",
"640 247 LINE",
"640 93 LINE SMOOTH",
"640 63 OFFCURVE",
"611 26 OFFCURVE",
"566 6 OFFCURVE",
"513 0 OFFCURVE",
"489 0 QCURVE SMOOTH",
"225 0 LINE SMOOTH",
"201 0 OFFCURVE",
"148 6 OFFCURVE",
"103 26 OFFCURVE",
"74 63 OFFCURVE",
"74 93 QCURVE SMOOTH",
"74 273 LINE",
"30 273 LINE",
"30 326 LINE",
"74 326 LINE",
"74 359 LINE",
"30 359 LINE"
);
}
);
width = 688;
}
);
unicode = 20AC;
},
{
glyphname = degree;
layers = (
{
layerId = "2063BA69-310B-4872-9248-C1144A07CAA9";
paths = (
{
nodes = (
"16 564 OFFCURVE",
"39 618 OFFCURVE",
"79 657 OFFCURVE",
"132 680 OFFCURVE",
"163 680 QCURVE SMOOTH",
"194 680 OFFCURVE",
"247 657 OFFCURVE",
"286 618 OFFCURVE",
"309 564 OFFCURVE",
"309 534 QCURVE SMOOTH",
"309 503 OFFCURVE",
"286 450 OFFCURVE",
"247 410 OFFCURVE",
"194 387 OFFCURVE",
"163 387 QCURVE SMOOTH",
"132 387 OFFCURVE",
"79 410 OFFCURVE",
"39 450 OFFCURVE",
"16 503 OFFCURVE",
"16 534 QCURVE SMOOTH"
);
},
{
nodes = (
"70 514 OFFCURVE",
"85 480 OFFCURVE",
"110 455 OFFCURVE",
"144 440 OFFCURVE",
"163 440 QCURVE SMOOTH",
"182 440 OFFCURVE",
"216 455 OFFCURVE",
"241 480 OFFCURVE",
"256 514 OFFCURVE",
"256 534 QCURVE SMOOTH",
"256 553 OFFCURVE",
"241 587 OFFCURVE",
"216 612 OFFCURVE",
"182 627 OFFCURVE",
"163 627 QCURVE SMOOTH",
"144 627 OFFCURVE",
"110 612 OFFCURVE",
"85 587 OFFCURVE",
"70 553 OFFCURVE",
"70 534 QCURVE SMOOTH"
);
}
);
width = 333;
}
);
unicode = 00B0;
},
{
glyphname = periodcentered.loclCAT;
layers = (
{
layerId = "2063BA69-310B-4872-9248-C1144A07CAA9";
paths = (
{
nodes = (
"145 487 OFFCURVE",
"181 475 OFFCURVE",
"210 454 OFFCURVE",
"228 423 OFFCURVE",
"228 404 QCURVE SMOOTH",
"228 385 OFFCURVE",
"210 355 OFFCURVE",
"181 334 OFFCURVE",
"145 323 OFFCURVE",
"127 323 QCURVE SMOOTH",
"109 323 OFFCURVE",
"73 334 OFFCURVE",
"44 355 OFFCURVE",
"25 385 OFFCURVE",
"25 404 QCURVE SMOOTH",
"25 424 OFFCURVE",
"44 455 OFFCURVE",
"73 476 OFFCURVE",
"109 487 OFFCURVE",
"127 487 QCURVE SMOOTH"
);
}
);
width = 250;
}
);
},
{
glyphname = periodcentered.loclCAT.case;
layers = (
{
layerId = "2063BA69-310B-4872-9248-C1144A07CAA9";
paths = (
{
nodes = (
"145 487 OFFCURVE",
"181 475 OFFCURVE",
"210 454 OFFCURVE",
"228 423 OFFCURVE",
"228 404 QCURVE SMOOTH",
"228 385 OFFCURVE",
"210 355 OFFCURVE",
"181 334 OFFCURVE",
"145 323 OFFCURVE",
"127 323 QCURVE SMOOTH",
"109 323 OFFCURVE",
"73 334 OFFCURVE",
"44 355 OFFCURVE",
"25 385 OFFCURVE",
"25 404 QCURVE SMOOTH",
"25 424 OFFCURVE",
"44 455 OFFCURVE",
"73 476 OFFCURVE",
"109 487 OFFCURVE",
"127 487 QCURVE SMOOTH"
);
}
);
width = 257;
}
);
},
{
glyphname = guillemetleft;
layers = (
{
layerId = "2063BA69-310B-4872-9248-C1144A07CAA9";
paths = (
{
nodes = (
"334 399 LINE",
"702 634 LINE",
"702 496 LINE",
"473 349 LINE",
"530 314 OFFCURVE",
"645 237 OFFCURVE",
"702 202 QCURVE",
"702 64 LINE",
"334 300 LINE"
);
},
{
nodes = (
"23 399 LINE",
"391 634 LINE",
"391 496 LINE",
"162 349 LINE",
"219 314 OFFCURVE",
"334 237 OFFCURVE",
"391 202 QCURVE",
"391 64 LINE",
"23 300 LINE"
);
}
);
width = 728;
}
);
},
{
glyphname = periodcentered;
layers = (
{
layerId = "2063BA69-310B-4872-9248-C1144A07CAA9";
paths = (
{
nodes = (
"591 -102 LINE",
"591 702 LINE",
"442 702 LINE",
"442 -102 LINE",
"335 -102 LINE",
"335 363 LINE",
"162 363 LINE SMOOTH",
"155 363 OFFCURVE",
"148 364 QCURVE SMOOTH",
"118 366 OFFCURVE",
"64 384 OFFCURVE",
"26 422 OFFCURVE",
"26 456 QCURVE SMOOTH",
"26 716 LINE SMOOTH",
"26 750 OFFCURVE",
"64 788 OFFCURVE",
"118 806 OFFCURVE",
"177 810 OFFCURVE",
"197 810 QCURVE SMOOTH",
"205 810 OFFCURVE",
"237 809 OFFCURVE",
"254 809 QCURVE SMOOTH",
"781 809 LINE",
"781 702 LINE",
"698 702 LINE",
"698 -102 LINE"
);
}
);
width = 807;
}
);
unicode = 00B7;
},
{
glyphname = guillemetright;
layers = (
{
layerId = "2063BA69-310B-4872-9248-C1144A07CAA9";
paths = (
{
nodes = (
"391 300 LINE",
"23 64 LINE",
"23 202 LINE",
"80 237 OFFCURVE",
"195 314 OFFCURVE",
"252 349 QCURVE",
"23 496 LINE",
"23 634 LINE",
"391 399 LINE"
);
},
{
nodes = (
"702 300 LINE",
"334 64 LINE",
"334 202 LINE",
"391 237 OFFCURVE",
"506 314 OFFCURVE",
"563 349 QCURVE",
"334 496 LINE",
"334 634 LINE",
"702 399 LINE"
);
}
);
width = 728;
}
);
},
{
glyphname = questiondown;
layers = (
{
layerId = "2063BA69-310B-4872-9248-C1144A07CAA9";
paths = (
{
nodes = (
"347 494 OFFCURVE",
"307 506 OFFCURVE",
"274 530 OFFCURVE",
"253 564 OFFCURVE",
"253 586 QCURVE SMOOTH",
"253 608 OFFCURVE",
"274 643 OFFCURVE",
"307 667 OFFCURVE",
"347 679 OFFCURVE",
"367 679 QCURVE SMOOTH",
"387 679 OFFCURVE",
"427 667 OFFCURVE",
"460 643 OFFCURVE",
"480 608 OFFCURVE",
"480 586 QCURVE SMOOTH",
"480 564 OFFCURVE",
"460 530 OFFCURVE",
"427 506 OFFCURVE",
"387 494 OFFCURVE",
"367 494 QCURVE SMOOTH"
);
},
{
nodes = (
"638 247 LINE",
"638 92 LINE SMOOTH",
"638 62 OFFCURVE",
"608 25 OFFCURVE",
"563 6 OFFCURVE",
"509 0 OFFCURVE",
"486 0 QCURVE SMOOTH",
"183 0 LINE SMOOTH",
"160 0 OFFCURVE",
"107 6 OFFCURVE",
"62 25 OFFCURVE",
"32 62 OFFCURVE",
"32 92 QCURVE SMOOTH",
"32 309 LINE SMOOTH",
"32 338 OFFCURVE",
"61 375 OFFCURVE",
"105 395 OFFCURVE",
"159 402 OFFCURVE",
"184 402 QCURVE",
"186 402 OFFCURVE",
"226 401 OFFCURVE",
"253 401 QCURVE",
"253 421 OFFCURVE",
"223 444 OFFCURVE",
"207 450 QCURVE",
"207 463 LINE",
"527 463 LINE",
"527 450 LINE",
"509 443 OFFCURVE",
"490 429 OFFCURVE",
"481 411 OFFCURVE",
"480 387 OFFCURVE",
"480 370 QCURVE SMOOTH",
"480 341 OFFCURVE",
"451 304 OFFCURVE",
"407 284 OFFCURVE",
"353 277 OFFCURVE",
"328 277 QCURVE",
"326 277 OFFCURVE",
"286 278 OFFCURVE",
"259 278 QCURVE",
"259 185 LINE",
"411 185 LINE",
"411 205 OFFCURVE",
"380 228 OFFCURVE",
"364 234 QCURVE",
"364 247 LINE"
);
}
);
width = 669;
}
);
unicode = 00BF;
},
{
glyphname = macron;
layers = (
{
layerId = "2063BA69-310B-4872-9248-C1144A07CAA9";
paths = (
{
nodes = (
"25 851 LINE",
"341 851 LINE",
"341 713 LINE",
"25 713 LINE"
);
}
);
width = 359;
}
);
unicode = 00AF;
},
{
glyphname = cedilla;
layers = (
{
layerId = "2063BA69-310B-4872-9248-C1144A07CAA9";
paths = (
{
nodes = (
"319 -209 LINE SMOOTH",
"319 -222 OFFCURVE",
"306 -237 OFFCURVE",
"286 -245 OFFCURVE",
"264 -247 OFFCURVE",
"254 -247 QCURVE SMOOTH",
"88 -247 LINE",
"88 -157 LINE",
"222 -157 LINE",
"222 -125 LINE",
"87 -125 LINE",
"87 0 LINE",
"191 0 LINE",
"191 -44 LINE",
"255 -44 LINE SMOOTH",
"263 -44 OFFCURVE",
"285 -47 OFFCURVE",
"305 -55 OFFCURVE",
"319 -70 OFFCURVE",
"319 -82 QCURVE SMOOTH"
);
}
);
width = 361;
}
);
unicode = 00B8;
},
{
glyphname = circumflex;
layers = (
{
layerId = "2063BA69-310B-4872-9248-C1144A07CAA9";
paths = (
{
nodes = (
"497 716 LINE",
"319 716 LINE",
"267 796 LINE",
"216 716 LINE",
"38 716 LINE",
"141 884 LINE",
"394 884 LINE"
);
}
);
width = 520;
}
);
unicode = 02C6;
},
{
glyphname = caron;
layers = (
{
layerId = "2063BA69-310B-4872-9248-C1144A07CAA9";
paths = (
{
nodes = (
"394 716 LINE",
"141 716 LINE",
"38 884 LINE",
"216 884 LINE",
"267 804 LINE",
"319 884 LINE",
"497 884 LINE"
);
}
);
width = 513;
}
);
unicode = 02C7;
},
{
glyphname = gravecomb;
layers = (
{
layerId = "2063BA69-310B-4872-9248-C1144A07CAA9";
paths = (
{
nodes = (
"64 884 LINE",
"242 884 LINE",
"350 716 LINE",
"167 716 LINE"
);
}
);
width = 398;
}
);
unicode = 0300;
},
{
glyphname = circumflexcomb;
layers = (
{
layerId = "2063BA69-310B-4872-9248-C1144A07CAA9";
paths = (
{
nodes = (
"497 716 LINE",
"319 716 LINE",
"267 796 LINE",
"216 716 LINE",
"38 716 LINE",
"141 884 LINE",
"394 884 LINE"
);
}
);
width = 555;
}
);
unicode = 0302;
},
{
glyphname = tildecomb;
layers = (
{
layerId = "2063BA69-310B-4872-9248-C1144A07CAA9";
paths = (
{
nodes = (
"505 830 LINE",
"504 828 OFFCURVE",
"487 798 OFFCURVE",
"471 780 QCURVE SMOOTH",
"451 757 OFFCURVE",
"429 741 QCURVE SMOOTH",
"399 720 OFFCURVE",
"364 712 QCURVE SMOOTH",
"349 708 OFFCURVE",
"332 708 QCURVE SMOOTH",
"322 708 OFFCURVE",
"304 711 OFFCURVE",
"294 713 QCURVE SMOOTH",
"258 720 OFFCURVE",
"222 747 QCURVE SMOOTH",
"211 755 OFFCURVE",
"202 757 OFFCURVE",
"200 757 QCURVE",
"198 757 OFFCURVE",
"197 756 QCURVE",
"181 751 OFFCURVE",
"166 733 QCURVE",
"156 723 OFFCURVE",
"152 716 QCURVE SMOOTH",
"150 714 OFFCURVE",
"148 710 OFFCURVE",
"147 708 QCURVE",
"34 771 LINE",
"35 773 OFFCURVE",
"52 801 OFFCURVE",
"67 819 QCURVE SMOOTH",
"76 830 OFFCURVE",
"96 848 OFFCURVE",
"107 856 QCURVE SMOOTH",
"140 880 OFFCURVE",
"168 884 QCURVE",
"181 888 OFFCURVE",
"202 888 QCURVE SMOOTH",
"208 888 OFFCURVE",
"225 888 OFFCURVE",
"249 883 OFFCURVE",
"279 869 OFFCURVE",
"299 854 QCURVE SMOOTH",
"315 841 OFFCURVE",
"327 840 OFFCURVE",
"329 840 QCURVE",
"335 840 OFFCURVE",
"336 841 QCURVE",
"353 844 OFFCURVE",
"374 868 QCURVE SMOOTH",
"377 872 OFFCURVE",
"383 880 OFFCURVE",
"386 885 QCURVE SMOOTH",
"388 887 OFFCURVE",
"390 891 OFFCURVE",
"391 893 QCURVE",
"448 860 LINE"
);
}
);
width = 530;
}
);
unicode = 0303;
},
{
glyphname = macroncomb;
layers = (
{
layerId = "2063BA69-310B-4872-9248-C1144A07CAA9";
paths = (
{
nodes = (
"25 851 LINE",
"341 851 LINE",
"341 713 LINE",
"25 713 LINE"
);
}
);
width = 363;
}
);
unicode = 0304;
},
{
glyphname = dotaccentcomb;
layers = (
{
layerId = "2063BA69-310B-4872-9248-C1144A07CAA9";
paths = (
{
nodes = (
"168 870 OFFCURVE",
"204 858 OFFCURVE",
"233 837 OFFCURVE",
"251 806 OFFCURVE",
"251 787 QCURVE SMOOTH",
"251 768 OFFCURVE",
"233 738 OFFCURVE",
"204 717 OFFCURVE",
"168 706 OFFCURVE",
"150 706 QCURVE SMOOTH",
"132 706 OFFCURVE",
"96 717 OFFCURVE",
"67 738 OFFCURVE",
"48 768 OFFCURVE",
"48 787 QCURVE SMOOTH",
"48 807 OFFCURVE",
"67 838 OFFCURVE",
"96 859 OFFCURVE",
"132 870 OFFCURVE",
"150 870 QCURVE SMOOTH"
);
}
);
width = 291;
}
);
unicode = 0307;
},
{
glyphname = dieresiscomb;
layers = (
{
layerId = "2063BA69-310B-4872-9248-C1144A07CAA9";
paths = (
{
nodes = (
"173 870 OFFCURVE",
"209 858 OFFCURVE",
"238 837 OFFCURVE",
"257 806 OFFCURVE",
"257 787 QCURVE SMOOTH",
"257 768 OFFCURVE",
"238 738 OFFCURVE",
"209 717 OFFCURVE",
"173 706 OFFCURVE",
"156 706 QCURVE SMOOTH",
"138 706 OFFCURVE",
"102 717 OFFCURVE",
"73 738 OFFCURVE",
"54 768 OFFCURVE",
"54 787 QCURVE SMOOTH",
"54 807 OFFCURVE",
"73 838 OFFCURVE",
"102 859 OFFCURVE",
"138 870 OFFCURVE",
"156 870 QCURVE SMOOTH"
);
},
{
nodes = (
"429 870 OFFCURVE",
"465 858 OFFCURVE",
"494 837 OFFCURVE",
"512 806 OFFCURVE",
"512 787 QCURVE SMOOTH",
"512 768 OFFCURVE",
"494 738 OFFCURVE",
"465 717 OFFCURVE",
"429 706 OFFCURVE",
"411 706 QCURVE SMOOTH",
"393 706 OFFCURVE",
"357 717 OFFCURVE",
"328 738 OFFCURVE",
"309 768 OFFCURVE",
"309 787 QCURVE SMOOTH",
"309 807 OFFCURVE",
"328 838 OFFCURVE",
"357 859 OFFCURVE",
"393 870 OFFCURVE",
"411 870 QCURVE SMOOTH"
);
}
);
width = 546;
}
);
unicode = 0308;
},
{
glyphname = ringcomb;
layers = (
{
layerId = "2063BA69-310B-4872-9248-C1144A07CAA9";
paths = (
{
nodes = (
"224 944 OFFCURVE",
"271 925 OFFCURVE",
"306 892 OFFCURVE",
"326 847 OFFCURVE",
"326 822 QCURVE SMOOTH",
"326 796 OFFCURVE",
"306 752 OFFCURVE",
"271 718 OFFCURVE",
"224 699 OFFCURVE",
"197 699 QCURVE SMOOTH",
"170 699 OFFCURVE",
"123 718 OFFCURVE",
"88 752 OFFCURVE",
"68 796 OFFCURVE",
"68 822 QCURVE SMOOTH",
"68 847 OFFCURVE",
"88 892 OFFCURVE",
"123 925 OFFCURVE",
"170 944 OFFCURVE",
"197 944 QCURVE SMOOTH"
);
},
{
nodes = (
"212 780 OFFCURVE",
"238 804 OFFCURVE",
"238 822 QCURVE SMOOTH",
"238 839 OFFCURVE",
"212 863 OFFCURVE",
"194 863 QCURVE SMOOTH",
"175 863 OFFCURVE",
"151 839 OFFCURVE",
"151 822 QCURVE SMOOTH",
"151 804 OFFCURVE",
"175 780 OFFCURVE",
"194 780 QCURVE SMOOTH"
);
}
);
width = 375;
}
);
},
{
glyphname = hungarumlautcomb;
layers = (
{
layerId = "2063BA69-310B-4872-9248-C1144A07CAA9";
paths = (
{
nodes = (
"240 716 LINE",
"57 716 LINE",
"165 884 LINE",
"343 884 LINE"
);
},
{
nodes = (
"506 716 LINE",
"323 716 LINE",
"431 884 LINE",
"609 884 LINE"
);
}
);
width = 660;
}
);
},
{
glyphname = caroncomb;
layers = (
{
layerId = "2063BA69-310B-4872-9248-C1144A07CAA9";
paths = (
{
nodes = (
"394 716 LINE",
"141 716 LINE",
"38 884 LINE",
"216 884 LINE",
"267 804 LINE",
"319 884 LINE",
"497 884 LINE"
);
}
);
width = 537;
}
);
},
{
glyphname = cedillacomb;
layers = (
{
layerId = "2063BA69-310B-4872-9248-C1144A07CAA9";
paths = (
{
nodes = (
"319 -209 LINE SMOOTH",
"319 -222 OFFCURVE",
"306 -237 OFFCURVE",
"286 -245 OFFCURVE",
"264 -247 OFFCURVE",
"254 -247 QCURVE SMOOTH",
"88 -247 LINE",
"88 -157 LINE",
"222 -157 LINE",
"222 -125 LINE",
"87 -125 LINE",
"87 0 LINE",
"191 0 LINE",
"191 -44 LINE",
"255 -44 LINE SMOOTH",
"263 -44 OFFCURVE",
"285 -47 OFFCURVE",
"305 -55 OFFCURVE",
"319 -70 OFFCURVE",
"319 -82 QCURVE SMOOTH"
);
}
);
width = 337;
}
);
},
{
glyphname = ogonekcomb;
layers = (
{
layerId = "2063BA69-310B-4872-9248-C1144A07CAA9";
paths = (
{
nodes = (
"32 -82 LINE SMOOTH",
"32 -70 OFFCURVE",
"46 -55 OFFCURVE",
"66 -47 OFFCURVE",
"88 -44 OFFCURVE",
"96 -44 QCURVE SMOOTH",
"160 -44 LINE",
"160 0 LINE",
"264 0 LINE",
"264 -125 LINE",
"129 -125 LINE",
"129 -157 LINE",
"263 -157 LINE",
"263 -247 LINE",
"97 -247 LINE SMOOTH",
"87 -247 OFFCURVE",
"64 -245 OFFCURVE",
"45 -237 OFFCURVE",
"32 -222 OFFCURVE",
"32 -209 QCURVE SMOOTH"
);
}
);
width = 317;
}
);
},
{
glyphname = caroncomb.alt;
layers = (
{
layerId = "2063BA69-310B-4872-9248-C1144A07CAA9";
paths = (
{
nodes = (
"394 716 LINE",
"141 716 LINE",
"38 884 LINE",
"216 884 LINE",
"267 804 LINE",
"319 884 LINE",
"497 884 LINE"
);
}
);
width = 530;
}
);
},
{
glyphname = ordfeminine;
layers = (
{
layerId = "2063BA69-310B-4872-9248-C1144A07CAA9";
paths = (
{
nodes = (
"169 570 LINE",
"169 559 OFFCURVE",
"187 546 OFFCURVE",
"197 542 QCURVE",
"197 535 LINE",
"35 535 LINE",
"35 623 LINE SMOOTH",
"35 641 OFFCURVE",
"53 662 OFFCURVE",
"80 673 OFFCURVE",
"113 676 OFFCURVE",
"127 676 QCURVE SMOOTH",
"280 676 LINE SMOOTH",
"294 676 OFFCURVE",
"326 673 OFFCURVE",
"353 662 OFFCURVE",
"371 641 OFFCURVE",
"371 623 QCURVE SMOOTH",
"371 340 LINE SMOOTH",
"371 323 OFFCURVE",
"353 302 OFFCURVE",
"326 291 OFFCURVE",
"294 288 OFFCURVE",
"280 288 QCURVE SMOOTH",
"126 288 LINE SMOOTH",
"111 288 OFFCURVE",
"79 291 OFFCURVE",
"53 302 OFFCURVE",
"35 323 OFFCURVE",
"35 340 QCURVE SMOOTH",
"35 464 LINE SMOOTH",
"35 481 OFFCURVE",
"53 502 OFFCURVE",
"80 514 OFFCURVE",
"112 518 OFFCURVE",
"127 518 QCURVE",
"129 518 OFFCURVE",
"153 517 OFFCURVE",
"169 517 QCURVE SMOOTH",
"234 517 LINE",
"234 570 LINE"
);
},
{
nodes = (
"238 444 LINE",
"169 444 LINE",
"169 393 LINE",
"238 393 LINE"
);
}
);
width = 400;
}
);
unicode = 00AA;
},
{
glyphname = ordmasculine;
layers = (
{
layerId = "2063BA69-310B-4872-9248-C1144A07CAA9";
paths = (
{
nodes = (
"388 340 LINE SMOOTH",
"388 323 OFFCURVE",
"370 302 OFFCURVE",
"342 291 OFFCURVE",
"310 288 OFFCURVE",
"296 288 QCURVE SMOOTH",
"113 288 LINE SMOOTH",
"98 288 OFFCURVE",
"66 291 OFFCURVE",
"39 302 OFFCURVE",
"22 323 OFFCURVE",
"22 340 QCURVE SMOOTH",
"22 623 LINE SMOOTH",
"22 640 OFFCURVE",
"39 661 OFFCURVE",
"66 672 OFFCURVE",
"98 675 OFFCURVE",
"113 675 QCURVE SMOOTH",
"296 675 LINE SMOOTH",
"310 675 OFFCURVE",
"342 672 OFFCURVE",
"370 661 OFFCURVE",
"388 640 OFFCURVE",
"388 623 QCURVE SMOOTH"
);
},
{
nodes = (
"250 393 LINE",
"250 570 LINE",
"159 570 LINE",
"159 393 LINE"
);
}
);
width = 417;
}
);
unicode = 00BA;
},
{
glyphname = Gcommaaccent;
layers = (
{
layerId = "2063BA69-310B-4872-9248-C1144A07CAA9";
paths = (
{
nodes = (
"315 401 LINE",
"656 401 LINE",
"656 93 LINE SMOOTH",
"656 63 OFFCURVE",
"626 26 OFFCURVE",
"581 6 OFFCURVE",
"528 0 OFFCURVE",
"504 0 QCURVE SMOOTH",
"201 0 LINE SMOOTH",
"177 0 OFFCURVE",
"124 6 OFFCURVE",
"79 26 OFFCURVE",
"50 63 OFFCURVE",
"50 93 QCURVE SMOOTH",
"50 587 LINE SMOOTH",
"50 617 OFFCURVE",
"80 654 OFFCURVE",
"125 673 OFFCURVE",
"178 679 OFFCURVE",
"201 679 QCURVE SMOOTH",
"504 679 LINE SMOOTH",
"527 679 OFFCURVE",
"581 673 OFFCURVE",
"626 654 OFFCURVE",
"656 617 OFFCURVE",
"656 587 QCURVE SMOOTH",
"656 432 LINE",
"382 432 LINE",
"382 445 LINE",
"398 451 OFFCURVE",
"429 474 OFFCURVE",
"429 494 QCURVE",
"277 494 LINE",
"277 185 LINE",
"429 185 LINE",
"429 278 LINE",
"391 278 LINE SMOOTH",
"371 278 OFFCURVE",
"342 257 OFFCURVE",
"331 240 QCURVE",
"315 240 LINE"
);
},
{
nodes = (
"314 -226 LINE",
"284 -217 OFFCURVE",
"238 -172 OFFCURVE",
"238 -139 QCURVE SMOOTH",
"238 -117 OFFCURVE",
"258 -82 OFFCURVE",
"291 -58 OFFCURVE",
"331 -46 OFFCURVE",
"351 -46 QCURVE SMOOTH",
"370 -46 OFFCURVE",
"411 -58 OFFCURVE",
"444 -82 OFFCURVE",
"465 -117 OFFCURVE",
"465 -139 QCURVE SMOOTH",
"465 -166 OFFCURVE",
"446 -212 OFFCURVE",
"415 -250 OFFCURVE",
"374 -281 OFFCURVE",
"352 -293 QCURVE",
"314 -293 LINE"
);
}
);
width = 710;
}
);
unicode = 0122;
},
{
glyphname = gcommaaccent;
layers = (
{
layerId = "2063BA69-310B-4872-9248-C1144A07CAA9";
paths = (
{
nodes = (
"315 401 LINE",
"656 401 LINE",
"656 93 LINE SMOOTH",
"656 63 OFFCURVE",
"626 26 OFFCURVE",
"581 6 OFFCURVE",
"528 0 OFFCURVE",
"504 0 QCURVE SMOOTH",
"201 0 LINE SMOOTH",
"177 0 OFFCURVE",
"124 6 OFFCURVE",
"79 26 OFFCURVE",
"50 63 OFFCURVE",
"50 93 QCURVE SMOOTH",
"50 587 LINE SMOOTH",
"50 617 OFFCURVE",
"80 654 OFFCURVE",
"125 673 OFFCURVE",
"178 679 OFFCURVE",
"201 679 QCURVE SMOOTH",
"504 679 LINE SMOOTH",
"527 679 OFFCURVE",
"581 673 OFFCURVE",
"626 654 OFFCURVE",
"656 617 OFFCURVE",
"656 587 QCURVE SMOOTH",
"656 432 LINE",
"382 432 LINE",
"382 445 LINE",
"398 451 OFFCURVE",
"429 474 OFFCURVE",
"429 494 QCURVE",
"277 494 LINE",
"277 185 LINE",
"429 185 LINE",
"429 278 LINE",
"391 278 LINE SMOOTH",
"371 278 OFFCURVE",
"342 257 OFFCURVE",
"331 240 QCURVE",
"315 240 LINE"
);
},
{
nodes = (
"314 -226 LINE",
"284 -217 OFFCURVE",
"238 -172 OFFCURVE",
"238 -139 QCURVE SMOOTH",
"238 -117 OFFCURVE",
"258 -82 OFFCURVE",
"291 -58 OFFCURVE",
"331 -46 OFFCURVE",
"351 -46 QCURVE SMOOTH",
"370 -46 OFFCURVE",
"411 -58 OFFCURVE",
"444 -82 OFFCURVE",
"465 -117 OFFCURVE",
"465 -139 QCURVE SMOOTH",
"465 -166 OFFCURVE",
"446 -212 OFFCURVE",
"415 -250 OFFCURVE",
"374 -281 OFFCURVE",
"352 -293 QCURVE",
"314 -293 LINE"
);
}
);
width = 710;
}
);
unicode = 0123;
},
{
glyphname = idotless;
layers = (
{
layerId = "2063BA69-310B-4872-9248-C1144A07CAA9";
paths = (
{
nodes = (
"342 679 LINE",
"342 666 LINE",
"326 660 OFFCURVE",
"296 638 OFFCURVE",
"296 618 QCURVE SMOOTH",
"296 62 LINE SMOOTH",
"296 42 OFFCURVE",
"326 20 OFFCURVE",
"342 14 QCURVE",
"342 0 LINE",
"22 0 LINE",
"22 14 LINE",
"38 20 OFFCURVE",
"68 42 OFFCURVE",
"68 62 QCURVE SMOOTH",
"68 618 LINE SMOOTH",
"68 638 OFFCURVE",
"38 660 OFFCURVE",
"22 666 QCURVE",
"22 679 LINE"
);
}
);
width = 373;
}
);
},
{
glyphname = Kcommaaccent;
layers = (
{
layerId = "2063BA69-310B-4872-9248-C1144A07CAA9";
paths = (
{
nodes = (
"339 666 LINE",
"323 660 OFFCURVE",
"293 637 OFFCURVE",
"293 617 QCURVE SMOOTH",
"293 401 LINE",
"445 401 LINE",
"445 617 LINE SMOOTH",
"445 637 OFFCURVE",
"414 660 OFFCURVE",
"398 666 QCURVE",
"398 679 LINE",
"718 679 LINE",
"718 666 LINE",
"701 660 OFFCURVE",
"672 637 OFFCURVE",
"672 617 QCURVE SMOOTH",
"672 489 LINE SMOOTH",
"672 464 OFFCURVE",
"653 411 OFFCURVE",
"620 368 OFFCURVE",
"574 340 OFFCURVE",
"547 340 QCURVE",
"575 340 OFFCURVE",
"621 308 OFFCURVE",
"654 260 OFFCURVE",
"672 203 OFFCURVE",
"672 179 QCURVE SMOOTH",
"672 62 LINE SMOOTH",
"672 42 OFFCURVE",
"701 19 OFFCURVE",
"718 13 QCURVE",
"718 0 LINE",
"398 0 LINE",
"398 13 LINE",
"414 19 OFFCURVE",
"445 42 OFFCURVE",
"445 62 QCURVE SMOOTH",
"445 278 LINE",
"293 278 LINE",
"293 62 LINE SMOOTH",
"293 42 OFFCURVE",
"323 19 OFFCURVE",
"339 13 QCURVE",
"339 0 LINE",
"20 0 LINE",
"20 13 LINE",
"37 19 OFFCURVE",
"66 42 OFFCURVE",
"66 62 QCURVE SMOOTH",
"66 617 LINE SMOOTH",
"66 637 OFFCURVE",
"37 660 OFFCURVE",
"20 666 QCURVE",
"20 679 LINE",
"339 679 LINE"
);
},
{
nodes = (
"324 -226 LINE",
"294 -217 OFFCURVE",
"248 -172 OFFCURVE",
"248 -139 QCURVE SMOOTH",
"248 -117 OFFCURVE",
"268 -82 OFFCURVE",
"301 -58 OFFCURVE",
"341 -46 OFFCURVE",
"361 -46 QCURVE SMOOTH",
"380 -46 OFFCURVE",
"421 -58 OFFCURVE",
"454 -82 OFFCURVE",
"475 -117 OFFCURVE",
"475 -139 QCURVE SMOOTH",
"475 -166 OFFCURVE",
"456 -212 OFFCURVE",
"425 -250 OFFCURVE",
"384 -281 OFFCURVE",
"362 -293 QCURVE",
"324 -293 LINE"
);
}
);
width = 753;
}
);
unicode = 0136;
},
{
glyphname = kcommaaccent;
layers = (
{
layerId = "2063BA69-310B-4872-9248-C1144A07CAA9";
paths = (
{
nodes = (
"339 666 LINE",
"323 660 OFFCURVE",
"293 637 OFFCURVE",
"293 617 QCURVE SMOOTH",
"293 401 LINE",
"445 401 LINE",
"445 617 LINE SMOOTH",
"445 637 OFFCURVE",
"414 660 OFFCURVE",
"398 666 QCURVE",
"398 679 LINE",
"718 679 LINE",
"718 666 LINE",
"701 660 OFFCURVE",
"672 637 OFFCURVE",
"672 617 QCURVE SMOOTH",
"672 489 LINE SMOOTH",
"672 464 OFFCURVE",
"653 411 OFFCURVE",
"620 368 OFFCURVE",
"574 340 OFFCURVE",
"547 340 QCURVE",
"575 340 OFFCURVE",
"621 308 OFFCURVE",
"654 260 OFFCURVE",
"672 203 OFFCURVE",
"672 179 QCURVE SMOOTH",
"672 62 LINE SMOOTH",
"672 42 OFFCURVE",
"701 19 OFFCURVE",
"718 13 QCURVE",
"718 0 LINE",
"398 0 LINE",
"398 13 LINE",
"414 19 OFFCURVE",
"445 42 OFFCURVE",
"445 62 QCURVE SMOOTH",
"445 278 LINE",
"293 278 LINE",
"293 62 LINE SMOOTH",
"293 42 OFFCURVE",
"323 19 OFFCURVE",
"339 13 QCURVE",
"339 0 LINE",
"20 0 LINE",
"20 13 LINE",
"37 19 OFFCURVE",
"66 42 OFFCURVE",
"66 62 QCURVE SMOOTH",
"66 617 LINE SMOOTH",
"66 637 OFFCURVE",
"37 660 OFFCURVE",
"20 666 QCURVE",
"20 679 LINE",
"339 679 LINE"
);
},
{
nodes = (
"324 -226 LINE",
"294 -217 OFFCURVE",
"248 -172 OFFCURVE",
"248 -139 QCURVE SMOOTH",
"248 -117 OFFCURVE",
"268 -82 OFFCURVE",
"301 -58 OFFCURVE",
"341 -46 OFFCURVE",
"361 -46 QCURVE SMOOTH",
"380 -46 OFFCURVE",
"421 -58 OFFCURVE",
"454 -82 OFFCURVE",
"475 -117 OFFCURVE",
"475 -139 QCURVE SMOOTH",
"475 -166 OFFCURVE",
"456 -212 OFFCURVE",
"425 -250 OFFCURVE",
"384 -281 OFFCURVE",
"362 -293 QCURVE",
"324 -293 LINE"
);
}
);
width = 743;
}
);
unicode = 0137;
},
{
glyphname = Lcommaaccent;
layers = (
{
layerId = "2063BA69-310B-4872-9248-C1144A07CAA9";
paths = (
{
nodes = (
"248 -226 LINE",
"218 -217 OFFCURVE",
"172 -172 OFFCURVE",
"172 -139 QCURVE SMOOTH",
"172 -117 OFFCURVE",
"192 -82 OFFCURVE",
"225 -58 OFFCURVE",
"265 -46 OFFCURVE",
"285 -46 QCURVE SMOOTH",
"304 -46 OFFCURVE",
"345 -58 OFFCURVE",
"378 -82 OFFCURVE",
"399 -117 OFFCURVE",
"399 -139 QCURVE SMOOTH",
"399 -166 OFFCURVE",
"380 -212 OFFCURVE",
"349 -250 OFFCURVE",
"308 -281 OFFCURVE",
"286 -293 QCURVE",
"248 -293 LINE"
);
},
{
nodes = (
"540 222 LINE",
"540 0 LINE",
"17 0 LINE",
"17 13 LINE",
"32 19 OFFCURVE",
"63 42 OFFCURVE",
"63 61 QCURVE SMOOTH",
"63 617 LINE SMOOTH",
"63 636 OFFCURVE",
"33 660 OFFCURVE",
"17 666 QCURVE",
"17 679 LINE",
"336 679 LINE",
"336 666 LINE",
"320 660 OFFCURVE",
"290 637 OFFCURVE",
"290 617 QCURVE SMOOTH",
"290 185 LINE",
"464 185 LINE SMOOTH",
"484 185 OFFCURVE",
"513 205 OFFCURVE",
"524 222 QCURVE"
);
}
);
width = 575;
}
);
unicode = 013B;
},
{
glyphname = lcommaaccent;
layers = (
{
layerId = "2063BA69-310B-4872-9248-C1144A07CAA9";
paths = (
{
nodes = (
"248 -226 LINE",
"218 -217 OFFCURVE",
"172 -172 OFFCURVE",
"172 -139 QCURVE SMOOTH",
"172 -117 OFFCURVE",
"192 -82 OFFCURVE",
"225 -58 OFFCURVE",
"265 -46 OFFCURVE",
"285 -46 QCURVE SMOOTH",
"304 -46 OFFCURVE",
"345 -58 OFFCURVE",
"378 -82 OFFCURVE",
"399 -117 OFFCURVE",
"399 -139 QCURVE SMOOTH",
"399 -166 OFFCURVE",
"380 -212 OFFCURVE",
"349 -250 OFFCURVE",
"308 -281 OFFCURVE",
"286 -293 QCURVE",
"248 -293 LINE"
);
},
{
nodes = (
"540 222 LINE",
"540 0 LINE",
"17 0 LINE",
"17 13 LINE",
"32 19 OFFCURVE",
"63 42 OFFCURVE",
"63 61 QCURVE SMOOTH",
"63 617 LINE SMOOTH",
"63 636 OFFCURVE",
"33 660 OFFCURVE",
"17 666 QCURVE",
"17 679 LINE",
"336 679 LINE",
"336 666 LINE",
"320 660 OFFCURVE",
"290 637 OFFCURVE",
"290 617 QCURVE SMOOTH",
"290 185 LINE",
"464 185 LINE SMOOTH",
"484 185 OFFCURVE",
"513 205 OFFCURVE",
"524 222 QCURVE"
);
}
);
width = 572;
}
);
unicode = 013C;
},
{
glyphname = Ncommaaccent;
layers = (
{
layerId = "2063BA69-310B-4872-9248-C1144A07CAA9";
paths = (
{
nodes = (
"17 13 LINE",
"34 19 OFFCURVE",
"63 42 OFFCURVE",
"63 62 QCURVE SMOOTH",
"63 617 LINE SMOOTH",
"63 637 OFFCURVE",
"34 660 OFFCURVE",
"17 666 QCURVE",
"17 679 LINE",
"336 679 LINE",
"336 666 LINE",
"320 660 OFFCURVE",
"290 637 OFFCURVE",
"290 617 QCURVE SMOOTH",
"290 494 LINE",
"442 344 LINE",
"442 617 LINE SMOOTH",
"442 637 OFFCURVE",
"413 660 OFFCURVE",
"396 666 QCURVE",
"396 679 LINE",
"715 679 LINE",
"715 666 LINE",
"698 660 OFFCURVE",
"669 637 OFFCURVE",
"669 617 QCURVE SMOOTH",
"669 62 LINE SMOOTH",
"669 42 OFFCURVE",
"698 19 OFFCURVE",
"715 13 QCURVE",
"715 0 LINE",
"396 0 LINE",
"396 13 LINE",
"413 19 OFFCURVE",
"442 42 OFFCURVE",
"442 62 QCURVE SMOOTH",
"442 150 LINE",
"290 300 LINE",
"290 62 LINE SMOOTH",
"290 42 OFFCURVE",
"320 19 OFFCURVE",
"336 13 QCURVE",
"336 0 LINE",
"17 0 LINE"
);
},
{
nodes = (
"314 -226 LINE",
"284 -217 OFFCURVE",
"238 -172 OFFCURVE",
"238 -139 QCURVE SMOOTH",
"238 -117 OFFCURVE",
"258 -82 OFFCURVE",
"291 -58 OFFCURVE",
"331 -46 OFFCURVE",
"351 -46 QCURVE SMOOTH",
"370 -46 OFFCURVE",
"411 -58 OFFCURVE",
"444 -82 OFFCURVE",
"465 -117 OFFCURVE",
"465 -139 QCURVE SMOOTH",
"465 -166 OFFCURVE",
"446 -212 OFFCURVE",
"415 -250 OFFCURVE",
"374 -281 OFFCURVE",
"352 -293 QCURVE",
"314 -293 LINE"
);
}
);
width = 748;
}
);
unicode = 0145;
},
{
glyphname = ncommaaccent;
layers = (
{
layerId = "2063BA69-310B-4872-9248-C1144A07CAA9";
paths = (
{
nodes = (
"17 13 LINE",
"34 19 OFFCURVE",
"63 42 OFFCURVE",
"63 62 QCURVE SMOOTH",
"63 617 LINE SMOOTH",
"63 637 OFFCURVE",
"34 660 OFFCURVE",
"17 666 QCURVE",
"17 679 LINE",
"336 679 LINE",
"336 666 LINE",
"320 660 OFFCURVE",
"290 637 OFFCURVE",
"290 617 QCURVE SMOOTH",
"290 494 LINE",
"442 344 LINE",
"442 617 LINE SMOOTH",
"442 637 OFFCURVE",
"413 660 OFFCURVE",
"396 666 QCURVE",
"396 679 LINE",
"715 679 LINE",
"715 666 LINE",
"698 660 OFFCURVE",
"669 637 OFFCURVE",
"669 617 QCURVE SMOOTH",
"669 62 LINE SMOOTH",
"669 42 OFFCURVE",
"698 19 OFFCURVE",
"715 13 QCURVE",
"715 0 LINE",
"396 0 LINE",
"396 13 LINE",
"413 19 OFFCURVE",
"442 42 OFFCURVE",
"442 62 QCURVE SMOOTH",
"442 150 LINE",
"290 300 LINE",
"290 62 LINE SMOOTH",
"290 42 OFFCURVE",
"320 19 OFFCURVE",
"336 13 QCURVE",
"336 0 LINE",
"17 0 LINE"
);
},
{
nodes = (
"314 -226 LINE",
"284 -217 OFFCURVE",
"238 -172 OFFCURVE",
"238 -139 QCURVE SMOOTH",
"238 -117 OFFCURVE",
"258 -82 OFFCURVE",
"291 -58 OFFCURVE",
"331 -46 OFFCURVE",
"351 -46 QCURVE SMOOTH",
"370 -46 OFFCURVE",
"411 -58 OFFCURVE",
"444 -82 OFFCURVE",
"465 -117 OFFCURVE",
"465 -139 QCURVE SMOOTH",
"465 -166 OFFCURVE",
"446 -212 OFFCURVE",
"415 -250 OFFCURVE",
"374 -281 OFFCURVE",
"352 -293 QCURVE",
"314 -293 LINE"
);
}
);
width = 738;
}
);
unicode = 0146;
},
{
glyphname = Umacron;
layers = (
{
layerId = "2063BA69-310B-4872-9248-C1144A07CAA9";
paths = (
{
nodes = (
"25 851 LINE",
"341 851 LINE",
"341 713 LINE",
"25 713 LINE"
);
}
);
width = 0;
}
);
unicode = 016A;
},
{
glyphname = umacron;
layers = (
{
layerId = "2063BA69-310B-4872-9248-C1144A07CAA9";
paths = (
{
nodes = (
"25 851 LINE",
"341 851 LINE",
"341 713 LINE",
"25 713 LINE"
);
}
);
width = 0;
}
);
unicode = 016B;
},
{
glyphname = Scommaaccent;
layers = (
{
layerId = "2063BA69-310B-4872-9248-C1144A07CAA9";
paths = (
{
nodes = (
"622 92 LINE SMOOTH",
"622 62 OFFCURVE",
"593 25 OFFCURVE",
"548 6 OFFCURVE",
"495 0 OFFCURVE",
"471 0 QCURVE SMOOTH",
"197 0 LINE SMOOTH",
"173 0 OFFCURVE",
"120 6 OFFCURVE",
"75 25 OFFCURVE",
"46 62 OFFCURVE",
"46 92 QCURVE SMOOTH",
"46 246 LINE",
"319 246 LINE",
"319 233 LINE",
"303 228 OFFCURVE",
"273 205 OFFCURVE",
"273 185 QCURVE",
"395 185 LINE",
"395 277 LINE",
"273 277 LINE SMOOTH",
"246 277 OFFCURVE",
"203 276 OFFCURVE",
"198 276 QCURVE SMOOTH",
"175 276 OFFCURVE",
"121 282 OFFCURVE",
"76 302 OFFCURVE",
"46 339 OFFCURVE",
"46 370 QCURVE SMOOTH",
"46 586 LINE SMOOTH",
"46 616 OFFCURVE",
"75 653 OFFCURVE",
"120 672 OFFCURVE",
"173 678 OFFCURVE",
"197 678 QCURVE SMOOTH",
"471 678 LINE SMOOTH",
"495 678 OFFCURVE",
"548 672 OFFCURVE",
"593 653 OFFCURVE",
"622 616 OFFCURVE",
"622 586 QCURVE SMOOTH",
"622 431 LINE",
"349 431 LINE",
"349 445 LINE",
"365 451 OFFCURVE",
"395 474 OFFCURVE",
"395 493 QCURVE",
"273 493 LINE",
"273 401 LINE",
"395 401 LINE SMOOTH",
"422 401 OFFCURVE",
"465 402 OFFCURVE",
"470 402 QCURVE SMOOTH",
"494 402 OFFCURVE",
"547 396 OFFCURVE",
"592 376 OFFCURVE",
"622 339 OFFCURVE",
"622 308 QCURVE SMOOTH"
);
},
{
nodes = (
"314 -226 LINE",
"284 -217 OFFCURVE",
"238 -172 OFFCURVE",
"238 -139 QCURVE SMOOTH",
"238 -117 OFFCURVE",
"258 -82 OFFCURVE",
"291 -58 OFFCURVE",
"331 -46 OFFCURVE",
"351 -46 QCURVE SMOOTH",
"370 -46 OFFCURVE",
"411 -58 OFFCURVE",
"444 -82 OFFCURVE",
"465 -117 OFFCURVE",
"465 -139 QCURVE SMOOTH",
"465 -166 OFFCURVE",
"446 -212 OFFCURVE",
"415 -250 OFFCURVE",
"374 -281 OFFCURVE",
"352 -293 QCURVE",
"314 -293 LINE"
);
}
);
width = 657;
}
);
unicode = 0218;
},
{
glyphname = scommaaccent;
layers = (
{
layerId = "2063BA69-310B-4872-9248-C1144A07CAA9";
paths = (
{
nodes = (
"622 92 LINE SMOOTH",
"622 62 OFFCURVE",
"593 25 OFFCURVE",
"548 6 OFFCURVE",
"495 0 OFFCURVE",
"471 0 QCURVE SMOOTH",
"197 0 LINE SMOOTH",
"173 0 OFFCURVE",
"120 6 OFFCURVE",
"75 25 OFFCURVE",
"46 62 OFFCURVE",
"46 92 QCURVE SMOOTH",
"46 246 LINE",
"319 246 LINE",
"319 233 LINE",
"303 228 OFFCURVE",
"273 205 OFFCURVE",
"273 185 QCURVE",
"395 185 LINE",
"395 277 LINE",
"273 277 LINE SMOOTH",
"246 277 OFFCURVE",
"203 276 OFFCURVE",
"198 276 QCURVE SMOOTH",
"175 276 OFFCURVE",
"121 282 OFFCURVE",
"76 302 OFFCURVE",
"46 339 OFFCURVE",
"46 370 QCURVE SMOOTH",
"46 586 LINE SMOOTH",
"46 616 OFFCURVE",
"75 653 OFFCURVE",
"120 672 OFFCURVE",
"173 678 OFFCURVE",
"197 678 QCURVE SMOOTH",
"471 678 LINE SMOOTH",
"495 678 OFFCURVE",
"548 672 OFFCURVE",
"593 653 OFFCURVE",
"622 616 OFFCURVE",
"622 586 QCURVE SMOOTH",
"622 431 LINE",
"349 431 LINE",
"349 445 LINE",
"365 451 OFFCURVE",
"395 474 OFFCURVE",
"395 493 QCURVE",
"273 493 LINE",
"273 401 LINE",
"395 401 LINE SMOOTH",
"422 401 OFFCURVE",
"465 402 OFFCURVE",
"470 402 QCURVE SMOOTH",
"494 402 OFFCURVE",
"547 396 OFFCURVE",
"592 376 OFFCURVE",
"622 339 OFFCURVE",
"622 308 QCURVE SMOOTH"
);
},
{
nodes = (
"314 -226 LINE",
"284 -217 OFFCURVE",
"238 -172 OFFCURVE",
"238 -139 QCURVE SMOOTH",
"238 -117 OFFCURVE",
"258 -82 OFFCURVE",
"291 -58 OFFCURVE",
"331 -46 OFFCURVE",
"351 -46 QCURVE SMOOTH",
"370 -46 OFFCURVE",
"411 -58 OFFCURVE",
"444 -82 OFFCURVE",
"465 -117 OFFCURVE",
"465 -139 QCURVE SMOOTH",
"465 -166 OFFCURVE",
"446 -212 OFFCURVE",
"415 -250 OFFCURVE",
"374 -281 OFFCURVE",
"352 -293 QCURVE",
"314 -293 LINE"
);
}
);
width = 667;
}
);
unicode = 0219;
},
{
glyphname = Tcommaaccent;
layers = (
{
layerId = "2063BA69-310B-4872-9248-C1144A07CAA9";
paths = (
{
nodes = (
"19 679 LINE",
"544 679 LINE",
"544 456 LINE",
"528 456 LINE",
"518 473 OFFCURVE",
"489 494 OFFCURVE",
"469 494 QCURVE SMOOTH",
"396 494 LINE",
"396 62 LINE SMOOTH",
"396 42 OFFCURVE",
"425 19 OFFCURVE",
"442 13 QCURVE",
"442 0 LINE",
"123 0 LINE",
"123 13 LINE",
"139 19 OFFCURVE",
"169 42 OFFCURVE",
"169 62 QCURVE SMOOTH",
"169 494 LINE",
"95 494 LINE SMOOTH",
"75 494 OFFCURVE",
"46 473 OFFCURVE",
"36 456 QCURVE",
"19 456 LINE"
);
},
{
nodes = (
"250 -226 LINE",
"220 -217 OFFCURVE",
"174 -172 OFFCURVE",
"174 -139 QCURVE SMOOTH",
"174 -117 OFFCURVE",
"194 -82 OFFCURVE",
"227 -58 OFFCURVE",
"267 -46 OFFCURVE",
"287 -46 QCURVE SMOOTH",
"306 -46 OFFCURVE",
"347 -58 OFFCURVE",
"380 -82 OFFCURVE",
"401 -117 OFFCURVE",
"401 -139 QCURVE SMOOTH",
"401 -166 OFFCURVE",
"382 -212 OFFCURVE",
"351 -250 OFFCURVE",
"310 -281 OFFCURVE",
"288 -293 QCURVE",
"250 -293 LINE"
);
}
);
width = 557;
}
);
unicode = 0162;
},
{
glyphname = tcommaaccent;
layers = (
{
layerId = "2063BA69-310B-4872-9248-C1144A07CAA9";
paths = (
{
nodes = (
"19 679 LINE",
"544 679 LINE",
"544 456 LINE",
"528 456 LINE",
"518 473 OFFCURVE",
"489 494 OFFCURVE",
"469 494 QCURVE SMOOTH",
"396 494 LINE",
"396 62 LINE SMOOTH",
"396 42 OFFCURVE",
"425 19 OFFCURVE",
"442 13 QCURVE",
"442 0 LINE",
"123 0 LINE",
"123 13 LINE",
"139 19 OFFCURVE",
"169 42 OFFCURVE",
"169 62 QCURVE SMOOTH",
"169 494 LINE",
"95 494 LINE SMOOTH",
"75 494 OFFCURVE",
"46 473 OFFCURVE",
"36 456 QCURVE",
"19 456 LINE"
);
},
{
nodes = (
"250 -226 LINE",
"220 -217 OFFCURVE",
"174 -172 OFFCURVE",
"174 -139 QCURVE SMOOTH",
"174 -117 OFFCURVE",
"194 -82 OFFCURVE",
"227 -58 OFFCURVE",
"267 -46 OFFCURVE",
"287 -46 QCURVE SMOOTH",
"306 -46 OFFCURVE",
"347 -58 OFFCURVE",
"380 -82 OFFCURVE",
"401 -117 OFFCURVE",
"401 -139 QCURVE SMOOTH",
"401 -166 OFFCURVE",
"382 -212 OFFCURVE",
"351 -250 OFFCURVE",
"310 -281 OFFCURVE",
"288 -293 QCURVE",
"250 -293 LINE"
);
}
);
width = 570;
}
);
unicode = 0163;
},
{
glyphname = jdotless;
layers = (
{
layerId = "2063BA69-310B-4872-9248-C1144A07CAA9";
paths = (
{
nodes = (
"124 493 LINE SMOOTH",
"104 493 OFFCURVE",
"74 473 OFFCURVE",
"64 456 QCURVE",
"48 456 LINE",
"48 678 LINE",
"621 678 LINE",
"621 92 LINE SMOOTH",
"621 62 OFFCURVE",
"592 25 OFFCURVE",
"547 6 OFFCURVE",
"494 0 OFFCURVE",
"470 0 QCURVE SMOOTH",
"199 0 LINE SMOOTH",
"175 0 OFFCURVE",
"122 6 OFFCURVE",
"77 25 OFFCURVE",
"48 61 OFFCURVE",
"48 92 QCURVE SMOOTH",
"48 246 LINE",
"321 246 LINE",
"321 233 LINE",
"305 227 OFFCURVE",
"275 205 OFFCURVE",
"275 185 QCURVE",
"394 185 LINE",
"394 493 LINE"
);
}
);
width = 647;
}
);
},
{
glyphname = Germandbls;
layers = (
{
layerId = "2063BA69-310B-4872-9248-C1144A07CAA9";
paths = (
{
nodes = (
"704 679 LINE",
"704 666 LINE",
"688 661 OFFCURVE",
"673 649 QCURVE SMOOTH",
"661 640 OFFCURVE",
"658 626 QCURVE",
"658 432 LINE SMOOTH",
"658 393 OFFCURVE",
"620 351 OFFCURVE",
"589 343 QCURVE SMOOTH",
"581 341 OFFCURVE",
"567 340 OFFCURVE",
"560 339 QCURVE",
"574 337 LINE SMOOTH",
"581 336 OFFCURVE",
"589 334 QCURVE SMOOTH",
"620 328 OFFCURVE",
"658 286 OFFCURVE",
"658 247 QCURVE SMOOTH",
"658 92 LINE SMOOTH",
"658 62 OFFCURVE",
"628 25 OFFCURVE",
"583 6 OFFCURVE",
"530 0 OFFCURVE",
"507 0 QCURVE SMOOTH",
"321 0 LINE",
"321 185 LINE",
"431 185 LINE",
"431 278 LINE",
"320 278 LINE",
"320 401 LINE",
"431 401 LINE",
"431 494 LINE",
"286 494 LINE",
"286 0 LINE",
"12 0 LINE",
"12 13 LINE",
"28 18 OFFCURVE",
"58 41 OFFCURVE",
"58 61 QCURVE SMOOTH",
"58 586 LINE SMOOTH",
"58 616 OFFCURVE",
"88 653 OFFCURVE",
"133 673 OFFCURVE",
"186 679 OFFCURVE",
"210 679 QCURVE SMOOTH"
);
}
);
width = 723;
}
);
},
{
glyphname = Ygrave;
layers = (
{
layerId = "2063BA69-310B-4872-9248-C1144A07CAA9";
paths = (
{
nodes = (
"218 884 LINE",
"396 884 LINE",
"504 716 LINE",
"321 716 LINE"
);
},
{
nodes = (
"452 278 LINE",
"452 62 LINE SMOOTH",
"452 42 OFFCURVE",
"481 19 OFFCURVE",
"498 13 QCURVE",
"498 0 LINE",
"178 0 LINE",
"178 13 LINE",
"194 19 OFFCURVE",
"225 42 OFFCURVE",
"225 62 QCURVE SMOOTH",
"225 278 LINE",
"172 278 LINE SMOOTH",
"133 278 OFFCURVE",
"87 308 OFFCURVE",
"63 355 OFFCURVE",
"56 410 OFFCURVE",
"56 436 QCURVE SMOOTH",
"56 443 OFFCURVE",
"58 492 OFFCURVE",
"58 525 QCURVE SMOOTH",
"58 617 LINE SMOOTH",
"58 637 OFFCURVE",
"29 660 OFFCURVE",
"12 666 QCURVE",
"12 679 LINE",
"331 679 LINE",
"331 666 LINE",
"315 660 OFFCURVE",
"285 637 OFFCURVE",
"285 617 QCURVE SMOOTH",
"285 401 LINE",
"401 401 LINE",
"401 617 LINE SMOOTH",
"401 637 OFFCURVE",
"371 660 OFFCURVE",
"355 666 QCURVE",
"355 679 LINE",
"674 679 LINE",
"674 666 LINE",
"657 660 OFFCURVE",
"628 637 OFFCURVE",
"628 617 QCURVE SMOOTH",
"628 525 LINE SMOOTH",
"628 492 OFFCURVE",
"630 443 OFFCURVE",
"630 436 QCURVE SMOOTH",
"630 410 OFFCURVE",
"623 355 OFFCURVE",
"599 308 OFFCURVE",
"553 278 OFFCURVE",
"514 278 QCURVE SMOOTH"
);
},
{
nodes = (
"64 884 LINE",
"242 884 LINE",
"350 716 LINE",
"167 716 LINE"
);
}
);
width = 703;
}
);
unicode = 1EF2;
},
{
glyphname = ygrave;
layers = (
{
layerId = "2063BA69-310B-4872-9248-C1144A07CAA9";
paths = (
{
nodes = (
"218 884 LINE",
"396 884 LINE",
"504 716 LINE",
"321 716 LINE"
);
},
{
nodes = (
"452 278 LINE",
"452 62 LINE SMOOTH",
"452 42 OFFCURVE",
"481 19 OFFCURVE",
"498 13 QCURVE",
"498 0 LINE",
"178 0 LINE",
"178 13 LINE",
"194 19 OFFCURVE",
"225 42 OFFCURVE",
"225 62 QCURVE SMOOTH",
"225 278 LINE",
"172 278 LINE SMOOTH",
"133 278 OFFCURVE",
"87 308 OFFCURVE",
"63 355 OFFCURVE",
"56 410 OFFCURVE",
"56 436 QCURVE SMOOTH",
"56 443 OFFCURVE",
"58 492 OFFCURVE",
"58 525 QCURVE SMOOTH",
"58 617 LINE SMOOTH",
"58 637 OFFCURVE",
"29 660 OFFCURVE",
"12 666 QCURVE",
"12 679 LINE",
"331 679 LINE",
"331 666 LINE",
"315 660 OFFCURVE",
"285 637 OFFCURVE",
"285 617 QCURVE SMOOTH",
"285 401 LINE",
"401 401 LINE",
"401 617 LINE SMOOTH",
"401 637 OFFCURVE",
"371 660 OFFCURVE",
"355 666 QCURVE",
"355 679 LINE",
"674 679 LINE",
"674 666 LINE",
"657 660 OFFCURVE",
"628 637 OFFCURVE",
"628 617 QCURVE SMOOTH",
"628 525 LINE SMOOTH",
"628 492 OFFCURVE",
"630 443 OFFCURVE",
"630 436 QCURVE SMOOTH",
"630 410 OFFCURVE",
"623 355 OFFCURVE",
"599 308 OFFCURVE",
"553 278 OFFCURVE",
"514 278 QCURVE SMOOTH"
);
},
{
nodes = (
"64 884 LINE",
"242 884 LINE",
"350 716 LINE",
"167 716 LINE"
);
}
);
width = 693;
}
);
unicode = 1EF3;
},
{
glyphname = exclam;
layers = (
{
layerId = "2063BA69-310B-4872-9248-C1144A07CAA9";
paths = (
{
nodes = (
"331 216 LINE",
"12 216 LINE",
"12 230 LINE",
"28 236 OFFCURVE",
"58 259 OFFCURVE",
"58 278 QCURVE SMOOTH",
"58 618 LINE SMOOTH",
"58 637 OFFCURVE",
"27 660 OFFCURVE",
"12 666 QCURVE",
"12 679 LINE",
"331 679 LINE",
"331 666 LINE",
"316 660 OFFCURVE",
"285 637 OFFCURVE",
"285 618 QCURVE SMOOTH",
"285 278 LINE SMOOTH",
"285 259 OFFCURVE",
"315 236 OFFCURVE",
"331 230 QCURVE"
);
},
{
nodes = (
"285 71 OFFCURVE",
"264 37 OFFCURVE",
"232 13 OFFCURVE",
"191 0 OFFCURVE",
"172 0 QCURVE SMOOTH",
"152 0 OFFCURVE",
"112 12 OFFCURVE",
"79 36 OFFCURVE",
"58 70 OFFCURVE",
"58 93 QCURVE SMOOTH",
"58 115 OFFCURVE",
"79 150 OFFCURVE",
"112 174 OFFCURVE",
"152 186 OFFCURVE",
"172 186 QCURVE SMOOTH",
"191 186 OFFCURVE",
"232 173 OFFCURVE",
"264 149 OFFCURVE",
"285 115 OFFCURVE",
"285 93 QCURVE SMOOTH"
);
}
);
width = 343;
}
);
unicode = 0021;
},
{
glyphname = quotedbl;
layers = (
{
layerId = "2063BA69-310B-4872-9248-C1144A07CAA9";
paths = (
{
nodes = (
"26 650 LINE",
"207 650 LINE",
"164 388 LINE",
"57 388 LINE"
);
},
{
nodes = (
"241 650 LINE",
"422 650 LINE",
"379 388 LINE",
"272 388 LINE"
);
}
);
width = 439;
}
);
unicode = 0022;
},
{
glyphname = numbersign;
layers = (
{
layerId = "2063BA69-310B-4872-9248-C1144A07CAA9";
paths = (
{
nodes = (
"376 655 LINE",
"373 642 LINE",
"356 636 OFFCURVE",
"321 614 OFFCURVE",
"317 594 QCURVE SMOOTH",
"305 538 LINE",
"494 538 LINE",
"506 594 LINE SMOOTH",
"507 597 OFFCURVE",
"507 603 QCURVE SMOOTH",
"507 617 OFFCURVE",
"485 636 OFFCURVE",
"470 642 QCURVE",
"473 655 LINE",
"643 655 LINE",
"640 642 LINE",
"623 636 OFFCURVE",
"588 614 OFFCURVE",
"584 594 QCURVE SMOOTH",
"572 538 LINE",
"646 538 LINE SMOOTH",
"666 538 OFFCURVE",
"694 568 OFFCURVE",
"704 584 QCURVE",
"718 584 LINE",
"681 414 LINE",
"667 414 LINE",
"665 430 OFFCURVE",
"649 460 OFFCURVE",
"629 460 QCURVE SMOOTH",
"555 460 LINE",
"517 279 LINE",
"591 279 LINE SMOOTH",
"611 279 OFFCURVE",
"639 309 OFFCURVE",
"649 325 QCURVE",
"663 325 LINE",
"626 155 LINE",
"612 155 LINE",
"610 171 OFFCURVE",
"594 201 OFFCURVE",
"574 201 QCURVE SMOOTH",
"500 201 LINE",
"481 111 LINE SMOOTH",
"480 108 OFFCURVE",
"480 102 QCURVE SMOOTH",
"480 88 OFFCURVE",
"502 69 OFFCURVE",
"517 63 QCURVE",
"514 49 LINE",
"344 49 LINE",
"347 63 LINE",
"364 69 OFFCURVE",
"399 91 OFFCURVE",
"403 111 QCURVE SMOOTH",
"422 201 LINE",
"233 201 LINE",
"214 111 LINE SMOOTH",
"213 108 OFFCURVE",
"213 102 QCURVE SMOOTH",
"213 88 OFFCURVE",
"235 69 OFFCURVE",
"250 63 QCURVE",
"247 49 LINE",
"77 49 LINE",
"80 63 LINE",
"97 69 OFFCURVE",
"132 91 OFFCURVE",
"136 111 QCURVE SMOOTH",
"155 201 LINE",
"91 201 LINE SMOOTH",
"71 201 OFFCURVE",
"43 171 OFFCURVE",
"33 155 QCURVE",
"20 155 LINE",
"57 325 LINE",
"70 325 LINE",
"72 309 OFFCURVE",
"88 279 OFFCURVE",
"108 279 QCURVE SMOOTH",
"172 279 LINE",
"210 460 LINE",
"146 460 LINE SMOOTH",
"126 460 OFFCURVE",
"98 430 OFFCURVE",
"88 414 QCURVE",
"75 414 LINE",
"112 584 LINE",
"125 584 LINE",
"127 568 OFFCURVE",
"143 538 OFFCURVE",
"163 538 QCURVE SMOOTH",
"227 538 LINE",
"239 594 LINE SMOOTH",
"240 597 OFFCURVE",
"240 603 QCURVE SMOOTH",
"240 617 OFFCURVE",
"218 636 OFFCURVE",
"203 642 QCURVE",
"206 655 LINE"
);
},
{
nodes = (
"439 279 LINE",
"477 460 LINE",
"288 460 LINE",
"250 279 LINE"
);
}
);
width = 735;
}
);
unicode = 0023;
},
{
glyphname = dollar;
layers = (
{
layerId = "2063BA69-310B-4872-9248-C1144A07CAA9";
paths = (
{
nodes = (
"427 772 LINE",
"427 678 LINE",
"471 678 LINE SMOOTH",
"495 678 OFFCURVE",
"548 672 OFFCURVE",
"593 653 OFFCURVE",
"622 616 OFFCURVE",
"622 586 QCURVE SMOOTH",
"622 431 LINE",
"349 431 LINE",
"349 445 LINE",
"365 451 OFFCURVE",
"395 474 OFFCURVE",
"395 493 QCURVE",
"273 493 LINE",
"273 401 LINE",
"395 401 LINE SMOOTH",
"422 401 OFFCURVE",
"465 402 OFFCURVE",
"470 402 QCURVE SMOOTH",
"494 402 OFFCURVE",
"547 396 OFFCURVE",
"592 376 OFFCURVE",
"622 339 OFFCURVE",
"622 308 QCURVE SMOOTH",
"622 92 LINE SMOOTH",
"622 62 OFFCURVE",
"593 25 OFFCURVE",
"548 6 OFFCURVE",
"495 0 OFFCURVE",
"471 0 QCURVE SMOOTH",
"427 0 LINE",
"427 -85 LINE",
"245 -85 LINE",
"245 0 LINE",
"197 0 LINE SMOOTH",
"173 0 OFFCURVE",
"120 6 OFFCURVE",
"75 25 OFFCURVE",
"46 62 OFFCURVE",
"46 92 QCURVE SMOOTH",
"46 246 LINE",
"319 246 LINE",
"319 233 LINE",
"303 228 OFFCURVE",
"273 205 OFFCURVE",
"273 185 QCURVE",
"395 185 LINE",
"395 277 LINE",
"273 277 LINE SMOOTH",
"246 277 OFFCURVE",
"203 276 OFFCURVE",
"198 276 QCURVE SMOOTH",
"175 276 OFFCURVE",
"121 282 OFFCURVE",
"76 302 OFFCURVE",
"46 339 OFFCURVE",
"46 370 QCURVE SMOOTH",
"46 586 LINE SMOOTH",
"46 616 OFFCURVE",
"75 653 OFFCURVE",
"120 672 OFFCURVE",
"173 678 OFFCURVE",
"197 678 QCURVE SMOOTH",
"245 678 LINE",
"245 772 LINE"
);
}
);
width = 673;
}
);
unicode = 0024;
},
{
glyphname = percent;
layers = (
{
layerId = "2063BA69-310B-4872-9248-C1144A07CAA9";
paths = (
{
nodes = (
"936 678 LINE",
"930 665 LINE",
"912 659 OFFCURVE",
"872 637 OFFCURVE",
"864 617 QCURVE SMOOTH",
"628 62 LINE SMOOTH",
"623 50 OFFCURVE",
"623 45 QCURVE SMOOTH",
"623 37 OFFCURVE",
"640 20 OFFCURVE",
"652 14 QCURVE",
"648 0 LINE",
"342 0 LINE",
"346 14 LINE",
"366 20 OFFCURVE",
"404 42 OFFCURVE",
"414 62 QCURVE",
"650 617 LINE SMOOTH",
"654 625 OFFCURVE",
"654 633 QCURVE SMOOTH",
"654 652 OFFCURVE",
"624 665 QCURVE",
"630 678 LINE"
);
},
{
nodes = (
"467 282 LINE SMOOTH",
"467 252 OFFCURVE",
"437 215 OFFCURVE",
"392 196 OFFCURVE",
"339 190 OFFCURVE",
"315 190 QCURVE SMOOTH",
"204 190 LINE SMOOTH",
"180 190 OFFCURVE",
"127 196 OFFCURVE",
"82 215 OFFCURVE",
"53 252 OFFCURVE",
"53 282 QCURVE SMOOTH",
"53 586 LINE SMOOTH",
"53 616 OFFCURVE",
"82 653 OFFCURVE",
"127 672 OFFCURVE",
"180 678 OFFCURVE",
"204 678 QCURVE SMOOTH",
"315 678 LINE SMOOTH",
"339 678 OFFCURVE",
"392 672 OFFCURVE",
"437 653 OFFCURVE",
"467 616 OFFCURVE",
"467 586 QCURVE SMOOTH"
);
},
{
nodes = (
"306 328 LINE",
"306 553 LINE",
"202 553 LINE",
"202 328 LINE"
);
},
{
nodes = (
"1253 92 LINE SMOOTH",
"1253 62 OFFCURVE",
"1223 25 OFFCURVE",
"1178 6 OFFCURVE",
"1125 0 OFFCURVE",
"1101 0 QCURVE SMOOTH",
"990 0 LINE SMOOTH",
"966 0 OFFCURVE",
"913 6 OFFCURVE",
"868 25 OFFCURVE",
"839 62 OFFCURVE",
"839 92 QCURVE SMOOTH",
"839 396 LINE SMOOTH",
"839 426 OFFCURVE",
"868 463 OFFCURVE",
"913 482 OFFCURVE",
"966 488 OFFCURVE",
"990 488 QCURVE SMOOTH",
"1101 488 LINE SMOOTH",
"1125 488 OFFCURVE",
"1178 482 OFFCURVE",
"1223 463 OFFCURVE",
"1253 426 OFFCURVE",
"1253 396 QCURVE SMOOTH"
);
},
{
nodes = (
"1092 138 LINE",
"1092 363 LINE",
"988 363 LINE",
"988 138 LINE"
);
}
);
width = 1297;
}
);
unicode = 0025;
},
{
glyphname = ampersand;
layers = (
{
layerId = "2063BA69-310B-4872-9248-C1144A07CAA9";
paths = (
{
nodes = (
"274 494 LINE",
"274 401 LINE",
"663 401 LINE",
"663 275 LINE",
"601 275 LINE",
"601 93 LINE SMOOTH",
"601 63 OFFCURVE",
"572 26 OFFCURVE",
"527 6 OFFCURVE",
"474 0 OFFCURVE",
"450 0 QCURVE SMOOTH",
"198 0 LINE SMOOTH",
"174 0 OFFCURVE",
"121 6 OFFCURVE",
"76 26 OFFCURVE",
"46 63 OFFCURVE",
"46 93 QCURVE SMOOTH",
"46 247 LINE SMOOTH",
"46 287 OFFCURVE",
"84 328 OFFCURVE",
"115 336 QCURVE SMOOTH",
"122 338 OFFCURVE",
"136 339 OFFCURVE",
"143 340 QCURVE",
"136 341 OFFCURVE",
"122 343 OFFCURVE",
"115 345 QCURVE SMOOTH",
"85 351 OFFCURVE",
"46 393 OFFCURVE",
"46 432 QCURVE SMOOTH",
"46 587 LINE SMOOTH",
"46 617 OFFCURVE",
"76 654 OFFCURVE",
"121 673 OFFCURVE",
"175 679 OFFCURVE",
"198 679 QCURVE SMOOTH",
"599 679 LINE",
"599 456 LINE",
"583 456 LINE",
"574 473 OFFCURVE",
"544 494 OFFCURVE",
"524 494 QCURVE SMOOTH"
);
},
{
nodes = (
"274 278 LINE",
"274 185 LINE",
"374 185 LINE",
"374 278 LINE"
);
}
);
width = 692;
}
);
unicode = 0026;
},
{
glyphname = quotesingle;
layers = (
{
layerId = "2063BA69-310B-4872-9248-C1144A07CAA9";
paths = (
{
nodes = (
"86 532 LINE",
"62 539 OFFCURVE",
"25 575 OFFCURVE",
"25 602 QCURVE SMOOTH",
"25 619 OFFCURVE",
"41 647 OFFCURVE",
"67 666 OFFCURVE",
"99 676 OFFCURVE",
"115 676 QCURVE SMOOTH",
"131 676 OFFCURVE",
"163 666 OFFCURVE",
"190 646 OFFCURVE",
"207 619 OFFCURVE",
"207 601 QCURVE SMOOTH",
"207 579 OFFCURVE",
"193 532 OFFCURVE",
"169 489 OFFCURVE",
"135 453 OFFCURVE",
"116 442 QCURVE",
"86 442 LINE"
);
}
);
width = 225;
}
);
unicode = 0027;
},
{
glyphname = parenleft;
layers = (
{
layerId = "2063BA69-310B-4872-9248-C1144A07CAA9";
paths = (
{
nodes = (
"113 -79 OFFCURVE",
"78 -69 OFFCURVE",
"51 -51 OFFCURVE",
"34 -23 OFFCURVE",
"34 -2 QCURVE SMOOTH",
"34 698 LINE SMOOTH",
"34 725 OFFCURVE",
"62 757 OFFCURVE",
"106 775 OFFCURVE",
"157 780 OFFCURVE",
"181 780 QCURVE SMOOTH",
"337 780 LINE",
"337 617 LINE",
"255 617 LINE",
"255 81 LINE",
"337 81 LINE",
"337 -84 LINE",
"181 -84 LINE SMOOTH",
"156 -84 OFFCURVE",
"131 -81 QCURVE SMOOTH"
);
}
);
width = 373;
}
);
unicode = 0028;
},
{
glyphname = parenright;
layers = (
{
layerId = "2063BA69-310B-4872-9248-C1144A07CAA9";
paths = (
{
nodes = (
"214 -84 OFFCURVE",
"190 -84 QCURVE SMOOTH",
"34 -84 LINE",
"34 81 LINE",
"116 81 LINE",
"116 617 LINE",
"34 617 LINE",
"34 780 LINE",
"190 780 LINE SMOOTH",
"214 780 OFFCURVE",
"265 775 OFFCURVE",
"309 757 OFFCURVE",
"337 725 OFFCURVE",
"337 698 QCURVE SMOOTH",
"337 -2 LINE SMOOTH",
"337 -23 OFFCURVE",
"320 -51 OFFCURVE",
"293 -69 OFFCURVE",
"258 -79 OFFCURVE",
"240 -81 QCURVE SMOOTH"
);
}
);
width = 373;
}
);
unicode = 0029;
},
{
glyphname = asterisk;
layers = (
{
layerId = "2063BA69-310B-4872-9248-C1144A07CAA9";
paths = (
{
nodes = (
"573 175 LINE",
"436 246 LINE",
"436 81 LINE",
"268 81 LINE",
"268 251 LINE",
"122 175 LINE",
"44 325 LINE",
"166 388 LINE",
"44 452 LINE",
"121 600 LINE",
"268 523 LINE",
"268 678 LINE",
"436 678 LINE",
"436 528 LINE",
"574 600 LINE",
"651 452 LINE",
"529 388 LINE",
"651 325 LINE"
);
}
);
width = 686;
}
);
unicode = 002A;
},
{
glyphname = plus;
layers = (
{
layerId = "2063BA69-310B-4872-9248-C1144A07CAA9";
paths = (
{
nodes = (
"339 111 LINE",
"171 111 LINE",
"171 264 LINE",
"27 264 LINE",
"27 432 LINE",
"171 432 LINE",
"171 576 LINE",
"339 576 LINE",
"339 432 LINE",
"492 432 LINE",
"492 264 LINE",
"339 264 LINE"
);
}
);
width = 527;
}
);
unicode = 002B;
},
{
glyphname = comma;
layers = (
{
layerId = "2063BA69-310B-4872-9248-C1144A07CAA9";
paths = (
{
nodes = (
"101 1 LINE",
"71 10 OFFCURVE",
"25 55 OFFCURVE",
"25 88 QCURVE SMOOTH",
"25 110 OFFCURVE",
"45 145 OFFCURVE",
"78 169 OFFCURVE",
"118 181 OFFCURVE",
"138 181 QCURVE SMOOTH",
"157 181 OFFCURVE",
"198 169 OFFCURVE",
"231 145 OFFCURVE",
"252 110 OFFCURVE",
"252 88 QCURVE SMOOTH",
"252 61 OFFCURVE",
"233 15 OFFCURVE",
"202 -23 OFFCURVE",
"161 -54 OFFCURVE",
"139 -66 QCURVE",
"101 -66 LINE"
);
}
);
width = 283;
}
);
unicode = 002C;
},
{
glyphname = hyphen;
layers = (
{
layerId = "2063BA69-310B-4872-9248-C1144A07CAA9";
paths = (
{
nodes = (
"27 432 LINE",
"379 432 LINE",
"379 264 LINE",
"27 264 LINE"
);
}
);
width = 412;
}
);
unicode = 002D;
},
{
glyphname = period;
layers = (
{
layerId = "2063BA69-310B-4872-9248-C1144A07CAA9";
paths = (
{
nodes = (
"158 185 OFFCURVE",
"199 172 OFFCURVE",
"231 148 OFFCURVE",
"252 114 OFFCURVE",
"252 92 QCURVE SMOOTH",
"252 70 OFFCURVE",
"231 36 OFFCURVE",
"199 12 OFFCURVE",
"158 0 OFFCURVE",
"139 0 QCURVE SMOOTH",
"119 0 OFFCURVE",
"79 12 OFFCURVE",
"46 36 OFFCURVE",
"25 70 OFFCURVE",
"25 92 QCURVE SMOOTH",
"25 114 OFFCURVE",
"46 149 OFFCURVE",
"79 173 OFFCURVE",
"119 185 OFFCURVE",
"139 185 QCURVE SMOOTH"
);
}
);
width = 280;
}
);
unicode = 002E;
},
{
glyphname = slash;
layers = (
{
layerId = "2063BA69-310B-4872-9248-C1144A07CAA9";
paths = (
{
nodes = (
"409 678 LINE",
"194 0 LINE",
"38 0 LINE",
"253 678 LINE"
);
}
);
width = 444;
}
);
unicode = 002F;
},
{
glyphname = zero;
layers = (
{
layerId = "2063BA69-310B-4872-9248-C1144A07CAA9";
paths = (
{
nodes = (
"654 92 LINE SMOOTH",
"654 62 OFFCURVE",
"624 25 OFFCURVE",
"579 6 OFFCURVE",
"526 0 OFFCURVE",
"502 0 QCURVE SMOOTH",
"199 0 LINE SMOOTH",
"175 0 OFFCURVE",
"122 6 OFFCURVE",
"77 25 OFFCURVE",
"48 62 OFFCURVE",
"48 92 QCURVE SMOOTH",
"48 586 LINE SMOOTH",
"48 616 OFFCURVE",
"77 653 OFFCURVE",
"122 672 OFFCURVE",
"175 678 OFFCURVE",
"199 678 QCURVE SMOOTH",
"502 678 LINE SMOOTH",
"526 678 OFFCURVE",
"579 672 OFFCURVE",
"624 653 OFFCURVE",
"654 616 OFFCURVE",
"654 586 QCURVE SMOOTH"
);
},
{
nodes = (
"426 185 LINE",
"426 493 LINE",
"275 493 LINE",
"275 185 LINE"
);
}
);
width = 700;
}
);
unicode = 0030;
},
{
glyphname = one;
layers = (
{
layerId = "2063BA69-310B-4872-9248-C1144A07CAA9";
paths = (
{
nodes = (
"346 62 LINE SMOOTH",
"346 42 OFFCURVE",
"375 19 OFFCURVE",
"392 13 QCURVE",
"392 0 LINE",
"73 0 LINE",
"73 13 LINE",
"90 19 OFFCURVE",
"119 42 OFFCURVE",
"119 62 QCURVE SMOOTH",
"119 445 LINE",
"89 445 LINE SMOOTH",
"69 445 OFFCURVE",
"44 424 OFFCURVE",
"34 408 QCURVE",
"18 408 LINE",
"18 551 LINE",
"60 586 OFFCURVE",
"146 652 OFFCURVE",
"194 679 QCURVE",
"392 679 LINE",
"392 666 LINE",
"375 660 OFFCURVE",
"346 637 OFFCURVE",
"346 617 QCURVE SMOOTH"
);
}
);
width = 408;
}
);
unicode = 0031;
},
{
glyphname = two;
layers = (
{
layerId = "2063BA69-310B-4872-9248-C1144A07CAA9";
paths = (
{
nodes = (
"279 494 LINE",
"279 474 OFFCURVE",
"308 451 OFFCURVE",
"325 445 QCURVE",
"325 432 LINE",
"57 432 LINE",
"57 587 LINE SMOOTH",
"57 617 OFFCURVE",
"87 654 OFFCURVE",
"132 673 OFFCURVE",
"186 679 OFFCURVE",
"209 679 QCURVE SMOOTH",
"463 679 LINE SMOOTH",
"486 679 OFFCURVE",
"539 673 OFFCURVE",
"584 654 OFFCURVE",
"614 617 OFFCURVE",
"614 587 QCURVE SMOOTH",
"614 370 LINE SMOOTH",
"614 336 OFFCURVE",
"576 298 OFFCURVE",
"522 280 OFFCURVE",
"463 277 OFFCURVE",
"443 277 QCURVE SMOOTH",
"435 277 OFFCURVE",
"404 278 OFFCURVE",
"387 278 QCURVE SMOOTH",
"279 278 LINE",
"279 185 LINE",
"539 185 LINE SMOOTH",
"559 185 OFFCURVE",
"589 206 OFFCURVE",
"598 223 QCURVE",
"614 223 LINE",
"614 0 LINE",
"57 0 LINE",
"57 309 LINE SMOOTH",
"57 339 OFFCURVE",
"86 375 OFFCURVE",
"131 395 OFFCURVE",
"185 402 OFFCURVE",
"210 402 QCURVE",
"212 402 OFFCURVE",
"253 401 OFFCURVE",
"279 401 QCURVE SMOOTH",
"387 401 LINE",
"387 494 LINE"
);
}
);
width = 662;
}
);
unicode = 0032;
},
{
glyphname = three;
layers = (
{
layerId = "2063BA69-310B-4872-9248-C1144A07CAA9";
paths = (
{
nodes = (
"290 247 LINE",
"290 234 LINE",
"273 228 OFFCURVE",
"244 205 OFFCURVE",
"244 185 QCURVE",
"359 185 LINE",
"359 278 LINE",
"244 278 LINE",
"244 401 LINE",
"359 401 LINE",
"359 494 LINE",
"244 494 LINE",
"244 474 OFFCURVE",
"273 451 OFFCURVE",
"290 445 QCURVE",
"290 432 LINE",
"47 432 LINE",
"47 586 LINE SMOOTH",
"47 616 OFFCURVE",
"77 653 OFFCURVE",
"122 673 OFFCURVE",
"175 679 OFFCURVE",
"199 679 QCURVE SMOOTH",
"435 679 LINE SMOOTH",
"459 679 OFFCURVE",
"512 673 OFFCURVE",
"557 653 OFFCURVE",
"586 616 OFFCURVE",
"586 586 QCURVE SMOOTH",
"586 432 LINE SMOOTH",
"586 379 OFFCURVE",
"521 339 OFFCURVE",
"473 339 QCURVE",
"497 339 OFFCURVE",
"538 330 OFFCURVE",
"569 309 OFFCURVE",
"586 274 OFFCURVE",
"586 247 QCURVE SMOOTH",
"586 93 LINE SMOOTH",
"586 63 OFFCURVE",
"557 26 OFFCURVE",
"512 6 OFFCURVE",
"459 0 OFFCURVE",
"435 0 QCURVE SMOOTH",
"199 0 LINE SMOOTH",
"175 0 OFFCURVE",
"122 6 OFFCURVE",
"77 26 OFFCURVE",
"47 63 OFFCURVE",
"47 93 QCURVE SMOOTH",
"47 247 LINE"
);
}
);
width = 636;
}
);
unicode = 0033;
},
{
glyphname = four;
layers = (
{
layerId = "2063BA69-310B-4872-9248-C1144A07CAA9";
paths = (
{
nodes = (
"659 346 LINE",
"659 185 LINE",
"643 185 LINE",
"637 195 OFFCURVE",
"632 210 OFFCURVE",
"625 218 OFFCURVE",
"612 222 OFFCURVE",
"598 222 QCURVE SMOOTH",
"585 222 LINE",
"585 62 LINE SMOOTH",
"585 43 OFFCURVE",
"615 20 OFFCURVE",
"631 14 QCURVE",
"631 0 LINE",
"326 0 LINE",
"326 14 LINE",
"342 20 OFFCURVE",
"372 42 OFFCURVE",
"372 62 QCURVE SMOOTH",
"372 222 LINE",
"20 222 LINE",
"23 232 OFFCURVE",
"39 282 OFFCURVE",
"60 346 OFFCURVE",
"82 417 OFFCURVE",
"101 479 OFFCURVE",
"113 524 OFFCURVE",
"113 530 QCURVE SMOOTH",
"113 550 OFFCURVE",
"84 576 OFFCURVE",
"68 584 QCURVE",
"68 597 LINE",
"348 597 LINE",
"270 346 LINE",
"372 346 LINE",
"372 618 LINE SMOOTH",
"372 638 OFFCURVE",
"342 660 OFFCURVE",
"326 666 QCURVE",
"326 679 LINE",
"631 679 LINE",
"631 666 LINE",
"616 660 OFFCURVE",
"585 637 OFFCURVE",
"585 618 QCURVE SMOOTH",
"585 346 LINE"
);
}
);
width = 675;
}
);
unicode = 0034;
},
{
glyphname = five;
layers = (
{
layerId = "2063BA69-310B-4872-9248-C1144A07CAA9";
paths = (
{
nodes = (
"620 678 LINE",
"620 456 LINE",
"604 456 LINE",
"594 473 OFFCURVE",
"565 493 OFFCURVE",
"545 493 QCURVE SMOOTH",
"279 493 LINE",
"279 401 LINE",
"393 401 LINE SMOOTH",
"419 401 OFFCURVE",
"463 402 OFFCURVE",
"468 402 QCURVE SMOOTH",
"492 402 OFFCURVE",
"545 396 OFFCURVE",
"590 376 OFFCURVE",
"620 339 OFFCURVE",
"620 308 QCURVE SMOOTH",
"620 92 LINE SMOOTH",
"620 62 OFFCURVE",
"591 25 OFFCURVE",
"546 6 OFFCURVE",
"493 0 OFFCURVE",
"469 0 QCURVE SMOOTH",
"203 0 LINE SMOOTH",
"179 0 OFFCURVE",
"126 6 OFFCURVE",
"81 25 OFFCURVE",
"52 62 OFFCURVE",
"52 92 QCURVE SMOOTH",
"52 246 LINE",
"325 246 LINE",
"325 233 LINE",
"309 228 OFFCURVE",
"279 205 OFFCURVE",
"279 185 QCURVE",
"393 185 LINE",
"393 277 LINE",
"52 277 LINE",
"52 678 LINE"
);
}
);
width = 667;
}
);
unicode = 0035;
},
{
glyphname = six;
layers = (
{
layerId = "2063BA69-310B-4872-9248-C1144A07CAA9";
paths = (
{
nodes = (
"609 92 LINE SMOOTH",
"609 62 OFFCURVE",
"579 25 OFFCURVE",
"534 6 OFFCURVE",
"480 0 OFFCURVE",
"457 0 QCURVE SMOOTH",
"197 0 LINE SMOOTH",
"174 0 OFFCURVE",
"121 6 OFFCURVE",
"76 25 OFFCURVE",
"46 62 OFFCURVE",
"46 92 QCURVE SMOOTH",
"46 586 LINE SMOOTH",
"46 616 OFFCURVE",
"75 653 OFFCURVE",
"120 673 OFFCURVE",
"173 679 OFFCURVE",
"197 679 QCURVE SMOOTH",
"457 679 LINE SMOOTH",
"481 679 OFFCURVE",
"534 673 OFFCURVE",
"579 653 OFFCURVE",
"609 616 OFFCURVE",
"609 586 QCURVE SMOOTH",
"609 432 LINE",
"335 432 LINE",
"335 445 LINE",
"351 451 OFFCURVE",
"382 474 OFFCURVE",
"382 494 QCURVE",
"273 494 LINE",
"273 401 LINE",
"382 401 LINE SMOOTH",
"408 401 OFFCURVE",
"452 402 OFFCURVE",
"456 402 QCURVE SMOOTH",
"480 402 OFFCURVE",
"534 395 OFFCURVE",
"579 375 OFFCURVE",
"609 338 OFFCURVE",
"609 308 QCURVE SMOOTH"
);
},
{
nodes = (
"382 185 LINE",
"382 277 LINE",
"273 277 LINE",
"273 185 LINE"
);
}
);
width = 657;
}
);
unicode = 0036;
},
{
glyphname = seven;
layers = (
{
layerId = "2063BA69-310B-4872-9248-C1144A07CAA9";
paths = (
{
nodes = (
"34 679 LINE",
"577 679 LINE",
"577 494 LINE",
"345 0 LINE",
"92 0 LINE",
"325 494 LINE",
"110 494 LINE SMOOTH",
"89 494 OFFCURVE",
"61 473 OFFCURVE",
"50 456 QCURVE",
"34 456 LINE"
);
}
);
width = 612;
}
);
unicode = 0037;
},
{
glyphname = eight;
layers = (
{
layerId = "2063BA69-310B-4872-9248-C1144A07CAA9";
paths = (
{
nodes = (
"46 247 LINE SMOOTH",
"46 273 OFFCURVE",
"64 309 OFFCURVE",
"95 330 OFFCURVE",
"136 339 OFFCURVE",
"160 339 QCURVE",
"136 339 OFFCURVE",
"94 348 OFFCURVE",
"64 370 OFFCURVE",
"46 405 OFFCURVE",
"46 432 QCURVE SMOOTH",
"46 586 LINE SMOOTH",
"46 616 OFFCURVE",
"76 653 OFFCURVE",
"121 673 OFFCURVE",
"174 679 OFFCURVE",
"198 679 QCURVE SMOOTH",
"450 679 LINE SMOOTH",
"474 679 OFFCURVE",
"527 673 OFFCURVE",
"572 653 OFFCURVE",
"601 616 OFFCURVE",
"601 586 QCURVE SMOOTH",
"601 432 LINE SMOOTH",
"601 406 OFFCURVE",
"583 370 OFFCURVE",
"553 348 OFFCURVE",
"512 339 OFFCURVE",
"488 339 QCURVE",
"512 339 OFFCURVE",
"553 330 OFFCURVE",
"583 309 OFFCURVE",
"601 273 OFFCURVE",
"601 247 QCURVE SMOOTH",
"601 92 LINE SMOOTH",
"601 62 OFFCURVE",
"571 25 OFFCURVE",
"526 6 OFFCURVE",
"473 0 OFFCURVE",
"450 0 QCURVE SMOOTH",
"198 0 LINE SMOOTH",
"175 0 OFFCURVE",
"121 6 OFFCURVE",
"76 25 OFFCURVE",
"46 62 OFFCURVE",
"46 92 QCURVE SMOOTH"
);
},
{
nodes = (
"374 401 LINE",
"374 494 LINE",
"274 494 LINE",
"274 401 LINE"
);
},
{
nodes = (
"274 278 LINE",
"274 185 LINE",
"374 185 LINE",
"374 278 LINE"
);
}
);
width = 644;
}
);
unicode = 0038;
},
{
glyphname = nine;
layers = (
{
layerId = "2063BA69-310B-4872-9248-C1144A07CAA9";
paths = (
{
nodes = (
"320 234 LINE",
"305 228 OFFCURVE",
"274 205 OFFCURVE",
"274 186 QCURVE",
"386 186 LINE",
"386 278 LINE",
"274 278 LINE SMOOTH",
"248 278 OFFCURVE",
"205 277 OFFCURVE",
"200 277 QCURVE SMOOTH",
"177 277 OFFCURVE",
"124 283 OFFCURVE",
"78 303 OFFCURVE",
"47 340 OFFCURVE",
"47 370 QCURVE SMOOTH",
"47 587 LINE SMOOTH",
"47 617 OFFCURVE",
"77 653 OFFCURVE",
"122 673 OFFCURVE",
"175 679 OFFCURVE",
"198 679 QCURVE SMOOTH",
"461 679 LINE SMOOTH",
"484 679 OFFCURVE",
"538 673 OFFCURVE",
"583 654 OFFCURVE",
"613 617 OFFCURVE",
"613 587 QCURVE SMOOTH",
"613 93 LINE SMOOTH",
"613 63 OFFCURVE",
"583 26 OFFCURVE",
"538 6 OFFCURVE",
"485 0 OFFCURVE",
"461 0 QCURVE SMOOTH",
"198 0 LINE SMOOTH",
"174 0 OFFCURVE",
"121 6 OFFCURVE",
"76 26 OFFCURVE",
"47 63 OFFCURVE",
"47 93 QCURVE SMOOTH",
"47 247 LINE",
"320 247 LINE"
);
},
{
nodes = (
"274 401 LINE",
"386 401 LINE",
"386 494 LINE",
"274 494 LINE"
);
}
);
width = 657;
}
);
unicode = 0039;
},
{
glyphname = colon;
layers = (
{
layerId = "2063BA69-310B-4872-9248-C1144A07CAA9";
paths = (
{
nodes = (
"158 680 OFFCURVE",
"199 667 OFFCURVE",
"231 643 OFFCURVE",
"252 609 OFFCURVE",
"252 587 QCURVE SMOOTH",
"252 565 OFFCURVE",
"231 531 OFFCURVE",
"199 507 OFFCURVE",
"158 495 OFFCURVE",
"139 495 QCURVE SMOOTH",
"119 495 OFFCURVE",
"79 507 OFFCURVE",
"46 531 OFFCURVE",
"25 565 OFFCURVE",
"25 587 QCURVE SMOOTH",
"25 609 OFFCURVE",
"46 644 OFFCURVE",
"79 668 OFFCURVE",
"119 680 OFFCURVE",
"139 680 QCURVE SMOOTH"
);
},
{
nodes = (
"158 185 OFFCURVE",
"199 172 OFFCURVE",
"231 148 OFFCURVE",
"252 114 OFFCURVE",
"252 92 QCURVE SMOOTH",
"252 70 OFFCURVE",
"231 36 OFFCURVE",
"199 12 OFFCURVE",
"158 0 OFFCURVE",
"139 0 QCURVE SMOOTH",
"119 0 OFFCURVE",
"79 12 OFFCURVE",
"46 36 OFFCURVE",
"25 70 OFFCURVE",
"25 92 QCURVE SMOOTH",
"25 114 OFFCURVE",
"46 149 OFFCURVE",
"79 173 OFFCURVE",
"119 185 OFFCURVE",
"139 185 QCURVE SMOOTH"
);
}
);
width = 280;
}
);
unicode = 003A;
},
{
glyphname = semicolon;
layers = (
{
layerId = "2063BA69-310B-4872-9248-C1144A07CAA9";
paths = (
{
nodes = (
"158 680 OFFCURVE",
"199 667 OFFCURVE",
"231 643 OFFCURVE",
"252 609 OFFCURVE",
"252 587 QCURVE SMOOTH",
"252 565 OFFCURVE",
"231 531 OFFCURVE",
"199 507 OFFCURVE",
"158 495 OFFCURVE",
"139 495 QCURVE SMOOTH",
"119 495 OFFCURVE",
"79 507 OFFCURVE",
"46 531 OFFCURVE",
"25 565 OFFCURVE",
"25 587 QCURVE SMOOTH",
"25 609 OFFCURVE",
"46 644 OFFCURVE",
"79 668 OFFCURVE",
"119 680 OFFCURVE",
"139 680 QCURVE SMOOTH"
);
},
{
nodes = (
"101 7 LINE",
"71 16 OFFCURVE",
"25 61 OFFCURVE",
"25 94 QCURVE SMOOTH",
"25 116 OFFCURVE",
"45 151 OFFCURVE",
"78 175 OFFCURVE",
"118 187 OFFCURVE",
"138 187 QCURVE SMOOTH",
"157 187 OFFCURVE",
"198 175 OFFCURVE",
"231 151 OFFCURVE",
"252 116 OFFCURVE",
"252 94 QCURVE SMOOTH",
"252 67 OFFCURVE",
"233 21 OFFCURVE",
"202 -17 OFFCURVE",
"161 -48 OFFCURVE",
"139 -60 QCURVE",
"101 -60 LINE"
);
}
);
width = 280;
}
);
unicode = 003B;
},
{
glyphname = less;
layers = (
{
layerId = "2063BA69-310B-4872-9248-C1144A07CAA9";
paths = (
{
nodes = (
"25 344 LINE",
"289 572 LINE",
"372 476 LINE",
"220 344 LINE",
"373 211 LINE",
"290 115 LINE"
);
}
);
width = 400;
}
);
unicode = 003C;
},
{
glyphname = equal;
layers = (
{
layerId = "2063BA69-310B-4872-9248-C1144A07CAA9";
paths = (
{
nodes = (
"44 486 LINE",
"449 486 LINE",
"449 359 LINE",
"44 359 LINE"
);
},
{
nodes = (
"44 301 LINE",
"449 301 LINE",
"449 174 LINE",
"44 174 LINE"
);
}
);
width = 486;
}
);
unicode = 003D;
},
{
glyphname = greater;
layers = (
{
layerId = "2063BA69-310B-4872-9248-C1144A07CAA9";
paths = (
{
nodes = (
"108 115 LINE",
"25 211 LINE",
"178 344 LINE",
"26 476 LINE",
"109 572 LINE",
"373 344 LINE"
);
}
);
width = 400;
}
);
unicode = 003E;
},
{
glyphname = question;
layers = (
{
layerId = "2063BA69-310B-4872-9248-C1144A07CAA9";
paths = (
{
nodes = (
"32 432 LINE",
"32 587 LINE SMOOTH",
"32 617 OFFCURVE",
"62 654 OFFCURVE",
"107 673 OFFCURVE",
"161 679 OFFCURVE",
"184 679 QCURVE SMOOTH",
"487 679 LINE SMOOTH",
"510 679 OFFCURVE",
"563 673 OFFCURVE",
"608 654 OFFCURVE",
"638 617 OFFCURVE",
"638 587 QCURVE SMOOTH",
"638 370 LINE SMOOTH",
"638 341 OFFCURVE",
"609 304 OFFCURVE",
"565 284 OFFCURVE",
"511 277 OFFCURVE",
"486 277 QCURVE",
"484 277 OFFCURVE",
"444 278 OFFCURVE",
"417 278 QCURVE",
"417 258 OFFCURVE",
"447 235 OFFCURVE",
"463 229 QCURVE",
"463 216 LINE",
"143 216 LINE",
"143 229 LINE",
"161 236 OFFCURVE",
"180 250 OFFCURVE",
"189 268 OFFCURVE",
"190 292 OFFCURVE",
"190 309 QCURVE SMOOTH",
"190 338 OFFCURVE",
"219 375 OFFCURVE",
"263 395 OFFCURVE",
"317 402 OFFCURVE",
"342 402 QCURVE",
"344 402 OFFCURVE",
"384 401 OFFCURVE",
"411 401 QCURVE",
"411 494 LINE",
"259 494 LINE",
"259 474 OFFCURVE",
"290 451 OFFCURVE",
"306 445 QCURVE",
"306 432 LINE"
);
},
{
nodes = (
"322 185 OFFCURVE",
"363 173 OFFCURVE",
"396 149 OFFCURVE",
"417 115 OFFCURVE",
"417 93 QCURVE SMOOTH",
"417 70 OFFCURVE",
"396 36 OFFCURVE",
"363 12 OFFCURVE",
"322 0 OFFCURVE",
"303 0 QCURVE SMOOTH",
"283 0 OFFCURVE",
"243 12 OFFCURVE",
"210 36 OFFCURVE",
"190 70 OFFCURVE",
"190 93 QCURVE SMOOTH",
"190 115 OFFCURVE",
"210 149 OFFCURVE",
"243 173 OFFCURVE",
"283 185 OFFCURVE",
"303 185 QCURVE SMOOTH"
);
}
);
width = 670;
}
);
unicode = 003F;
},
{
glyphname = at;
layers = (
{
layerId = "2063BA69-310B-4872-9248-C1144A07CAA9";
paths = (
{
nodes = (
"881 -84 LINE",
"138 -84 LINE SMOOTH",
"120 -84 OFFCURVE",
"81 -80 OFFCURVE",
"48 -66 OFFCURVE",
"27 -39 OFFCURVE",
"27 -16 QCURVE SMOOTH",
"27 679 LINE SMOOTH",
"27 702 OFFCURVE",
"48 729 OFFCURVE",
"81 743 OFFCURVE",
"120 747 OFFCURVE",
"138 747 QCURVE SMOOTH",
"768 747 LINE SMOOTH",
"785 747 OFFCURVE",
"825 743 OFFCURVE",
"859 729 OFFCURVE",
"881 702 OFFCURVE",
"881 679 QCURVE SMOOTH",
"881 111 LINE",
"356 111 LINE SMOOTH",
"338 111 OFFCURVE",
"299 115 OFFCURVE",
"266 129 OFFCURVE",
"244 156 OFFCURVE",
"244 179 QCURVE SMOOTH",
"244 487 LINE SMOOTH",
"244 509 OFFCURVE",
"266 536 OFFCURVE",
"299 551 OFFCURVE",
"338 555 OFFCURVE",
"356 555 QCURVE SMOOTH",
"532 555 LINE SMOOTH",
"550 555 OFFCURVE",
"589 551 OFFCURVE",
"622 536 OFFCURVE",
"644 509 OFFCURVE",
"644 487 QCURVE SMOOTH",
"644 248 LINE",
"712 248 LINE",
"712 610 LINE",
"195 610 LINE",
"195 53 LINE",
"881 53 LINE"
);
},
{
nodes = (
"476 248 LINE",
"476 418 LINE",
"412 418 LINE",
"412 248 LINE"
);
}
);
width = 909;
}
);
unicode = 0040;
},
{
glyphname = A;
layers = (
{
layerId = "2063BA69-310B-4872-9248-C1144A07CAA9";
paths = (
{
nodes = (
"545 665 LINE",
"534 661 OFFCURVE",
"512 646 OFFCURVE",
"512 633 QCURVE SMOOTH",
"512 626 OFFCURVE",
"535 591 OFFCURVE",
"569 542 OFFCURVE",
"608 484 OFFCURVE",
"642 427 OFFCURVE",
"665 374 OFFCURVE",
"665 354 QCURVE SMOOTH",
"665 61 LINE SMOOTH",
"665 41 OFFCURVE",
"695 19 OFFCURVE",
"711 13 QCURVE",
"711 0 LINE",
"391 0 LINE",
"391 13 LINE",
"407 19 OFFCURVE",
"437 41 OFFCURVE",
"437 61 QCURVE SMOOTH",
"437 185 LINE",
"286 185 LINE",
"286 61 LINE SMOOTH",
"286 41 OFFCURVE",
"316 19 OFFCURVE",
"332 13 QCURVE",
"332 0 LINE",
"13 0 LINE",
"13 13 LINE",
"28 19 OFFCURVE",
"59 42 OFFCURVE",
"59 61 QCURVE SMOOTH",
"59 256 LINE SMOOTH",
"59 281 OFFCURVE",
"58 314 OFFCURVE",
"58 322 QCURVE SMOOTH",
"58 330 OFFCURVE",
"58 346 OFFCURVE",
"59 354 QCURVE SMOOTH",
"60 375 OFFCURVE",
"83 429 OFFCURVE",
"117 487 OFFCURVE",
"156 544 OFFCURVE",
"189 591 OFFCURVE",
"211 626 OFFCURVE",
"211 633 QCURVE SMOOTH",
"211 646 OFFCURVE",
"190 661 OFFCURVE",
"179 665 QCURVE",
"179 679 LINE",
"545 679 LINE"
);
},
{
nodes = (
"437 308 LINE",
"437 322 LINE SMOOTH",
"437 347 OFFCURVE",
"423 388 OFFCURVE",
"401 425 OFFCURVE",
"375 461 OFFCURVE",
"362 481 QCURVE",
"346 458 OFFCURVE",
"318 421 OFFCURVE",
"298 382 OFFCURVE",
"286 338 OFFCURVE",
"286 308 QCURVE"
);
}
);
width = 722;
}
);
unicode = 0041;
},
{
glyphname = B;
layers = (
{
layerId = "2063BA69-310B-4872-9248-C1144A07CAA9";
paths = (
{
nodes = (
"475 679 LINE SMOOTH",
"498 679 OFFCURVE",
"552 673 OFFCURVE",
"597 654 OFFCURVE",
"627 617 OFFCURVE",
"627 587 QCURVE SMOOTH",
"627 432 LINE SMOOTH",
"627 405 OFFCURVE",
"609 370 OFFCURVE",
"578 349 OFFCURVE",
"537 340 OFFCURVE",
"513 340 QCURVE",
"537 340 OFFCURVE",
"579 331 OFFCURVE",
"609 309 OFFCURVE",
"627 274 OFFCURVE",
"627 247 QCURVE SMOOTH",
"627 93 LINE SMOOTH",
"627 63 OFFCURVE",
"597 26 OFFCURVE",
"552 6 OFFCURVE",
"499 0 OFFCURVE",
"475 0 QCURVE SMOOTH",
"18 0 LINE",
"18 13 LINE",
"34 19 OFFCURVE",
"64 42 OFFCURVE",
"64 62 QCURVE SMOOTH",
"64 617 LINE SMOOTH",
"64 637 OFFCURVE",
"34 660 OFFCURVE",
"18 666 QCURVE",
"18 679 LINE"
);
},
{
nodes = (
"399 401 LINE",
"399 494 LINE",
"291 494 LINE",
"291 401 LINE"
);
},
{
nodes = (
"399 186 LINE",
"399 278 LINE",
"291 278 LINE",
"291 186 LINE"
);
}
);
width = 668;
}
);
unicode = 0042;
},
{
glyphname = C;
layers = (
{
layerId = "2063BA69-310B-4872-9248-C1144A07CAA9";
paths = (
{
nodes = (
"618 247 LINE",
"618 93 LINE SMOOTH",
"618 63 OFFCURVE",
"589 26 OFFCURVE",
"544 6 OFFCURVE",
"491 0 OFFCURVE",
"467 0 QCURVE SMOOTH",
"203 0 LINE SMOOTH",
"179 0 OFFCURVE",
"126 6 OFFCURVE",
"81 26 OFFCURVE",
"52 63 OFFCURVE",
"52 93 QCURVE SMOOTH",
"52 586 LINE SMOOTH",
"52 616 OFFCURVE",
"81 653 OFFCURVE",
"126 673 OFFCURVE",
"179 679 OFFCURVE",
"203 679 QCURVE SMOOTH",
"467 679 LINE SMOOTH",
"491 679 OFFCURVE",
"544 673 OFFCURVE",
"589 653 OFFCURVE",
"618 616 OFFCURVE",
"618 586 QCURVE SMOOTH",
"618 432 LINE",
"354 432 LINE",
"354 445 LINE",
"371 451 OFFCURVE",
"400 474 OFFCURVE",
"400 494 QCURVE",
"279 494 LINE",
"279 185 LINE",
"400 185 LINE",
"400 205 OFFCURVE",
"371 228 OFFCURVE",
"354 234 QCURVE",
"354 247 LINE"
);
}
);
width = 670;
}
);
unicode = 0043;
},
{
glyphname = D;
layers = (
{
layerId = "2063BA69-310B-4872-9248-C1144A07CAA9";
paths = (
{
nodes = (
"17 13 LINE",
"32 19 OFFCURVE",
"63 42 OFFCURVE",
"63 61 QCURVE SMOOTH",
"63 617 LINE SMOOTH",
"63 636 OFFCURVE",
"33 659 OFFCURVE",
"17 665 QCURVE",
"17 678 LINE",
"489 678 LINE SMOOTH",
"513 678 OFFCURVE",
"566 672 OFFCURVE",
"611 653 OFFCURVE",
"641 616 OFFCURVE",
"641 586 QCURVE SMOOTH",
"641 92 LINE SMOOTH",
"641 62 OFFCURVE",
"611 25 OFFCURVE",
"566 6 OFFCURVE",
"513 0 OFFCURVE",
"489 0 QCURVE SMOOTH",
"17 0 LINE"
);
},
{
nodes = (
"414 185 LINE",
"414 493 LINE",
"290 493 LINE",
"290 185 LINE"
);
}
);
width = 700;
}
);
unicode = 0044;
},
{
glyphname = E;
layers = (
{
layerId = "2063BA69-310B-4872-9248-C1144A07CAA9";
paths = (
{
nodes = (
"445 401 LINE SMOOTH",
"465 401 OFFCURVE",
"495 421 OFFCURVE",
"505 438 QCURVE",
"521 438 LINE",
"521 240 LINE",
"505 240 LINE",
"495 257 OFFCURVE",
"465 278 OFFCURVE",
"445 278 QCURVE SMOOTH",
"294 278 LINE",
"294 185 LINE",
"559 185 LINE SMOOTH",
"579 185 OFFCURVE",
"609 205 OFFCURVE",
"619 222 QCURVE",
"635 222 LINE",
"635 0 LINE",
"21 0 LINE",
"21 13 LINE",
"37 19 OFFCURVE",
"67 41 OFFCURVE",
"67 61 QCURVE SMOOTH",
"67 617 LINE SMOOTH",
"67 637 OFFCURVE",
"37 660 OFFCURVE",
"21 666 QCURVE",
"21 679 LINE",
"635 679 LINE",
"635 456 LINE",
"619 456 LINE",
"609 473 OFFCURVE",
"579 494 OFFCURVE",
"559 494 QCURVE SMOOTH",
"294 494 LINE",
"294 401 LINE"
);
}
);
width = 673;
}
);
unicode = 0045;
},
{
glyphname = F;
layers = (
{
layerId = "2063BA69-310B-4872-9248-C1144A07CAA9";
paths = (
{
nodes = (
"18 0 LINE",
"18 13 LINE",
"35 19 OFFCURVE",
"64 42 OFFCURVE",
"64 62 QCURVE SMOOTH",
"64 617 LINE SMOOTH",
"64 637 OFFCURVE",
"35 660 OFFCURVE",
"18 666 QCURVE",
"18 679 LINE",
"632 679 LINE",
"632 456 LINE",
"616 456 LINE",
"606 473 OFFCURVE",
"576 494 OFFCURVE",
"556 494 QCURVE SMOOTH",
"291 494 LINE",
"291 401 LINE",
"443 401 LINE SMOOTH",
"463 401 OFFCURVE",
"492 422 OFFCURVE",
"502 439 QCURVE",
"518 439 LINE",
"518 240 LINE",
"502 240 LINE",
"492 257 OFFCURVE",
"463 278 OFFCURVE",
"443 278 QCURVE SMOOTH",
"291 278 LINE",
"291 62 LINE SMOOTH",
"291 42 OFFCURVE",
"321 19 OFFCURVE",
"337 13 QCURVE",
"337 0 LINE"
);
}
);
width = 659;
}
);
unicode = 0046;
},
{
glyphname = G;
layers = (
{
layerId = "2063BA69-310B-4872-9248-C1144A07CAA9";
paths = (
{
nodes = (
"315 401 LINE",
"656 401 LINE",
"656 93 LINE SMOOTH",
"656 63 OFFCURVE",
"626 26 OFFCURVE",
"581 6 OFFCURVE",
"528 0 OFFCURVE",
"504 0 QCURVE SMOOTH",
"201 0 LINE SMOOTH",
"177 0 OFFCURVE",
"124 6 OFFCURVE",
"79 26 OFFCURVE",
"50 63 OFFCURVE",
"50 93 QCURVE SMOOTH",
"50 587 LINE SMOOTH",
"50 617 OFFCURVE",
"80 654 OFFCURVE",
"125 673 OFFCURVE",
"178 679 OFFCURVE",
"201 679 QCURVE SMOOTH",
"504 679 LINE SMOOTH",
"527 679 OFFCURVE",
"581 673 OFFCURVE",
"626 654 OFFCURVE",
"656 617 OFFCURVE",
"656 587 QCURVE SMOOTH",
"656 432 LINE",
"382 432 LINE",
"382 445 LINE",
"398 451 OFFCURVE",
"429 474 OFFCURVE",
"429 494 QCURVE",
"277 494 LINE",
"277 185 LINE",
"429 185 LINE",
"429 278 LINE",
"391 278 LINE SMOOTH",
"371 278 OFFCURVE",
"342 257 OFFCURVE",
"331 240 QCURVE",
"315 240 LINE"
);
}
);
width = 705;
}
);
unicode = 0047;
},
{
glyphname = H;
layers = (
{
layerId = "2063BA69-310B-4872-9248-C1144A07CAA9";
paths = (
{
nodes = (
"338 666 LINE",
"322 660 OFFCURVE",
"292 636 OFFCURVE",
"292 617 QCURVE SMOOTH",
"292 401 LINE",
"444 401 LINE",
"444 617 LINE SMOOTH",
"444 637 OFFCURVE",
"414 660 OFFCURVE",
"398 666 QCURVE",
"398 679 LINE",
"717 679 LINE",
"717 666 LINE",
"701 660 OFFCURVE",
"671 637 OFFCURVE",
"671 617 QCURVE SMOOTH",
"671 61 LINE SMOOTH",
"671 41 OFFCURVE",
"701 19 OFFCURVE",
"717 13 QCURVE",
"717 0 LINE",
"398 0 LINE",
"398 13 LINE",
"414 19 OFFCURVE",
"444 41 OFFCURVE",
"444 61 QCURVE SMOOTH",
"444 278 LINE",
"292 278 LINE",
"292 61 LINE SMOOTH",
"292 42 OFFCURVE",
"323 19 OFFCURVE",
"338 13 QCURVE",
"338 0 LINE",
"19 0 LINE",
"19 13 LINE",
"35 19 OFFCURVE",
"65 41 OFFCURVE",
"65 61 QCURVE SMOOTH",
"65 617 LINE SMOOTH",
"65 637 OFFCURVE",
"35 660 OFFCURVE",
"19 666 QCURVE",
"19 679 LINE",
"338 679 LINE"
);
}
);
width = 733;
}
);
unicode = 0048;
},
{
glyphname = I;
layers = (
{
layerId = "2063BA69-310B-4872-9248-C1144A07CAA9";
paths = (
{
nodes = (
"342 679 LINE",
"342 666 LINE",
"326 660 OFFCURVE",
"296 638 OFFCURVE",
"296 618 QCURVE SMOOTH",
"296 62 LINE SMOOTH",
"296 42 OFFCURVE",
"326 20 OFFCURVE",
"342 14 QCURVE",
"342 0 LINE",
"22 0 LINE",
"22 14 LINE",
"38 20 OFFCURVE",
"68 42 OFFCURVE",
"68 62 QCURVE SMOOTH",
"68 618 LINE SMOOTH",
"68 638 OFFCURVE",
"38 660 OFFCURVE",
"22 666 QCURVE",
"22 679 LINE"
);
}
);
width = 359;
}
);
unicode = 0049;
},
{
glyphname = J;
layers = (
{
layerId = "2063BA69-310B-4872-9248-C1144A07CAA9";
paths = (
{
nodes = (
"124 493 LINE SMOOTH",
"104 493 OFFCURVE",
"74 473 OFFCURVE",
"64 456 QCURVE",
"48 456 LINE",
"48 678 LINE",
"621 678 LINE",
"621 92 LINE SMOOTH",
"621 62 OFFCURVE",
"592 25 OFFCURVE",
"547 6 OFFCURVE",
"494 0 OFFCURVE",
"470 0 QCURVE SMOOTH",
"199 0 LINE SMOOTH",
"175 0 OFFCURVE",
"122 6 OFFCURVE",
"77 25 OFFCURVE",
"48 61 OFFCURVE",
"48 92 QCURVE SMOOTH",
"48 246 LINE",
"321 246 LINE",
"321 233 LINE",
"305 227 OFFCURVE",
"275 205 OFFCURVE",
"275 185 QCURVE",
"394 185 LINE",
"394 493 LINE"
);
}
);
width = 683;
}
);
unicode = 004A;
},
{
glyphname = K;
layers = (
{
layerId = "2063BA69-310B-4872-9248-C1144A07CAA9";
paths = (
{
nodes = (
"339 666 LINE",
"323 660 OFFCURVE",
"293 637 OFFCURVE",
"293 617 QCURVE SMOOTH",
"293 401 LINE",
"445 401 LINE",
"445 617 LINE SMOOTH",
"445 637 OFFCURVE",
"414 660 OFFCURVE",
"398 666 QCURVE",
"398 679 LINE",
"718 679 LINE",
"718 666 LINE",
"701 660 OFFCURVE",
"672 637 OFFCURVE",
"672 617 QCURVE SMOOTH",
"672 489 LINE SMOOTH",
"672 464 OFFCURVE",
"653 411 OFFCURVE",
"620 368 OFFCURVE",
"574 340 OFFCURVE",
"547 340 QCURVE",
"575 340 OFFCURVE",
"621 308 OFFCURVE",
"654 260 OFFCURVE",
"672 203 OFFCURVE",
"672 179 QCURVE SMOOTH",
"672 62 LINE SMOOTH",
"672 42 OFFCURVE",
"701 19 OFFCURVE",
"718 13 QCURVE",
"718 0 LINE",
"398 0 LINE",
"398 13 LINE",
"414 19 OFFCURVE",
"445 42 OFFCURVE",
"445 62 QCURVE SMOOTH",
"445 278 LINE",
"293 278 LINE",
"293 62 LINE SMOOTH",
"293 42 OFFCURVE",
"323 19 OFFCURVE",
"339 13 QCURVE",
"339 0 LINE",
"20 0 LINE",
"20 13 LINE",
"37 19 OFFCURVE",
"66 42 OFFCURVE",
"66 62 QCURVE SMOOTH",
"66 617 LINE SMOOTH",
"66 637 OFFCURVE",
"37 660 OFFCURVE",
"20 666 QCURVE",
"20 679 LINE",
"339 679 LINE"
);
}
);
width = 738;
}
);
unicode = 004B;
},
{
glyphname = L;
layers = (
{
layerId = "2063BA69-310B-4872-9248-C1144A07CAA9";
paths = (
{
nodes = (
"540 222 LINE",
"540 0 LINE",
"17 0 LINE",
"17 13 LINE",
"32 19 OFFCURVE",
"63 42 OFFCURVE",
"63 61 QCURVE SMOOTH",
"63 617 LINE SMOOTH",
"63 636 OFFCURVE",
"33 660 OFFCURVE",
"17 666 QCURVE",
"17 679 LINE",
"336 679 LINE",
"336 666 LINE",
"320 660 OFFCURVE",
"290 637 OFFCURVE",
"290 617 QCURVE SMOOTH",
"290 185 LINE",
"464 185 LINE SMOOTH",
"484 185 OFFCURVE",
"513 205 OFFCURVE",
"524 222 QCURVE"
);
}
);
width = 574;
}
);
unicode = 004C;
},
{
glyphname = M;
layers = (
{
layerId = "2063BA69-310B-4872-9248-C1144A07CAA9";
paths = (
{
nodes = (
"787 62 LINE SMOOTH",
"787 42 OFFCURVE",
"816 19 OFFCURVE",
"833 13 QCURVE",
"833 0 LINE",
"513 0 LINE",
"513 13 LINE",
"530 19 OFFCURVE",
"559 42 OFFCURVE",
"559 62 QCURVE SMOOTH",
"559 359 LINE",
"427 162 LINE",
"394 213 OFFCURVE",
"328 310 OFFCURVE",
"294 359 QCURVE",
"294 62 LINE SMOOTH",
"294 42 OFFCURVE",
"325 19 OFFCURVE",
"341 13 QCURVE",
"341 0 LINE",
"21 0 LINE",
"21 13 LINE",
"38 19 OFFCURVE",
"67 42 OFFCURVE",
"67 62 QCURVE SMOOTH",
"67 617 LINE SMOOTH",
"67 637 OFFCURVE",
"38 660 OFFCURVE",
"21 666 QCURVE",
"21 679 LINE",
"341 679 LINE",
"341 666 LINE",
"325 660 OFFCURVE",
"294 637 OFFCURVE",
"294 617 QCURVE",
"427 419 LINE",
"559 617 LINE",
"559 637 OFFCURVE",
"530 660 OFFCURVE",
"513 666 QCURVE",
"513 679 LINE",
"833 679 LINE",
"833 666 LINE",
"816 660 OFFCURVE",
"787 637 OFFCURVE",
"787 617 QCURVE SMOOTH"
);
}
);
width = 851;
}
);
unicode = 004D;
},
{
glyphname = N;
layers = (
{
layerId = "2063BA69-310B-4872-9248-C1144A07CAA9";
paths = (
{
nodes = (
"17 13 LINE",
"34 19 OFFCURVE",
"63 42 OFFCURVE",
"63 62 QCURVE SMOOTH",
"63 617 LINE SMOOTH",
"63 637 OFFCURVE",
"34 660 OFFCURVE",
"17 666 QCURVE",
"17 679 LINE",
"336 679 LINE",
"336 666 LINE",
"320 660 OFFCURVE",
"290 637 OFFCURVE",
"290 617 QCURVE SMOOTH",
"290 494 LINE",
"442 344 LINE",
"442 617 LINE SMOOTH",
"442 637 OFFCURVE",
"413 660 OFFCURVE",
"396 666 QCURVE",
"396 679 LINE",
"715 679 LINE",
"715 666 LINE",
"698 660 OFFCURVE",
"669 637 OFFCURVE",
"669 617 QCURVE SMOOTH",
"669 62 LINE SMOOTH",
"669 42 OFFCURVE",
"698 19 OFFCURVE",
"715 13 QCURVE",
"715 0 LINE",
"396 0 LINE",
"396 13 LINE",
"413 19 OFFCURVE",
"442 42 OFFCURVE",
"442 62 QCURVE SMOOTH",
"442 150 LINE",
"290 300 LINE",
"290 62 LINE SMOOTH",
"290 42 OFFCURVE",
"320 19 OFFCURVE",
"336 13 QCURVE",
"336 0 LINE",
"17 0 LINE"
);
}
);
width = 727;
}
);
unicode = 004E;
},
{
glyphname = O;
layers = (
{
layerId = "2063BA69-310B-4872-9248-C1144A07CAA9";
paths = (
{
nodes = (
"654 92 LINE SMOOTH",
"654 62 OFFCURVE",
"624 25 OFFCURVE",
"579 6 OFFCURVE",
"526 0 OFFCURVE",
"502 0 QCURVE SMOOTH",
"199 0 LINE SMOOTH",
"175 0 OFFCURVE",
"122 6 OFFCURVE",
"77 25 OFFCURVE",
"48 62 OFFCURVE",
"48 92 QCURVE SMOOTH",
"48 586 LINE SMOOTH",
"48 616 OFFCURVE",
"77 653 OFFCURVE",
"122 672 OFFCURVE",
"175 678 OFFCURVE",
"199 678 QCURVE SMOOTH",
"502 678 LINE SMOOTH",
"526 678 OFFCURVE",
"579 672 OFFCURVE",
"624 653 OFFCURVE",
"654 616 OFFCURVE",
"654 586 QCURVE SMOOTH"
);
},
{
nodes = (
"426 185 LINE",
"426 493 LINE",
"275 493 LINE",
"275 185 LINE"
);
}
);
width = 700;
}
);
unicode = 004F;
},
{
glyphname = P;
layers = (
{
layerId = "2063BA69-310B-4872-9248-C1144A07CAA9";
paths = (
{
nodes = (
"293 61 LINE SMOOTH",
"293 41 OFFCURVE",
"323 19 OFFCURVE",
"339 13 QCURVE",
"339 0 LINE",
"20 0 LINE",
"20 13 LINE",
"35 19 OFFCURVE",
"66 42 OFFCURVE",
"66 61 QCURVE SMOOTH",
"66 617 LINE SMOOTH",
"66 636 OFFCURVE",
"36 660 OFFCURVE",
"20 666 QCURVE",
"20 679 LINE",
"480 679 LINE SMOOTH",
"504 679 OFFCURVE",
"557 673 OFFCURVE",
"602 653 OFFCURVE",
"632 616 OFFCURVE",
"632 586 QCURVE SMOOTH",
"632 370 LINE SMOOTH",
"632 336 OFFCURVE",
"594 298 OFFCURVE",
"540 280 OFFCURVE",
"481 276 OFFCURVE",
"461 276 QCURVE SMOOTH",
"453 276 OFFCURVE",
"421 277 OFFCURVE",
"404 277 QCURVE SMOOTH",
"293 277 LINE"
);
},
{
nodes = (
"404 401 LINE",
"404 494 LINE",
"293 494 LINE",
"293 401 LINE"
);
}
);
width = 656;
}
);
unicode = 0050;
},
{
glyphname = Q;
layers = (
{
layerId = "2063BA69-310B-4872-9248-C1144A07CAA9";
paths = (
{
nodes = (
"513 -86 LINE",
"193 -86 LINE",
"193 -73 LINE",
"209 -67 OFFCURVE",
"228 -55 OFFCURVE",
"237 -38 OFFCURVE",
"239 -16 OFFCURVE",
"239 0 QCURVE",
"213 0 OFFCURVE",
"148 1 OFFCURVE",
"90 18 OFFCURVE",
"50 56 OFFCURVE",
"50 93 QCURVE SMOOTH",
"50 586 LINE SMOOTH",
"50 616 OFFCURVE",
"79 653 OFFCURVE",
"124 673 OFFCURVE",
"177 679 OFFCURVE",
"201 679 QCURVE SMOOTH",
"504 679 LINE SMOOTH",
"528 679 OFFCURVE",
"581 673 OFFCURVE",
"626 653 OFFCURVE",
"656 616 OFFCURVE",
"656 586 QCURVE SMOOTH",
"656 93 LINE SMOOTH",
"656 57 OFFCURVE",
"616 18 OFFCURVE",
"557 2 OFFCURVE",
"491 0 OFFCURVE",
"466 0 QCURVE",
"466 -24 LINE SMOOTH",
"466 -44 OFFCURVE",
"497 -67 OFFCURVE",
"513 -73 QCURVE"
);
},
{
nodes = (
"429 185 LINE",
"429 494 LINE",
"277 494 LINE",
"277 185 LINE"
);
}
);
width = 703;
}
);
unicode = 0051;
},
{
glyphname = R;
layers = (
{
layerId = "2063BA69-310B-4872-9248-C1144A07CAA9";
paths = (
{
nodes = (
"15 678 LINE",
"493 678 LINE SMOOTH",
"520 678 OFFCURVE",
"573 666 OFFCURVE",
"617 640 OFFCURVE",
"644 597 OFFCURVE",
"644 566 QCURVE SMOOTH",
"644 455 LINE SMOOTH",
"644 429 OFFCURVE",
"624 386 OFFCURVE",
"589 356 OFFCURVE",
"544 339 OFFCURVE",
"519 339 QCURVE",
"544 339 OFFCURVE",
"590 321 OFFCURVE",
"624 289 OFFCURVE",
"644 245 OFFCURVE",
"644 219 QCURVE SMOOTH",
"644 61 LINE SMOOTH",
"644 41 OFFCURVE",
"675 18 OFFCURVE",
"691 13 QCURVE",
"691 0 LINE",
"371 0 LINE",
"371 13 LINE",
"387 19 OFFCURVE",
"417 41 OFFCURVE",
"417 61 QCURVE SMOOTH",
"417 277 LINE",
"288 277 LINE",
"288 61 LINE SMOOTH",
"288 41 OFFCURVE",
"318 19 OFFCURVE",
"334 13 QCURVE",
"334 0 LINE",
"15 0 LINE",
"15 13 LINE",
"31 19 OFFCURVE",
"61 42 OFFCURVE",
"61 61 QCURVE SMOOTH",
"61 617 LINE SMOOTH",
"61 636 OFFCURVE",
"30 659 OFFCURVE",
"15 665 QCURVE"
);
},
{
nodes = (
"417 401 LINE",
"417 493 LINE",
"288 493 LINE",
"288 401 LINE"
);
}
);
width = 705;
}
);
unicode = 0052;
},
{
glyphname = S;
layers = (
{
layerId = "2063BA69-310B-4872-9248-C1144A07CAA9";
paths = (
{
nodes = (
"622 92 LINE SMOOTH",
"622 62 OFFCURVE",
"593 25 OFFCURVE",
"548 6 OFFCURVE",
"495 0 OFFCURVE",
"471 0 QCURVE SMOOTH",
"197 0 LINE SMOOTH",
"173 0 OFFCURVE",
"120 6 OFFCURVE",
"75 25 OFFCURVE",
"46 62 OFFCURVE",
"46 92 QCURVE SMOOTH",
"46 246 LINE",
"319 246 LINE",
"319 233 LINE",
"303 228 OFFCURVE",
"273 205 OFFCURVE",
"273 185 QCURVE",
"395 185 LINE",
"395 277 LINE",
"273 277 LINE SMOOTH",
"246 277 OFFCURVE",
"203 276 OFFCURVE",
"198 276 QCURVE SMOOTH",
"175 276 OFFCURVE",
"121 282 OFFCURVE",
"76 302 OFFCURVE",
"46 339 OFFCURVE",
"46 370 QCURVE SMOOTH",
"46 586 LINE SMOOTH",
"46 616 OFFCURVE",
"75 653 OFFCURVE",
"120 672 OFFCURVE",
"173 678 OFFCURVE",
"197 678 QCURVE SMOOTH",
"471 678 LINE SMOOTH",
"495 678 OFFCURVE",
"548 672 OFFCURVE",
"593 653 OFFCURVE",
"622 616 OFFCURVE",
"622 586 QCURVE SMOOTH",
"622 431 LINE",
"349 431 LINE",
"349 445 LINE",
"365 451 OFFCURVE",
"395 474 OFFCURVE",
"395 493 QCURVE",
"273 493 LINE",
"273 401 LINE",
"395 401 LINE SMOOTH",
"422 401 OFFCURVE",
"465 402 OFFCURVE",
"470 402 QCURVE SMOOTH",
"494 402 OFFCURVE",
"547 396 OFFCURVE",
"592 376 OFFCURVE",
"622 339 OFFCURVE",
"622 308 QCURVE SMOOTH"
);
}
);
width = 673;
}
);
unicode = 0053;
},
{
glyphname = T;
layers = (
{
layerId = "2063BA69-310B-4872-9248-C1144A07CAA9";
paths = (
{
nodes = (
"19 679 LINE",
"544 679 LINE",
"544 456 LINE",
"528 456 LINE",
"518 473 OFFCURVE",
"489 494 OFFCURVE",
"469 494 QCURVE SMOOTH",
"396 494 LINE",
"396 62 LINE SMOOTH",
"396 42 OFFCURVE",
"425 19 OFFCURVE",
"442 13 QCURVE",
"442 0 LINE",
"123 0 LINE",
"123 13 LINE",
"139 19 OFFCURVE",
"169 42 OFFCURVE",
"169 62 QCURVE SMOOTH",
"169 494 LINE",
"95 494 LINE SMOOTH",
"75 494 OFFCURVE",
"46 473 OFFCURVE",
"36 456 QCURVE",
"19 456 LINE"
);
}
);
width = 565;
}
);
unicode = 0054;
},
{
glyphname = U;
layers = (
{
layerId = "2063BA69-310B-4872-9248-C1144A07CAA9";
paths = (
{
nodes = (
"331 679 LINE",
"331 666 LINE",
"315 660 OFFCURVE",
"285 637 OFFCURVE",
"285 617 QCURVE SMOOTH",
"285 185 LINE",
"413 185 LINE",
"413 617 LINE SMOOTH",
"413 637 OFFCURVE",
"383 660 OFFCURVE",
"367 666 QCURVE",
"367 679 LINE",
"687 679 LINE",
"687 666 LINE",
"671 660 OFFCURVE",
"640 637 OFFCURVE",
"640 617 QCURVE SMOOTH",
"640 97 LINE SMOOTH",
"640 67 OFFCURVE",
"611 29 OFFCURVE",
"566 8 OFFCURVE",
"513 0 OFFCURVE",
"489 0 QCURVE SMOOTH",
"209 0 LINE SMOOTH",
"185 0 OFFCURVE",
"131 8 OFFCURVE",
"87 30 OFFCURVE",
"58 68 OFFCURVE",
"58 99 QCURVE SMOOTH",
"58 617 LINE SMOOTH",
"58 636 OFFCURVE",
"28 660 OFFCURVE",
"12 666 QCURVE",
"12 679 LINE"
);
}
);
width = 704;
}
);
unicode = 0055;
},
{
glyphname = V;
layers = (
{
layerId = "2063BA69-310B-4872-9248-C1144A07CAA9";
paths = (
{
nodes = (
"543 0 LINE",
"177 0 LINE",
"177 13 LINE",
"187 17 OFFCURVE",
"210 32 OFFCURVE",
"210 44 QCURVE SMOOTH",
"210 50 OFFCURVE",
"187 86 OFFCURVE",
"153 135 OFFCURVE",
"114 193 OFFCURVE",
"80 251 OFFCURVE",
"57 305 OFFCURVE",
"57 325 QCURVE SMOOTH",
"57 617 LINE SMOOTH",
"57 637 OFFCURVE",
"27 660 OFFCURVE",
"11 666 QCURVE",
"11 679 LINE",
"330 679 LINE",
"330 666 LINE",
"314 660 OFFCURVE",
"284 637 OFFCURVE",
"284 617 QCURVE SMOOTH",
"284 387 LINE SMOOTH",
"284 350 OFFCURVE",
"293 303 OFFCURVE",
"311 265 OFFCURVE",
"340 226 OFFCURVE",
"360 197 QCURVE",
"382 230 OFFCURVE",
"412 271 OFFCURVE",
"429 309 OFFCURVE",
"436 358 OFFCURVE",
"436 400 QCURVE SMOOTH",
"436 617 LINE SMOOTH",
"436 636 OFFCURVE",
"406 660 OFFCURVE",
"390 666 QCURVE",
"390 679 LINE",
"709 679 LINE",
"709 666 LINE",
"693 660 OFFCURVE",
"663 637 OFFCURVE",
"663 617 QCURVE SMOOTH",
"663 325 LINE SMOOTH",
"663 305 OFFCURVE",
"640 252 OFFCURVE",
"606 194 OFFCURVE",
"567 136 OFFCURVE",
"533 87 OFFCURVE",
"510 51 OFFCURVE",
"510 45 QCURVE SMOOTH",
"510 32 OFFCURVE",
"533 17 OFFCURVE",
"543 13 QCURVE"
);
}
);
width = 720;
}
);
unicode = 0056;
},
{
glyphname = W;
layers = (
{
layerId = "2063BA69-310B-4872-9248-C1144A07CAA9";
paths = (
{
nodes = (
"1084 679 LINE",
"1084 666 LINE",
"1051 652 OFFCURVE",
"1037 620 OFFCURVE",
"1037 603 QCURVE SMOOTH",
"1037 599 OFFCURVE",
"1038 578 OFFCURVE",
"1038 556 QCURVE SMOOTH",
"1038 326 LINE SMOOTH",
"1038 277 OFFCURVE",
"1010 236 QCURVE SMOOTH",
"1006 229 OFFCURVE",
"984 199 OFFCURVE",
"956 159 OFFCURVE",
"926 116 OFFCURVE",
"902 78 OFFCURVE",
"886 49 OFFCURVE",
"886 45 QCURVE SMOOTH",
"886 32 OFFCURVE",
"908 17 OFFCURVE",
"919 13 QCURVE",
"919 0 LINE",
"552 0 LINE",
"552 13 LINE",
"563 17 OFFCURVE",
"585 32 OFFCURVE",
"585 45 QCURVE SMOOTH",
"585 51 OFFCURVE",
"576 70 OFFCURVE",
"563 89 OFFCURVE",
"550 106 OFFCURVE",
"546 111 QCURVE",
"542 106 OFFCURVE",
"529 89 OFFCURVE",
"516 70 OFFCURVE",
"507 51 OFFCURVE",
"507 45 QCURVE SMOOTH",
"507 32 OFFCURVE",
"529 17 OFFCURVE",
"540 13 QCURVE",
"540 0 LINE",
"174 0 LINE",
"174 13 LINE",
"184 17 OFFCURVE",
"207 32 OFFCURVE",
"207 45 QCURVE SMOOTH",
"207 49 OFFCURVE",
"191 77 OFFCURVE",
"166 115 OFFCURVE",
"136 158 OFFCURVE",
"108 198 OFFCURVE",
"87 229 OFFCURVE",
"83 236 QCURVE SMOOTH",
"69 257 OFFCURVE",
"54 300 OFFCURVE",
"54 326 QCURVE SMOOTH",
"54 556 LINE SMOOTH",
"54 578 OFFCURVE",
"55 599 OFFCURVE",
"55 603 QCURVE SMOOTH",
"55 620 OFFCURVE",
"41 652 OFFCURVE",
"8 666 QCURVE",
"8 679 LINE",
"327 679 LINE",
"327 666 LINE",
"310 660 OFFCURVE",
"281 637 OFFCURVE",
"281 617 QCURVE SMOOTH",
"281 357 LINE SMOOTH",
"281 334 OFFCURVE",
"295 292 OFFCURVE",
"317 253 OFFCURVE",
"344 216 OFFCURVE",
"357 198 QCURVE",
"370 216 OFFCURVE",
"396 253 OFFCURVE",
"418 292 OFFCURVE",
"432 333 OFFCURVE",
"432 357 QCURVE SMOOTH",
"432 617 LINE SMOOTH",
"432 637 OFFCURVE",
"403 659 OFFCURVE",
"387 666 QCURVE",
"387 679 LINE",
"706 679 LINE",
"706 666 LINE",
"689 660 OFFCURVE",
"660 637 OFFCURVE",
"660 617 QCURVE SMOOTH",
"660 357 LINE SMOOTH",
"660 333 OFFCURVE",
"674 291 OFFCURVE",
"696 253 OFFCURVE",
"722 217 OFFCURVE",
"735 198 QCURVE",
"748 217 OFFCURVE",
"775 254 OFFCURVE",
"797 292 OFFCURVE",
"811 333 OFFCURVE",
"811 357 QCURVE SMOOTH",
"811 617 LINE SMOOTH",
"811 637 OFFCURVE",
"782 660 OFFCURVE",
"765 666 QCURVE",
"765 679 LINE"
);
}
);
width = 1091;
}
);
unicode = 0057;
},
{
glyphname = X;
layers = (
{
layerId = "2063BA69-310B-4872-9248-C1144A07CAA9";
paths = (
{
nodes = (
"414 617 LINE SMOOTH",
"414 637 OFFCURVE",
"383 660 OFFCURVE",
"367 666 QCURVE",
"367 679 LINE",
"687 679 LINE",
"687 666 LINE",
"671 660 OFFCURVE",
"641 637 OFFCURVE",
"641 617 QCURVE SMOOTH",
"641 478 LINE SMOOTH",
"641 452 OFFCURVE",
"621 403 OFFCURVE",
"586 363 OFFCURVE",
"539 339 OFFCURVE",
"512 339 QCURVE",
"538 339 OFFCURVE",
"585 317 OFFCURVE",
"620 280 OFFCURVE",
"641 232 OFFCURVE",
"641 207 QCURVE SMOOTH",
"641 62 LINE SMOOTH",
"641 42 OFFCURVE",
"670 19 OFFCURVE",
"687 13 QCURVE",
"687 0 LINE",
"367 0 LINE",
"367 13 LINE",
"383 19 OFFCURVE",
"414 42 OFFCURVE",
"414 62 QCURVE SMOOTH",
"414 278 LINE",
"284 278 LINE",
"284 62 LINE SMOOTH",
"284 42 OFFCURVE",
"313 19 OFFCURVE",
"330 13 QCURVE",
"330 0 LINE",
"11 0 LINE",
"11 13 LINE",
"27 19 OFFCURVE",
"57 42 OFFCURVE",
"57 62 QCURVE SMOOTH",
"57 202 LINE SMOOTH",
"57 227 OFFCURVE",
"76 276 OFFCURVE",
"109 315 OFFCURVE",
"155 339 OFFCURVE",
"181 339 QCURVE",
"155 339 OFFCURVE",
"109 361 OFFCURVE",
"76 397 OFFCURVE",
"57 444 OFFCURVE",
"57 470 QCURVE SMOOTH",
"57 617 LINE SMOOTH",
"57 636 OFFCURVE",
"27 660 OFFCURVE",
"11 666 QCURVE",
"11 679 LINE",
"330 679 LINE",
"330 666 LINE",
"314 660 OFFCURVE",
"284 637 OFFCURVE",
"284 617 QCURVE SMOOTH",
"284 401 LINE",
"414 401 LINE"
);
}
);
width = 704;
}
);
unicode = 0058;
},
{
glyphname = Y;
layers = (
{
layerId = "2063BA69-310B-4872-9248-C1144A07CAA9";
paths = (
{
nodes = (
"452 278 LINE",
"452 62 LINE SMOOTH",
"452 42 OFFCURVE",
"481 19 OFFCURVE",
"498 13 QCURVE",
"498 0 LINE",
"178 0 LINE",
"178 13 LINE",
"194 19 OFFCURVE",
"225 42 OFFCURVE",
"225 62 QCURVE SMOOTH",
"225 278 LINE",
"172 278 LINE SMOOTH",
"133 278 OFFCURVE",
"87 308 OFFCURVE",
"63 355 OFFCURVE",
"56 410 OFFCURVE",
"56 436 QCURVE SMOOTH",
"56 443 OFFCURVE",
"58 492 OFFCURVE",
"58 525 QCURVE SMOOTH",
"58 617 LINE SMOOTH",
"58 637 OFFCURVE",
"29 660 OFFCURVE",
"12 666 QCURVE",
"12 679 LINE",
"331 679 LINE",
"331 666 LINE",
"315 660 OFFCURVE",
"285 637 OFFCURVE",
"285 617 QCURVE SMOOTH",
"285 401 LINE",
"401 401 LINE",
"401 617 LINE SMOOTH",
"401 637 OFFCURVE",
"371 660 OFFCURVE",
"355 666 QCURVE",
"355 679 LINE",
"674 679 LINE",
"674 666 LINE",
"657 660 OFFCURVE",
"628 637 OFFCURVE",
"628 617 QCURVE SMOOTH",
"628 525 LINE SMOOTH",
"628 492 OFFCURVE",
"630 443 OFFCURVE",
"630 436 QCURVE SMOOTH",
"630 410 OFFCURVE",
"623 355 OFFCURVE",
"599 308 OFFCURVE",
"553 278 OFFCURVE",
"514 278 QCURVE SMOOTH"
);
}
);
width = 688;
}
);
unicode = 0059;
},
{
glyphname = Z;
layers = (
{
layerId = "2063BA69-310B-4872-9248-C1144A07CAA9";
paths = (
{
nodes = (
"642 0 LINE",
"36 0 LINE",
"381 494 LINE",
"111 494 LINE SMOOTH",
"91 494 OFFCURVE",
"62 473 OFFCURVE",
"52 456 QCURVE",
"36 456 LINE",
"36 679 LINE",
"642 679 LINE",
"642 494 LINE",
"426 185 LINE",
"566 185 LINE SMOOTH",
"586 185 OFFCURVE",
"615 205 OFFCURVE",
"626 222 QCURVE",
"642 222 LINE"
);
}
);
width = 683;
}
);
unicode = 005A;
},
{
glyphname = bracketleft;
layers = (
{
layerId = "2063BA69-310B-4872-9248-C1144A07CAA9";
paths = (
{
nodes = (
"379 -241 LINE",
"63 -241 LINE",
"63 892 LINE",
"379 892 LINE",
"379 707 LINE",
"290 707 LINE",
"290 -56 LINE",
"379 -56 LINE"
);
}
);
width = 417;
}
);
unicode = 005B;
},
{
glyphname = backslash;
layers = (
{
layerId = "2063BA69-310B-4872-9248-C1144A07CAA9";
paths = (
{
nodes = (
"409 678 LINE",
"194 0 LINE",
"38 0 LINE",
"253 678 LINE"
);
}
);
width = 444;
}
);
unicode = 005C;
},
{
glyphname = bracketright;
layers = (
{
layerId = "2063BA69-310B-4872-9248-C1144A07CAA9";
paths = (
{
nodes = (
"63 -56 LINE",
"152 -56 LINE",
"152 707 LINE",
"63 707 LINE",
"63 892 LINE",
"379 892 LINE",
"379 -241 LINE",
"63 -241 LINE"
);
}
);
width = 417;
}
);
unicode = 005D;
},
{
glyphname = asciicircum;
layers = (
{
layerId = "2063BA69-310B-4872-9248-C1144A07CAA9";
paths = (
{
nodes = (
"5 297 LINE",
"280 654 LINE",
"360 654 LINE",
"634 297 LINE",
"528 216 LINE",
"320 485 LINE",
"112 216 LINE"
);
}
);
width = 666;
}
);
unicode = 005E;
},
{
glyphname = underscore;
layers = (
{
layerId = "2063BA69-310B-4872-9248-C1144A07CAA9";
paths = (
{
nodes = (
"44 -51 LINE",
"713 -51 LINE",
"713 -194 LINE",
"44 -194 LINE"
);
}
);
width = 749;
}
);
unicode = 005F;
},
{
glyphname = grave;
layers = (
{
layerId = "2063BA69-310B-4872-9248-C1144A07CAA9";
paths = (
{
nodes = (
"104 884 LINE",
"282 884 LINE",
"390 716 LINE",
"207 716 LINE"
);
}
);
width = 443;
}
);
unicode = 0060;
},
{
glyphname = a;
layers = (
{
layerId = "2063BA69-310B-4872-9248-C1144A07CAA9";
paths = (
{
nodes = (
"545 665 LINE",
"534 661 OFFCURVE",
"512 646 OFFCURVE",
"512 633 QCURVE SMOOTH",
"512 626 OFFCURVE",
"535 591 OFFCURVE",
"569 542 OFFCURVE",
"608 484 OFFCURVE",
"642 427 OFFCURVE",
"665 374 OFFCURVE",
"665 354 QCURVE SMOOTH",
"665 61 LINE SMOOTH",
"665 41 OFFCURVE",
"695 19 OFFCURVE",
"711 13 QCURVE",
"711 0 LINE",
"391 0 LINE",
"391 13 LINE",
"407 19 OFFCURVE",
"437 41 OFFCURVE",
"437 61 QCURVE SMOOTH",
"437 185 LINE",
"286 185 LINE",
"286 61 LINE SMOOTH",
"286 41 OFFCURVE",
"316 19 OFFCURVE",
"332 13 QCURVE",
"332 0 LINE",
"13 0 LINE",
"13 13 LINE",
"28 19 OFFCURVE",
"59 42 OFFCURVE",
"59 61 QCURVE SMOOTH",
"59 256 LINE SMOOTH",
"59 281 OFFCURVE",
"58 314 OFFCURVE",
"58 322 QCURVE SMOOTH",
"58 330 OFFCURVE",
"58 346 OFFCURVE",
"59 354 QCURVE SMOOTH",
"60 375 OFFCURVE",
"83 429 OFFCURVE",
"117 487 OFFCURVE",
"156 544 OFFCURVE",
"189 591 OFFCURVE",
"211 626 OFFCURVE",
"211 633 QCURVE SMOOTH",
"211 646 OFFCURVE",
"190 661 OFFCURVE",
"179 665 QCURVE",
"179 679 LINE",
"545 679 LINE"
);
},
{
nodes = (
"437 308 LINE",
"437 322 LINE SMOOTH",
"437 347 OFFCURVE",
"423 388 OFFCURVE",
"401 425 OFFCURVE",
"375 461 OFFCURVE",
"362 481 QCURVE",
"346 458 OFFCURVE",
"318 421 OFFCURVE",
"298 382 OFFCURVE",
"286 338 OFFCURVE",
"286 308 QCURVE"
);
}
);
width = 722;
}
);
unicode = 0061;
},
{
glyphname = b;
layers = (
{
layerId = "2063BA69-310B-4872-9248-C1144A07CAA9";
paths = (
{
nodes = (
"475 679 LINE SMOOTH",
"498 679 OFFCURVE",
"552 673 OFFCURVE",
"597 654 OFFCURVE",
"627 617 OFFCURVE",
"627 587 QCURVE SMOOTH",
"627 432 LINE SMOOTH",
"627 405 OFFCURVE",
"609 370 OFFCURVE",
"578 349 OFFCURVE",
"537 340 OFFCURVE",
"513 340 QCURVE",
"537 340 OFFCURVE",
"579 331 OFFCURVE",
"609 309 OFFCURVE",
"627 274 OFFCURVE",
"627 247 QCURVE SMOOTH",
"627 93 LINE SMOOTH",
"627 63 OFFCURVE",
"597 26 OFFCURVE",
"552 6 OFFCURVE",
"499 0 OFFCURVE",
"475 0 QCURVE SMOOTH",
"18 0 LINE",
"18 13 LINE",
"34 19 OFFCURVE",
"64 42 OFFCURVE",
"64 62 QCURVE SMOOTH",
"64 617 LINE SMOOTH",
"64 637 OFFCURVE",
"34 660 OFFCURVE",
"18 666 QCURVE",
"18 679 LINE"
);
},
{
nodes = (
"399 401 LINE",
"399 494 LINE",
"291 494 LINE",
"291 401 LINE"
);
},
{
nodes = (
"399 186 LINE",
"399 278 LINE",
"291 278 LINE",
"291 186 LINE"
);
}
);
width = 668;
}
);
unicode = 0062;
},
{
glyphname = c;
layers = (
{
layerId = "2063BA69-310B-4872-9248-C1144A07CAA9";
paths = (
{
nodes = (
"618 247 LINE",
"618 93 LINE SMOOTH",
"618 63 OFFCURVE",
"589 26 OFFCURVE",
"544 6 OFFCURVE",
"491 0 OFFCURVE",
"467 0 QCURVE SMOOTH",
"203 0 LINE SMOOTH",
"179 0 OFFCURVE",
"126 6 OFFCURVE",
"81 26 OFFCURVE",
"52 63 OFFCURVE",
"52 93 QCURVE SMOOTH",
"52 586 LINE SMOOTH",
"52 616 OFFCURVE",
"81 653 OFFCURVE",
"126 673 OFFCURVE",
"179 679 OFFCURVE",
"203 679 QCURVE SMOOTH",
"467 679 LINE SMOOTH",
"491 679 OFFCURVE",
"544 673 OFFCURVE",
"589 653 OFFCURVE",
"618 616 OFFCURVE",
"618 586 QCURVE SMOOTH",
"618 432 LINE",
"354 432 LINE",
"354 445 LINE",
"371 451 OFFCURVE",
"400 474 OFFCURVE",
"400 494 QCURVE",
"279 494 LINE",
"279 185 LINE",
"400 185 LINE",
"400 205 OFFCURVE",
"371 228 OFFCURVE",
"354 234 QCURVE",
"354 247 LINE"
);
}
);
width = 670;
}
);
unicode = 0063;
},
{
glyphname = d;
layers = (
{
layerId = "2063BA69-310B-4872-9248-C1144A07CAA9";
paths = (
{
nodes = (
"17 13 LINE",
"32 19 OFFCURVE",
"63 42 OFFCURVE",
"63 61 QCURVE SMOOTH",
"63 617 LINE SMOOTH",
"63 636 OFFCURVE",
"33 659 OFFCURVE",
"17 665 QCURVE",
"17 678 LINE",
"489 678 LINE SMOOTH",
"513 678 OFFCURVE",
"566 672 OFFCURVE",
"611 653 OFFCURVE",
"641 616 OFFCURVE",
"641 586 QCURVE SMOOTH",
"641 92 LINE SMOOTH",
"641 62 OFFCURVE",
"611 25 OFFCURVE",
"566 6 OFFCURVE",
"513 0 OFFCURVE",
"489 0 QCURVE SMOOTH",
"17 0 LINE"
);
},
{
nodes = (
"414 185 LINE",
"414 493 LINE",
"290 493 LINE",
"290 185 LINE"
);
}
);
width = 700;
}
);
unicode = 0064;
},
{
glyphname = e;
layers = (
{
layerId = "2063BA69-310B-4872-9248-C1144A07CAA9";
paths = (
{
nodes = (
"445 401 LINE SMOOTH",
"465 401 OFFCURVE",
"495 421 OFFCURVE",
"505 438 QCURVE",
"521 438 LINE",
"521 240 LINE",
"505 240 LINE",
"495 257 OFFCURVE",
"465 278 OFFCURVE",
"445 278 QCURVE SMOOTH",
"294 278 LINE",
"294 185 LINE",
"559 185 LINE SMOOTH",
"579 185 OFFCURVE",
"609 205 OFFCURVE",
"619 222 QCURVE",
"635 222 LINE",
"635 0 LINE",
"21 0 LINE",
"21 13 LINE",
"37 19 OFFCURVE",
"67 41 OFFCURVE",
"67 61 QCURVE SMOOTH",
"67 617 LINE SMOOTH",
"67 637 OFFCURVE",
"37 660 OFFCURVE",
"21 666 QCURVE",
"21 679 LINE",
"635 679 LINE",
"635 456 LINE",
"619 456 LINE",
"609 473 OFFCURVE",
"579 494 OFFCURVE",
"559 494 QCURVE SMOOTH",
"294 494 LINE",
"294 401 LINE"
);
}
);
width = 673;
}
);
unicode = 0065;
},
{
glyphname = f;
layers = (
{
layerId = "2063BA69-310B-4872-9248-C1144A07CAA9";
paths = (
{
nodes = (
"18 0 LINE",
"18 13 LINE",
"35 19 OFFCURVE",
"64 42 OFFCURVE",
"64 62 QCURVE SMOOTH",
"64 617 LINE SMOOTH",
"64 637 OFFCURVE",
"35 660 OFFCURVE",
"18 666 QCURVE",
"18 679 LINE",
"632 679 LINE",
"632 456 LINE",
"616 456 LINE",
"606 473 OFFCURVE",
"576 494 OFFCURVE",
"556 494 QCURVE SMOOTH",
"291 494 LINE",
"291 401 LINE",
"443 401 LINE SMOOTH",
"463 401 OFFCURVE",
"492 422 OFFCURVE",
"502 439 QCURVE",
"518 439 LINE",
"518 240 LINE",
"502 240 LINE",
"492 257 OFFCURVE",
"463 278 OFFCURVE",
"443 278 QCURVE SMOOTH",
"291 278 LINE",
"291 62 LINE SMOOTH",
"291 42 OFFCURVE",
"321 19 OFFCURVE",
"337 13 QCURVE",
"337 0 LINE"
);
}
);
width = 659;
}
);
unicode = 0066;
},
{
glyphname = g;
layers = (
{
layerId = "2063BA69-310B-4872-9248-C1144A07CAA9";
paths = (
{
nodes = (
"315 401 LINE",
"656 401 LINE",
"656 93 LINE SMOOTH",
"656 63 OFFCURVE",
"626 26 OFFCURVE",
"581 6 OFFCURVE",
"528 0 OFFCURVE",
"504 0 QCURVE SMOOTH",
"201 0 LINE SMOOTH",
"177 0 OFFCURVE",
"124 6 OFFCURVE",
"79 26 OFFCURVE",
"50 63 OFFCURVE",
"50 93 QCURVE SMOOTH",
"50 587 LINE SMOOTH",
"50 617 OFFCURVE",
"80 654 OFFCURVE",
"125 673 OFFCURVE",
"178 679 OFFCURVE",
"201 679 QCURVE SMOOTH",
"504 679 LINE SMOOTH",
"527 679 OFFCURVE",
"581 673 OFFCURVE",
"626 654 OFFCURVE",
"656 617 OFFCURVE",
"656 587 QCURVE SMOOTH",
"656 432 LINE",
"382 432 LINE",
"382 445 LINE",
"398 451 OFFCURVE",
"429 474 OFFCURVE",
"429 494 QCURVE",
"277 494 LINE",
"277 185 LINE",
"429 185 LINE",
"429 278 LINE",
"391 278 LINE SMOOTH",
"371 278 OFFCURVE",
"342 257 OFFCURVE",
"331 240 QCURVE",
"315 240 LINE"
);
}
);
width = 705;
}
);
unicode = 0067;
},
{
glyphname = h;
layers = (
{
layerId = "2063BA69-310B-4872-9248-C1144A07CAA9";
paths = (
{
nodes = (
"338 666 LINE",
"322 660 OFFCURVE",
"292 636 OFFCURVE",
"292 617 QCURVE SMOOTH",
"292 401 LINE",
"444 401 LINE",
"444 617 LINE SMOOTH",
"444 637 OFFCURVE",
"414 660 OFFCURVE",
"398 666 QCURVE",
"398 679 LINE",
"717 679 LINE",
"717 666 LINE",
"701 660 OFFCURVE",
"671 637 OFFCURVE",
"671 617 QCURVE SMOOTH",
"671 61 LINE SMOOTH",
"671 41 OFFCURVE",
"701 19 OFFCURVE",
"717 13 QCURVE",
"717 0 LINE",
"398 0 LINE",
"398 13 LINE",
"414 19 OFFCURVE",
"444 41 OFFCURVE",
"444 61 QCURVE SMOOTH",
"444 278 LINE",
"292 278 LINE",
"292 61 LINE SMOOTH",
"292 42 OFFCURVE",
"323 19 OFFCURVE",
"338 13 QCURVE",
"338 0 LINE",
"19 0 LINE",
"19 13 LINE",
"35 19 OFFCURVE",
"65 41 OFFCURVE",
"65 61 QCURVE SMOOTH",
"65 617 LINE SMOOTH",
"65 637 OFFCURVE",
"35 660 OFFCURVE",
"19 666 QCURVE",
"19 679 LINE",
"338 679 LINE"
);
}
);
width = 733;
}
);
unicode = 0068;
},
{
glyphname = i;
layers = (
{
layerId = "2063BA69-310B-4872-9248-C1144A07CAA9";
paths = (
{
nodes = (
"342 679 LINE",
"342 666 LINE",
"326 660 OFFCURVE",
"296 638 OFFCURVE",
"296 618 QCURVE SMOOTH",
"296 62 LINE SMOOTH",
"296 42 OFFCURVE",
"326 20 OFFCURVE",
"342 14 QCURVE",
"342 0 LINE",
"22 0 LINE",
"22 14 LINE",
"38 20 OFFCURVE",
"68 42 OFFCURVE",
"68 62 QCURVE SMOOTH",
"68 618 LINE SMOOTH",
"68 638 OFFCURVE",
"38 660 OFFCURVE",
"22 666 QCURVE",
"22 679 LINE"
);
}
);
width = 359;
}
);
unicode = 0069;
},
{
glyphname = j;
layers = (
{
layerId = "2063BA69-310B-4872-9248-C1144A07CAA9";
paths = (
{
nodes = (
"124 493 LINE SMOOTH",
"104 493 OFFCURVE",
"74 473 OFFCURVE",
"64 456 QCURVE",
"48 456 LINE",
"48 678 LINE",
"621 678 LINE",
"621 92 LINE SMOOTH",
"621 62 OFFCURVE",
"592 25 OFFCURVE",
"547 6 OFFCURVE",
"494 0 OFFCURVE",
"470 0 QCURVE SMOOTH",
"199 0 LINE SMOOTH",
"175 0 OFFCURVE",
"122 6 OFFCURVE",
"77 25 OFFCURVE",
"48 61 OFFCURVE",
"48 92 QCURVE SMOOTH",
"48 246 LINE",
"321 246 LINE",
"321 233 LINE",
"305 227 OFFCURVE",
"275 205 OFFCURVE",
"275 185 QCURVE",
"394 185 LINE",
"394 493 LINE"
);
}
);
width = 683;
}
);
unicode = 006A;
},
{
glyphname = k;
layers = (
{
layerId = "2063BA69-310B-4872-9248-C1144A07CAA9";
paths = (
{
nodes = (
"339 666 LINE",
"323 660 OFFCURVE",
"293 637 OFFCURVE",
"293 617 QCURVE SMOOTH",
"293 401 LINE",
"445 401 LINE",
"445 617 LINE SMOOTH",
"445 637 OFFCURVE",
"414 660 OFFCURVE",
"398 666 QCURVE",
"398 679 LINE",
"718 679 LINE",
"718 666 LINE",
"701 660 OFFCURVE",
"672 637 OFFCURVE",
"672 617 QCURVE SMOOTH",
"672 489 LINE SMOOTH",
"672 464 OFFCURVE",
"653 411 OFFCURVE",
"620 368 OFFCURVE",
"574 340 OFFCURVE",
"547 340 QCURVE",
"575 340 OFFCURVE",
"621 308 OFFCURVE",
"654 260 OFFCURVE",
"672 203 OFFCURVE",
"672 179 QCURVE SMOOTH",
"672 62 LINE SMOOTH",
"672 42 OFFCURVE",
"701 19 OFFCURVE",
"718 13 QCURVE",
"718 0 LINE",
"398 0 LINE",
"398 13 LINE",
"414 19 OFFCURVE",
"445 42 OFFCURVE",
"445 62 QCURVE SMOOTH",
"445 278 LINE",
"293 278 LINE",
"293 62 LINE SMOOTH",
"293 42 OFFCURVE",
"323 19 OFFCURVE",
"339 13 QCURVE",
"339 0 LINE",
"20 0 LINE",
"20 13 LINE",
"37 19 OFFCURVE",
"66 42 OFFCURVE",
"66 62 QCURVE SMOOTH",
"66 617 LINE SMOOTH",
"66 637 OFFCURVE",
"37 660 OFFCURVE",
"20 666 QCURVE",
"20 679 LINE",
"339 679 LINE"
);
}
);
width = 738;
}
);
unicode = 006B;
},
{
glyphname = l;
layers = (
{
layerId = "2063BA69-310B-4872-9248-C1144A07CAA9";
paths = (
{
nodes = (
"540 222 LINE",
"540 0 LINE",
"17 0 LINE",
"17 13 LINE",
"32 19 OFFCURVE",
"63 42 OFFCURVE",
"63 61 QCURVE SMOOTH",
"63 617 LINE SMOOTH",
"63 636 OFFCURVE",
"33 660 OFFCURVE",
"17 666 QCURVE",
"17 679 LINE",
"336 679 LINE",
"336 666 LINE",
"320 660 OFFCURVE",
"290 637 OFFCURVE",
"290 617 QCURVE SMOOTH",
"290 185 LINE",
"464 185 LINE SMOOTH",
"484 185 OFFCURVE",
"513 205 OFFCURVE",
"524 222 QCURVE"
);
}
);
width = 574;
}
);
unicode = 006C;
},
{
glyphname = m;
layers = (
{
layerId = "2063BA69-310B-4872-9248-C1144A07CAA9";
paths = (
{
nodes = (
"787 62 LINE SMOOTH",
"787 42 OFFCURVE",
"816 19 OFFCURVE",
"833 13 QCURVE",
"833 0 LINE",
"513 0 LINE",
"513 13 LINE",
"530 19 OFFCURVE",
"559 42 OFFCURVE",
"559 62 QCURVE SMOOTH",
"559 359 LINE",
"427 162 LINE",
"394 213 OFFCURVE",
"328 310 OFFCURVE",
"294 359 QCURVE",
"294 62 LINE SMOOTH",
"294 42 OFFCURVE",
"325 19 OFFCURVE",
"341 13 QCURVE",
"341 0 LINE",
"21 0 LINE",
"21 13 LINE",
"38 19 OFFCURVE",
"67 42 OFFCURVE",
"67 62 QCURVE SMOOTH",
"67 617 LINE SMOOTH",
"67 637 OFFCURVE",
"38 660 OFFCURVE",
"21 666 QCURVE",
"21 679 LINE",
"341 679 LINE",
"341 666 LINE",
"325 660 OFFCURVE",
"294 637 OFFCURVE",
"294 617 QCURVE",
"427 419 LINE",
"559 617 LINE",
"559 637 OFFCURVE",
"530 660 OFFCURVE",
"513 666 QCURVE",
"513 679 LINE",
"833 679 LINE",
"833 666 LINE",
"816 660 OFFCURVE",
"787 637 OFFCURVE",
"787 617 QCURVE SMOOTH"
);
}
);
width = 851;
}
);
unicode = 006D;
},
{
glyphname = n;
layers = (
{
layerId = "2063BA69-310B-4872-9248-C1144A07CAA9";
paths = (
{
nodes = (
"17 13 LINE",
"34 19 OFFCURVE",
"63 42 OFFCURVE",
"63 62 QCURVE SMOOTH",
"63 617 LINE SMOOTH",
"63 637 OFFCURVE",
"34 660 OFFCURVE",
"17 666 QCURVE",
"17 679 LINE",
"336 679 LINE",
"336 666 LINE",
"320 660 OFFCURVE",
"290 637 OFFCURVE",
"290 617 QCURVE SMOOTH",
"290 494 LINE",
"442 344 LINE",
"442 617 LINE SMOOTH",
"442 637 OFFCURVE",
"413 660 OFFCURVE",
"396 666 QCURVE",
"396 679 LINE",
"715 679 LINE",
"715 666 LINE",
"698 660 OFFCURVE",
"669 637 OFFCURVE",
"669 617 QCURVE SMOOTH",
"669 62 LINE SMOOTH",
"669 42 OFFCURVE",
"698 19 OFFCURVE",
"715 13 QCURVE",
"715 0 LINE",
"396 0 LINE",
"396 13 LINE",
"413 19 OFFCURVE",
"442 42 OFFCURVE",
"442 62 QCURVE SMOOTH",
"442 150 LINE",
"290 300 LINE",
"290 62 LINE SMOOTH",
"290 42 OFFCURVE",
"320 19 OFFCURVE",
"336 13 QCURVE",
"336 0 LINE",
"17 0 LINE"
);
}
);
width = 727;
}
);
unicode = 006E;
},
{
glyphname = o;
layers = (
{
layerId = "2063BA69-310B-4872-9248-C1144A07CAA9";
paths = (
{
nodes = (
"654 92 LINE SMOOTH",
"654 62 OFFCURVE",
"624 25 OFFCURVE",
"579 6 OFFCURVE",
"526 0 OFFCURVE",
"502 0 QCURVE SMOOTH",
"199 0 LINE SMOOTH",
"175 0 OFFCURVE",
"122 6 OFFCURVE",
"77 25 OFFCURVE",
"48 62 OFFCURVE",
"48 92 QCURVE SMOOTH",
"48 586 LINE SMOOTH",
"48 616 OFFCURVE",
"77 653 OFFCURVE",
"122 672 OFFCURVE",
"175 678 OFFCURVE",
"199 678 QCURVE SMOOTH",
"502 678 LINE SMOOTH",
"526 678 OFFCURVE",
"579 672 OFFCURVE",
"624 653 OFFCURVE",
"654 616 OFFCURVE",
"654 586 QCURVE SMOOTH"
);
},
{
nodes = (
"426 185 LINE",
"426 493 LINE",
"275 493 LINE",
"275 185 LINE"
);
}
);
width = 700;
}
);
unicode = 006F;
},
{
glyphname = p;
layers = (
{
layerId = "2063BA69-310B-4872-9248-C1144A07CAA9";
paths = (
{
nodes = (
"293 61 LINE SMOOTH",
"293 41 OFFCURVE",
"323 19 OFFCURVE",
"339 13 QCURVE",
"339 0 LINE",
"20 0 LINE",
"20 13 LINE",
"35 19 OFFCURVE",
"66 42 OFFCURVE",
"66 61 QCURVE SMOOTH",
"66 617 LINE SMOOTH",
"66 636 OFFCURVE",
"36 660 OFFCURVE",
"20 666 QCURVE",
"20 679 LINE",
"480 679 LINE SMOOTH",
"504 679 OFFCURVE",
"557 673 OFFCURVE",
"602 653 OFFCURVE",
"632 616 OFFCURVE",
"632 586 QCURVE SMOOTH",
"632 370 LINE SMOOTH",
"632 336 OFFCURVE",
"594 298 OFFCURVE",
"540 280 OFFCURVE",
"481 276 OFFCURVE",
"461 276 QCURVE SMOOTH",
"453 276 OFFCURVE",
"421 277 OFFCURVE",
"404 277 QCURVE SMOOTH",
"293 277 LINE"
);
},
{
nodes = (
"404 401 LINE",
"404 494 LINE",
"293 494 LINE",
"293 401 LINE"
);
}
);
width = 656;
}
);
unicode = 0070;
},
{
glyphname = q;
layers = (
{
layerId = "2063BA69-310B-4872-9248-C1144A07CAA9";
paths = (
{
nodes = (
"513 -86 LINE",
"193 -86 LINE",
"193 -73 LINE",
"209 -67 OFFCURVE",
"228 -55 OFFCURVE",
"237 -38 OFFCURVE",
"239 -16 OFFCURVE",
"239 0 QCURVE",
"213 0 OFFCURVE",
"148 1 OFFCURVE",
"90 18 OFFCURVE",
"50 56 OFFCURVE",
"50 93 QCURVE SMOOTH",
"50 586 LINE SMOOTH",
"50 616 OFFCURVE",
"79 653 OFFCURVE",
"124 673 OFFCURVE",
"177 679 OFFCURVE",
"201 679 QCURVE SMOOTH",
"504 679 LINE SMOOTH",
"528 679 OFFCURVE",
"581 673 OFFCURVE",
"626 653 OFFCURVE",
"656 616 OFFCURVE",
"656 586 QCURVE SMOOTH",
"656 93 LINE SMOOTH",
"656 57 OFFCURVE",
"616 18 OFFCURVE",
"557 2 OFFCURVE",
"491 0 OFFCURVE",
"466 0 QCURVE",
"466 -24 LINE SMOOTH",
"466 -44 OFFCURVE",
"497 -67 OFFCURVE",
"513 -73 QCURVE"
);
},
{
nodes = (
"429 185 LINE",
"429 494 LINE",
"277 494 LINE",
"277 185 LINE"
);
}
);
width = 703;
}
);
unicode = 0071;
},
{
glyphname = r;
layers = (
{
layerId = "2063BA69-310B-4872-9248-C1144A07CAA9";
paths = (
{
nodes = (
"15 678 LINE",
"493 678 LINE SMOOTH",
"520 678 OFFCURVE",
"573 666 OFFCURVE",
"617 640 OFFCURVE",
"644 597 OFFCURVE",
"644 566 QCURVE SMOOTH",
"644 455 LINE SMOOTH",
"644 429 OFFCURVE",
"624 386 OFFCURVE",
"589 356 OFFCURVE",
"544 339 OFFCURVE",
"519 339 QCURVE",
"544 339 OFFCURVE",
"590 321 OFFCURVE",
"624 289 OFFCURVE",
"644 245 OFFCURVE",
"644 219 QCURVE SMOOTH",
"644 61 LINE SMOOTH",
"644 41 OFFCURVE",
"675 18 OFFCURVE",
"691 13 QCURVE",
"691 0 LINE",
"371 0 LINE",
"371 13 LINE",
"387 19 OFFCURVE",
"417 41 OFFCURVE",
"417 61 QCURVE SMOOTH",
"417 277 LINE",
"288 277 LINE",
"288 61 LINE SMOOTH",
"288 41 OFFCURVE",
"318 19 OFFCURVE",
"334 13 QCURVE",
"334 0 LINE",
"15 0 LINE",
"15 13 LINE",
"31 19 OFFCURVE",
"61 42 OFFCURVE",
"61 61 QCURVE SMOOTH",
"61 617 LINE SMOOTH",
"61 636 OFFCURVE",
"30 659 OFFCURVE",
"15 665 QCURVE"
);
},
{
nodes = (
"417 401 LINE",
"417 493 LINE",
"288 493 LINE",
"288 401 LINE"
);
}
);
width = 705;
}
);
unicode = 0072;
},
{
glyphname = s;
layers = (
{
layerId = "2063BA69-310B-4872-9248-C1144A07CAA9";
paths = (
{
nodes = (
"622 92 LINE SMOOTH",
"622 62 OFFCURVE",
"593 25 OFFCURVE",
"548 6 OFFCURVE",
"495 0 OFFCURVE",
"471 0 QCURVE SMOOTH",
"197 0 LINE SMOOTH",
"173 0 OFFCURVE",
"120 6 OFFCURVE",
"75 25 OFFCURVE",
"46 62 OFFCURVE",
"46 92 QCURVE SMOOTH",
"46 246 LINE",
"319 246 LINE",
"319 233 LINE",
"303 228 OFFCURVE",
"273 205 OFFCURVE",
"273 185 QCURVE",
"395 185 LINE",
"395 277 LINE",
"273 277 LINE SMOOTH",
"246 277 OFFCURVE",
"203 276 OFFCURVE",
"198 276 QCURVE SMOOTH",
"175 276 OFFCURVE",
"121 282 OFFCURVE",
"76 302 OFFCURVE",
"46 339 OFFCURVE",
"46 370 QCURVE SMOOTH",
"46 586 LINE SMOOTH",
"46 616 OFFCURVE",
"75 653 OFFCURVE",
"120 672 OFFCURVE",
"173 678 OFFCURVE",
"197 678 QCURVE SMOOTH",
"471 678 LINE SMOOTH",
"495 678 OFFCURVE",
"548 672 OFFCURVE",
"593 653 OFFCURVE",
"622 616 OFFCURVE",
"622 586 QCURVE SMOOTH",
"622 431 LINE",
"349 431 LINE",
"349 445 LINE",
"365 451 OFFCURVE",
"395 474 OFFCURVE",
"395 493 QCURVE",
"273 493 LINE",
"273 401 LINE",
"395 401 LINE SMOOTH",
"422 401 OFFCURVE",
"465 402 OFFCURVE",
"470 402 QCURVE SMOOTH",
"494 402 OFFCURVE",
"547 396 OFFCURVE",
"592 376 OFFCURVE",
"622 339 OFFCURVE",
"622 308 QCURVE SMOOTH"
);
}
);
width = 673;
}
);
unicode = 0073;
},
{
glyphname = t;
layers = (
{
layerId = "2063BA69-310B-4872-9248-C1144A07CAA9";
paths = (
{
nodes = (
"19 679 LINE",
"544 679 LINE",
"544 456 LINE",
"528 456 LINE",
"518 473 OFFCURVE",
"489 494 OFFCURVE",
"469 494 QCURVE SMOOTH",
"396 494 LINE",
"396 62 LINE SMOOTH",
"396 42 OFFCURVE",
"425 19 OFFCURVE",
"442 13 QCURVE",
"442 0 LINE",
"123 0 LINE",
"123 13 LINE",
"139 19 OFFCURVE",
"169 42 OFFCURVE",
"169 62 QCURVE SMOOTH",
"169 494 LINE",
"95 494 LINE SMOOTH",
"75 494 OFFCURVE",
"46 473 OFFCURVE",
"36 456 QCURVE",
"19 456 LINE"
);
}
);
width = 565;
}
);
unicode = 0074;
},
{
glyphname = u;
layers = (
{
layerId = "2063BA69-310B-4872-9248-C1144A07CAA9";
paths = (
{
nodes = (
"331 679 LINE",
"331 666 LINE",
"315 660 OFFCURVE",
"285 637 OFFCURVE",
"285 617 QCURVE SMOOTH",
"285 185 LINE",
"413 185 LINE",
"413 617 LINE SMOOTH",
"413 637 OFFCURVE",
"383 660 OFFCURVE",
"367 666 QCURVE",
"367 679 LINE",
"687 679 LINE",
"687 666 LINE",
"671 660 OFFCURVE",
"640 637 OFFCURVE",
"640 617 QCURVE SMOOTH",
"640 97 LINE SMOOTH",
"640 67 OFFCURVE",
"611 29 OFFCURVE",
"566 8 OFFCURVE",
"513 0 OFFCURVE",
"489 0 QCURVE SMOOTH",
"209 0 LINE SMOOTH",
"185 0 OFFCURVE",
"131 8 OFFCURVE",
"87 30 OFFCURVE",
"58 68 OFFCURVE",
"58 99 QCURVE SMOOTH",
"58 617 LINE SMOOTH",
"58 636 OFFCURVE",
"28 660 OFFCURVE",
"12 666 QCURVE",
"12 679 LINE"
);
}
);
width = 704;
}
);
unicode = 0075;
},
{
glyphname = v;
layers = (
{
layerId = "2063BA69-310B-4872-9248-C1144A07CAA9";
paths = (
{
nodes = (
"543 0 LINE",
"177 0 LINE",
"177 13 LINE",
"187 17 OFFCURVE",
"210 32 OFFCURVE",
"210 44 QCURVE SMOOTH",
"210 50 OFFCURVE",
"187 86 OFFCURVE",
"153 135 OFFCURVE",
"114 193 OFFCURVE",
"80 251 OFFCURVE",
"57 305 OFFCURVE",
"57 325 QCURVE SMOOTH",
"57 617 LINE SMOOTH",
"57 637 OFFCURVE",
"27 660 OFFCURVE",
"11 666 QCURVE",
"11 679 LINE",
"330 679 LINE",
"330 666 LINE",
"314 660 OFFCURVE",
"284 637 OFFCURVE",
"284 617 QCURVE SMOOTH",
"284 387 LINE SMOOTH",
"284 350 OFFCURVE",
"293 303 OFFCURVE",
"311 265 OFFCURVE",
"340 226 OFFCURVE",
"360 197 QCURVE",
"382 230 OFFCURVE",
"412 271 OFFCURVE",
"429 309 OFFCURVE",
"436 358 OFFCURVE",
"436 400 QCURVE SMOOTH",
"436 617 LINE SMOOTH",
"436 636 OFFCURVE",
"406 660 OFFCURVE",
"390 666 QCURVE",
"390 679 LINE",
"709 679 LINE",
"709 666 LINE",
"693 660 OFFCURVE",
"663 637 OFFCURVE",
"663 617 QCURVE SMOOTH",
"663 325 LINE SMOOTH",
"663 305 OFFCURVE",
"640 252 OFFCURVE",
"606 194 OFFCURVE",
"567 136 OFFCURVE",
"533 87 OFFCURVE",
"510 51 OFFCURVE",
"510 45 QCURVE SMOOTH",
"510 32 OFFCURVE",
"533 17 OFFCURVE",
"543 13 QCURVE"
);
}
);
width = 720;
}
);
unicode = 0076;
},
{
glyphname = w;
layers = (
{
layerId = "2063BA69-310B-4872-9248-C1144A07CAA9";
paths = (
{
nodes = (
"1084 679 LINE",
"1084 666 LINE",
"1051 652 OFFCURVE",
"1037 620 OFFCURVE",
"1037 603 QCURVE SMOOTH",
"1037 599 OFFCURVE",
"1038 578 OFFCURVE",
"1038 556 QCURVE SMOOTH",
"1038 326 LINE SMOOTH",
"1038 277 OFFCURVE",
"1010 236 QCURVE SMOOTH",
"1006 229 OFFCURVE",
"984 199 OFFCURVE",
"956 159 OFFCURVE",
"926 116 OFFCURVE",
"902 78 OFFCURVE",
"886 49 OFFCURVE",
"886 45 QCURVE SMOOTH",
"886 32 OFFCURVE",
"908 17 OFFCURVE",
"919 13 QCURVE",
"919 0 LINE",
"552 0 LINE",
"552 13 LINE",
"563 17 OFFCURVE",
"585 32 OFFCURVE",
"585 45 QCURVE SMOOTH",
"585 51 OFFCURVE",
"576 70 OFFCURVE",
"563 89 OFFCURVE",
"550 106 OFFCURVE",
"546 111 QCURVE",
"542 106 OFFCURVE",
"529 89 OFFCURVE",
"516 70 OFFCURVE",
"507 51 OFFCURVE",
"507 45 QCURVE SMOOTH",
"507 32 OFFCURVE",
"529 17 OFFCURVE",
"540 13 QCURVE",
"540 0 LINE",
"174 0 LINE",
"174 13 LINE",
"184 17 OFFCURVE",
"207 32 OFFCURVE",
"207 45 QCURVE SMOOTH",
"207 49 OFFCURVE",
"191 77 OFFCURVE",
"166 115 OFFCURVE",
"136 158 OFFCURVE",
"108 198 OFFCURVE",
"87 229 OFFCURVE",
"83 236 QCURVE SMOOTH",
"69 257 OFFCURVE",
"54 300 OFFCURVE",
"54 326 QCURVE SMOOTH",
"54 556 LINE SMOOTH",
"54 578 OFFCURVE",
"55 599 OFFCURVE",
"55 603 QCURVE SMOOTH",
"55 620 OFFCURVE",
"41 652 OFFCURVE",
"8 666 QCURVE",
"8 679 LINE",
"327 679 LINE",
"327 666 LINE",
"310 660 OFFCURVE",
"281 637 OFFCURVE",
"281 617 QCURVE SMOOTH",
"281 357 LINE SMOOTH",
"281 334 OFFCURVE",
"295 292 OFFCURVE",
"317 253 OFFCURVE",
"344 216 OFFCURVE",
"357 198 QCURVE",
"370 216 OFFCURVE",
"396 253 OFFCURVE",
"418 292 OFFCURVE",
"432 333 OFFCURVE",
"432 357 QCURVE SMOOTH",
"432 617 LINE SMOOTH",
"432 637 OFFCURVE",
"403 659 OFFCURVE",
"387 666 QCURVE",
"387 679 LINE",
"706 679 LINE",
"706 666 LINE",
"689 660 OFFCURVE",
"660 637 OFFCURVE",
"660 617 QCURVE SMOOTH",
"660 357 LINE SMOOTH",
"660 333 OFFCURVE",
"674 291 OFFCURVE",
"696 253 OFFCURVE",
"722 217 OFFCURVE",
"735 198 QCURVE",
"748 217 OFFCURVE",
"775 254 OFFCURVE",
"797 292 OFFCURVE",
"811 333 OFFCURVE",
"811 357 QCURVE SMOOTH",
"811 617 LINE SMOOTH",
"811 637 OFFCURVE",
"782 660 OFFCURVE",
"765 666 QCURVE",
"765 679 LINE"
);
}
);
width = 1091;
}
);
unicode = 0077;
},
{
glyphname = x;
layers = (
{
layerId = "2063BA69-310B-4872-9248-C1144A07CAA9";
paths = (
{
nodes = (
"414 617 LINE SMOOTH",
"414 637 OFFCURVE",
"383 660 OFFCURVE",
"367 666 QCURVE",
"367 679 LINE",
"687 679 LINE",
"687 666 LINE",
"671 660 OFFCURVE",
"641 637 OFFCURVE",
"641 617 QCURVE SMOOTH",
"641 478 LINE SMOOTH",
"641 452 OFFCURVE",
"621 403 OFFCURVE",
"586 363 OFFCURVE",
"539 339 OFFCURVE",
"512 339 QCURVE",
"538 339 OFFCURVE",
"585 317 OFFCURVE",
"620 280 OFFCURVE",
"641 232 OFFCURVE",
"641 207 QCURVE SMOOTH",
"641 62 LINE SMOOTH",
"641 42 OFFCURVE",
"670 19 OFFCURVE",
"687 13 QCURVE",
"687 0 LINE",
"367 0 LINE",
"367 13 LINE",
"383 19 OFFCURVE",
"414 42 OFFCURVE",
"414 62 QCURVE SMOOTH",
"414 278 LINE",
"284 278 LINE",
"284 62 LINE SMOOTH",
"284 42 OFFCURVE",
"313 19 OFFCURVE",
"330 13 QCURVE",
"330 0 LINE",
"11 0 LINE",
"11 13 LINE",
"27 19 OFFCURVE",
"57 42 OFFCURVE",
"57 62 QCURVE SMOOTH",
"57 202 LINE SMOOTH",
"57 227 OFFCURVE",
"76 276 OFFCURVE",
"109 315 OFFCURVE",
"155 339 OFFCURVE",
"181 339 QCURVE",
"155 339 OFFCURVE",
"109 361 OFFCURVE",
"76 397 OFFCURVE",
"57 444 OFFCURVE",
"57 470 QCURVE SMOOTH",
"57 617 LINE SMOOTH",
"57 636 OFFCURVE",
"27 660 OFFCURVE",
"11 666 QCURVE",
"11 679 LINE",
"330 679 LINE",
"330 666 LINE",
"314 660 OFFCURVE",
"284 637 OFFCURVE",
"284 617 QCURVE SMOOTH",
"284 401 LINE",
"414 401 LINE"
);
}
);
width = 704;
}
);
unicode = 0078;
},
{
glyphname = y;
layers = (
{
layerId = "2063BA69-310B-4872-9248-C1144A07CAA9";
paths = (
{
nodes = (
"452 278 LINE",
"452 62 LINE SMOOTH",
"452 42 OFFCURVE",
"481 19 OFFCURVE",
"498 13 QCURVE",
"498 0 LINE",
"178 0 LINE",
"178 13 LINE",
"194 19 OFFCURVE",
"225 42 OFFCURVE",
"225 62 QCURVE SMOOTH",
"225 278 LINE",
"172 278 LINE SMOOTH",
"133 278 OFFCURVE",
"87 308 OFFCURVE",
"63 355 OFFCURVE",
"56 410 OFFCURVE",
"56 436 QCURVE SMOOTH",
"56 443 OFFCURVE",
"58 492 OFFCURVE",
"58 525 QCURVE SMOOTH",
"58 617 LINE SMOOTH",
"58 637 OFFCURVE",
"29 660 OFFCURVE",
"12 666 QCURVE",
"12 679 LINE",
"331 679 LINE",
"331 666 LINE",
"315 660 OFFCURVE",
"285 637 OFFCURVE",
"285 617 QCURVE SMOOTH",
"285 401 LINE",
"401 401 LINE",
"401 617 LINE SMOOTH",
"401 637 OFFCURVE",
"371 660 OFFCURVE",
"355 666 QCURVE",
"355 679 LINE",
"674 679 LINE",
"674 666 LINE",
"657 660 OFFCURVE",
"628 637 OFFCURVE",
"628 617 QCURVE SMOOTH",
"628 525 LINE SMOOTH",
"628 492 OFFCURVE",
"630 443 OFFCURVE",
"630 436 QCURVE SMOOTH",
"630 410 OFFCURVE",
"623 355 OFFCURVE",
"599 308 OFFCURVE",
"553 278 OFFCURVE",
"514 278 QCURVE SMOOTH"
);
}
);
width = 688;
}
);
unicode = 0079;
},
{
glyphname = z;
layers = (
{
layerId = "2063BA69-310B-4872-9248-C1144A07CAA9";
paths = (
{
nodes = (
"642 0 LINE",
"36 0 LINE",
"381 494 LINE",
"111 494 LINE SMOOTH",
"91 494 OFFCURVE",
"62 473 OFFCURVE",
"52 456 QCURVE",
"36 456 LINE",
"36 679 LINE",
"642 679 LINE",
"642 494 LINE",
"426 185 LINE",
"566 185 LINE SMOOTH",
"586 185 OFFCURVE",
"615 205 OFFCURVE",
"626 222 QCURVE",
"642 222 LINE"
);
}
);
width = 683;
}
);
unicode = 007A;
},
{
glyphname = braceleft;
layers = (
{
layerId = "2063BA69-310B-4872-9248-C1144A07CAA9";
paths = (
{
nodes = (
"485 -35 LINE",
"485 -220 LINE",
"328 -220 LINE SMOOTH",
"304 -220 OFFCURVE",
"251 -214 OFFCURVE",
"206 -195 OFFCURVE",
"177 -158 OFFCURVE",
"177 -128 QCURVE SMOOTH",
"177 193 LINE SMOOTH",
"177 223 OFFCURVE",
"148 260 OFFCURVE",
"103 279 OFFCURVE",
"50 285 OFFCURVE",
"26 285 QCURVE",
"26 367 LINE",
"50 367 OFFCURVE",
"103 373 OFFCURVE",
"148 392 OFFCURVE",
"177 429 OFFCURVE",
"177 459 QCURVE SMOOTH",
"177 803 LINE SMOOTH",
"177 833 OFFCURVE",
"205 870 OFFCURVE",
"248 889 OFFCURVE",
"300 895 OFFCURVE",
"324 895 QCURVE SMOOTH",
"485 895 LINE",
"485 710 LINE",
"400 710 LINE",
"400 -35 LINE"
);
}
);
width = 446;
}
);
unicode = 007B;
},
{
glyphname = bar;
layers = (
{
layerId = "2063BA69-310B-4872-9248-C1144A07CAA9";
paths = (
{
nodes = (
"233 772 LINE",
"233 -91 LINE",
"51 -91 LINE",
"51 772 LINE"
);
}
);
width = 290;
}
);
unicode = 007C;
},
{
glyphname = braceright;
layers = (
{
layerId = "2063BA69-310B-4872-9248-C1144A07CAA9";
paths = (
{
nodes = (
"-13 895 LINE",
"148 895 LINE SMOOTH",
"172 895 OFFCURVE",
"224 889 OFFCURVE",
"267 870 OFFCURVE",
"295 833 OFFCURVE",
"295 803 QCURVE SMOOTH",
"295 459 LINE SMOOTH",
"295 429 OFFCURVE",
"324 392 OFFCURVE",
"369 373 OFFCURVE",
"422 367 OFFCURVE",
"446 367 QCURVE",
"446 285 LINE",
"422 285 OFFCURVE",
"369 279 OFFCURVE",
"324 260 OFFCURVE",
"295 223 OFFCURVE",
"295 193 QCURVE SMOOTH",
"295 -128 LINE SMOOTH",
"295 -158 OFFCURVE",
"266 -195 OFFCURVE",
"221 -214 OFFCURVE",
"168 -220 OFFCURVE",
"144 -220 QCURVE SMOOTH",
"-13 -220 LINE",
"-13 -35 LINE",
"72 -35 LINE",
"72 710 LINE",
"-13 710 LINE"
);
}
);
width = 474;
}
);
unicode = 007D;
},
{
glyphname = asciitilde;
layers = (
{
layerId = "2063BA69-310B-4872-9248-C1144A07CAA9";
paths = (
{
nodes = (
"644 354 LINE",
"632 322 OFFCURVE",
"584 270 OFFCURVE",
"523 234 OFFCURVE",
"456 214 OFFCURVE",
"425 214 QCURVE SMOOTH",
"392 214 OFFCURVE",
"343 238 OFFCURVE",
"303 266 OFFCURVE",
"272 290 OFFCURVE",
"257 290 QCURVE SMOOTH",
"242 290 OFFCURVE",
"209 277 OFFCURVE",
"180 256 OFFCURVE",
"155 229 OFFCURVE",
"147 214 QCURVE",
"121 235 OFFCURVE",
"62 288 OFFCURVE",
"36 310 QCURVE",
"56 339 OFFCURVE",
"107 387 OFFCURVE",
"165 422 OFFCURVE",
"227 442 OFFCURVE",
"257 442 QCURVE SMOOTH",
"290 442 OFFCURVE",
"337 418 OFFCURVE",
"376 390 OFFCURVE",
"408 366 OFFCURVE",
"426 366 QCURVE SMOOTH",
"455 366 OFFCURVE",
"506 411 OFFCURVE",
"522 439 QCURVE"
);
}
);
width = 672;
}
);
unicode = 007E;
},
{
glyphname = exclamdown;
layers = (
{
layerId = "2063BA69-310B-4872-9248-C1144A07CAA9";
paths = (
{
nodes = (
"285 564 OFFCURVE",
"264 530 OFFCURVE",
"232 506 OFFCURVE",
"191 493 OFFCURVE",
"172 493 QCURVE SMOOTH",
"152 493 OFFCURVE",
"112 505 OFFCURVE",
"79 529 OFFCURVE",
"58 563 OFFCURVE",
"58 586 QCURVE SMOOTH",
"58 608 OFFCURVE",
"79 643 OFFCURVE",
"112 667 OFFCURVE",
"152 679 OFFCURVE",
"172 679 QCURVE SMOOTH",
"191 679 OFFCURVE",
"232 666 OFFCURVE",
"264 642 OFFCURVE",
"285 608 OFFCURVE",
"285 586 QCURVE SMOOTH"
);
},
{
nodes = (
"331 449 LINE",
"315 443 OFFCURVE",
"285 420 OFFCURVE",
"285 401 QCURVE SMOOTH",
"285 61 LINE SMOOTH",
"285 42 OFFCURVE",
"316 19 OFFCURVE",
"331 13 QCURVE",
"331 0 LINE",
"12 0 LINE",
"12 13 LINE",
"27 19 OFFCURVE",
"58 42 OFFCURVE",
"58 61 QCURVE SMOOTH",
"58 401 LINE SMOOTH",
"58 420 OFFCURVE",
"28 443 OFFCURVE",
"12 449 QCURVE",
"12 463 LINE",
"331 463 LINE"
);
}
);
width = 355;
}
);
unicode = 00A1;
},
{
glyphname = cent;
layers = (
{
layerId = "2063BA69-310B-4872-9248-C1144A07CAA9";
paths = (
{
nodes = (
"368 776 LINE",
"368 679 LINE",
"467 679 LINE SMOOTH",
"491 679 OFFCURVE",
"544 673 OFFCURVE",
"589 653 OFFCURVE",
"618 616 OFFCURVE",
"618 586 QCURVE SMOOTH",
"618 432 LINE",
"354 432 LINE",
"354 445 LINE",
"371 451 OFFCURVE",
"400 474 OFFCURVE",
"400 494 QCURVE",
"279 494 LINE",
"279 185 LINE",
"400 185 LINE",
"400 205 OFFCURVE",
"371 228 OFFCURVE",
"354 234 QCURVE",
"354 247 LINE",
"618 247 LINE",
"618 93 LINE SMOOTH",
"618 63 OFFCURVE",
"589 26 OFFCURVE",
"544 6 OFFCURVE",
"491 0 OFFCURVE",
"467 0 QCURVE SMOOTH",
"368 0 LINE",
"368 -91 LINE",
"295 -91 LINE",
"295 0 LINE",
"203 0 LINE SMOOTH",
"179 0 OFFCURVE",
"126 6 OFFCURVE",
"81 26 OFFCURVE",
"52 63 OFFCURVE",
"52 93 QCURVE SMOOTH",
"52 586 LINE SMOOTH",
"52 616 OFFCURVE",
"81 653 OFFCURVE",
"126 673 OFFCURVE",
"179 679 OFFCURVE",
"203 679 QCURVE SMOOTH",
"295 679 LINE",
"295 776 LINE"
);
}
);
width = 670;
}
);
unicode = 00A2;
},
{
glyphname = sterling;
layers = (
{
layerId = "2063BA69-310B-4872-9248-C1144A07CAA9";
paths = (
{
nodes = (
"16 168 LINE",
"174 168 LINE",
"174 278 LINE",
"136 277 LINE",
"111 277 OFFCURVE",
"68 280 OFFCURVE",
"37 298 OFFCURVE",
"19 335 OFFCURVE",
"19 370 QCURVE SMOOTH",
"19 587 LINE SMOOTH",
"19 617 OFFCURVE",
"49 653 OFFCURVE",
"94 673 OFFCURVE",
"147 679 OFFCURVE",
"170 679 QCURVE SMOOTH",
"411 679 LINE SMOOTH",
"434 679 OFFCURVE",
"488 673 OFFCURVE",
"533 654 OFFCURVE",
"563 617 OFFCURVE",
"563 587 QCURVE SMOOTH",
"563 432 LINE",
"295 432 LINE",
"295 445 LINE",
"312 451 OFFCURVE",
"341 474 OFFCURVE",
"341 494 QCURVE",
"246 494 LINE",
"246 401 LINE",
"265 401 LINE SMOOTH",
"287 401 OFFCURVE",
"335 395 OFFCURVE",
"377 378 OFFCURVE",
"407 347 OFFCURVE",
"410 322 QCURVE",
"560 322 LINE",
"560 196 LINE",
"411 196 LINE",
"411 168 LINE",
"559 168 LINE",
"559 0 LINE",
"16 0 LINE"
);
}
);
width = 586;
}
);
unicode = 00A3;
},
{
glyphname = yen;
layers = (
{
layerId = "2063BA69-310B-4872-9248-C1144A07CAA9";
paths = (
{
nodes = (
"452 278 LINE",
"452 253 LINE",
"619 253 LINE",
"619 180 LINE",
"452 180 LINE",
"452 147 LINE",
"619 147 LINE",
"619 75 LINE",
"452 75 LINE",
"452 62 LINE SMOOTH",
"452 42 OFFCURVE",
"481 19 OFFCURVE",
"498 13 QCURVE",
"498 0 LINE",
"178 0 LINE",
"178 13 LINE",
"194 19 OFFCURVE",
"225 42 OFFCURVE",
"225 62 QCURVE SMOOTH",
"225 75 LINE",
"64 75 LINE",
"64 147 LINE",
"225 147 LINE",
"225 180 LINE",
"64 180 LINE",
"64 253 LINE",
"225 253 LINE",
"225 278 LINE",
"172 278 LINE SMOOTH",
"133 278 OFFCURVE",
"87 308 OFFCURVE",
"63 355 OFFCURVE",
"56 410 OFFCURVE",
"56 436 QCURVE SMOOTH",
"56 443 OFFCURVE",
"58 492 OFFCURVE",
"58 525 QCURVE SMOOTH",
"58 617 LINE SMOOTH",
"58 637 OFFCURVE",
"29 660 OFFCURVE",
"12 666 QCURVE",
"12 679 LINE",
"331 679 LINE",
"331 666 LINE",
"315 660 OFFCURVE",
"285 637 OFFCURVE",
"285 617 QCURVE SMOOTH",
"285 401 LINE",
"401 401 LINE",
"401 617 LINE SMOOTH",
"401 637 OFFCURVE",
"371 660 OFFCURVE",
"355 666 QCURVE",
"355 679 LINE",
"674 679 LINE",
"674 666 LINE",
"657 660 OFFCURVE",
"628 637 OFFCURVE",
"628 617 QCURVE SMOOTH",
"628 525 LINE SMOOTH",
"628 492 OFFCURVE",
"630 443 OFFCURVE",
"630 436 QCURVE SMOOTH",
"630 410 OFFCURVE",
"623 355 OFFCURVE",
"599 308 OFFCURVE",
"553 278 OFFCURVE",
"514 278 QCURVE SMOOTH"
);
}
);
width = 688;
}
);
unicode = 00A5;
},
{
glyphname = section;
layers = (
{
layerId = "2063BA69-310B-4872-9248-C1144A07CAA9";
paths = (
{
nodes = (
"622 -6 LINE SMOOTH",
"622 -36 OFFCURVE",
"593 -73 OFFCURVE",
"548 -92 OFFCURVE",
"495 -98 OFFCURVE",
"471 -98 QCURVE SMOOTH",
"197 -98 LINE SMOOTH",
"173 -98 OFFCURVE",
"120 -92 OFFCURVE",
"75 -73 OFFCURVE",
"46 -36 OFFCURVE",
"46 -6 QCURVE SMOOTH",
"46 148 LINE",
"319 148 LINE",
"319 135 LINE",
"303 130 OFFCURVE",
"273 107 OFFCURVE",
"273 87 QCURVE",
"395 87 LINE",
"395 179 LINE",
"273 179 LINE SMOOTH",
"246 179 OFFCURVE",
"203 178 OFFCURVE",
"198 178 QCURVE SMOOTH",
"175 178 OFFCURVE",
"121 184 OFFCURVE",
"76 204 OFFCURVE",
"46 241 OFFCURVE",
"46 272 QCURVE SMOOTH",
"46 703 LINE SMOOTH",
"46 733 OFFCURVE",
"75 770 OFFCURVE",
"120 789 OFFCURVE",
"173 795 OFFCURVE",
"197 795 QCURVE SMOOTH",
"471 795 LINE SMOOTH",
"495 795 OFFCURVE",
"548 789 OFFCURVE",
"593 770 OFFCURVE",
"622 733 OFFCURVE",
"622 703 QCURVE SMOOTH",
"622 548 LINE",
"349 548 LINE",
"349 562 LINE",
"365 568 OFFCURVE",
"395 591 OFFCURVE",
"395 610 QCURVE",
"273 610 LINE",
"273 518 LINE",
"395 518 LINE SMOOTH",
"422 518 OFFCURVE",
"465 519 OFFCURVE",
"470 519 QCURVE SMOOTH",
"494 519 OFFCURVE",
"547 513 OFFCURVE",
"592 493 OFFCURVE",
"622 456 OFFCURVE",
"622 425 QCURVE SMOOTH"
);
},
{
nodes = (
"395 394 LINE",
"273 394 LINE",
"273 303 LINE",
"395 303 LINE"
);
}
);
width = 673;
}
);
unicode = 00A7;
},
{
glyphname = dieresis;
layers = (
{
layerId = "2063BA69-310B-4872-9248-C1144A07CAA9";
paths = (
{
nodes = (
"173 870 OFFCURVE",
"209 858 OFFCURVE",
"238 837 OFFCURVE",
"257 806 OFFCURVE",
"257 787 QCURVE SMOOTH",
"257 768 OFFCURVE",
"238 738 OFFCURVE",
"209 717 OFFCURVE",
"173 706 OFFCURVE",
"156 706 QCURVE SMOOTH",
"138 706 OFFCURVE",
"102 717 OFFCURVE",
"73 738 OFFCURVE",
"54 768 OFFCURVE",
"54 787 QCURVE SMOOTH",
"54 807 OFFCURVE",
"73 838 OFFCURVE",
"102 859 OFFCURVE",
"138 870 OFFCURVE",
"156 870 QCURVE SMOOTH"
);
},
{
nodes = (
"429 870 OFFCURVE",
"465 858 OFFCURVE",
"494 837 OFFCURVE",
"512 806 OFFCURVE",
"512 787 QCURVE SMOOTH",
"512 768 OFFCURVE",
"494 738 OFFCURVE",
"465 717 OFFCURVE",
"429 706 OFFCURVE",
"411 706 QCURVE SMOOTH",
"393 706 OFFCURVE",
"357 717 OFFCURVE",
"328 738 OFFCURVE",
"309 768 OFFCURVE",
"309 787 QCURVE SMOOTH",
"309 807 OFFCURVE",
"328 838 OFFCURVE",
"357 859 OFFCURVE",
"393 870 OFFCURVE",
"411 870 QCURVE SMOOTH"
);
}
);
width = 547;
}
);
unicode = 00A8;
},
{
glyphname = copyright;
layers = (
{
layerId = "2063BA69-310B-4872-9248-C1144A07CAA9";
paths = (
{
nodes = (
"318 657 OFFCURVE",
"404 620 OFFCURVE",
"467 556 OFFCURVE",
"504 470 OFFCURVE",
"504 422 QCURVE SMOOTH",
"504 372 OFFCURVE",
"467 286 OFFCURVE",
"404 223 OFFCURVE",
"318 186 OFFCURVE",
"270 186 QCURVE SMOOTH",
"222 186 OFFCURVE",
"136 223 OFFCURVE",
"72 286 OFFCURVE",
"35 372 OFFCURVE",
"35 422 QCURVE SMOOTH",
"35 470 OFFCURVE",
"72 556 OFFCURVE",
"136 620 OFFCURVE",
"222 657 OFFCURVE",
"270 657 QCURVE SMOOTH"
);
},
{
nodes = (
"305 241 OFFCURVE",
"370 269 OFFCURVE",
"419 317 OFFCURVE",
"447 381 OFFCURVE",
"447 418 QCURVE SMOOTH",
"447 455 OFFCURVE",
"419 520 OFFCURVE",
"370 569 OFFCURVE",
"305 597 OFFCURVE",
"268 597 QCURVE SMOOTH",
"231 597 OFFCURVE",
"167 569 OFFCURVE",
"119 520 OFFCURVE",
"91 455 OFFCURVE",
"91 418 QCURVE SMOOTH",
"91 381 OFFCURVE",
"119 317 OFFCURVE",
"167 269 OFFCURVE",
"231 241 OFFCURVE",
"268 241 QCURVE SMOOTH"
);
},
{
nodes = (
"312 565 OFFCURVE",
"375 530 OFFCURVE",
"395 501 QCURVE",
"324 443 LINE",
"316 454 OFFCURVE",
"292 469 OFFCURVE",
"278 469 QCURVE SMOOTH",
"255 469 OFFCURVE",
"223 438 OFFCURVE",
"223 415 QCURVE SMOOTH",
"223 392 OFFCURVE",
"255 361 OFFCURVE",
"278 361 QCURVE SMOOTH",
"298 361 OFFCURVE",
"315 376 QCURVE",
"379 317 LINE",
"359 296 OFFCURVE",
"306 271 OFFCURVE",
"275 271 QCURVE SMOOTH",
"244 271 OFFCURVE",
"190 294 OFFCURVE",
"150 335 OFFCURVE",
"127 388 OFFCURVE",
"127 418 QCURVE SMOOTH",
"127 448 OFFCURVE",
"150 502 OFFCURVE",
"190 542 OFFCURVE",
"244 565 OFFCURVE",
"275 565 QCURVE SMOOTH"
);
}
);
width = 537;
}
);
unicode = 00A9;
},
{
glyphname = registered;
layers = (
{
layerId = "2063BA69-310B-4872-9248-C1144A07CAA9";
paths = (
{
nodes = (
"286 658 OFFCURVE",
"364 624 OFFCURVE",
"423 565 OFFCURVE",
"457 487 OFFCURVE",
"457 442 QCURVE SMOOTH",
"457 397 OFFCURVE",
"423 318 OFFCURVE",
"364 260 OFFCURVE",
"286 226 OFFCURVE",
"241 226 QCURVE SMOOTH",
"196 226 OFFCURVE",
"117 260 OFFCURVE",
"58 318 OFFCURVE",
"24 397 OFFCURVE",
"24 442 QCURVE SMOOTH",
"24 487 OFFCURVE",
"58 565 OFFCURVE",
"117 624 OFFCURVE",
"196 658 OFFCURVE",
"241 658 QCURVE SMOOTH"
);
},
{
nodes = (
"273 276 OFFCURVE",
"332 302 OFFCURVE",
"377 346 OFFCURVE",
"403 405 OFFCURVE",
"403 439 QCURVE SMOOTH",
"403 473 OFFCURVE",
"377 532 OFFCURVE",
"332 577 OFFCURVE",
"273 603 OFFCURVE",
"239 603 QCURVE SMOOTH",
"204 603 OFFCURVE",
"145 577 OFFCURVE",
"101 532 OFFCURVE",
"76 473 OFFCURVE",
"76 439 QCURVE SMOOTH",
"76 405 OFFCURVE",
"101 346 OFFCURVE",
"145 302 OFFCURVE",
"204 276 OFFCURVE",
"239 276 QCURVE SMOOTH"
);
},
{
nodes = (
"146 544 LINE",
"290 544 LINE SMOOTH",
"306 544 OFFCURVE",
"335 530 OFFCURVE",
"335 511 QCURVE SMOOTH",
"335 477 LINE SMOOTH",
"335 462 OFFCURVE",
"313 442 OFFCURVE",
"298 442 QCURVE",
"313 442 OFFCURVE",
"335 422 OFFCURVE",
"335 407 QCURVE SMOOTH",
"335 359 LINE SMOOTH",
"335 353 OFFCURVE",
"345 346 OFFCURVE",
"349 345 QCURVE",
"349 341 LINE",
"254 341 LINE",
"254 345 LINE",
"258 347 OFFCURVE",
"267 353 OFFCURVE",
"267 359 QCURVE SMOOTH",
"267 424 LINE",
"228 424 LINE",
"228 359 LINE SMOOTH",
"228 353 OFFCURVE",
"237 347 OFFCURVE",
"243 345 QCURVE",
"243 341 LINE",
"146 341 LINE",
"146 345 LINE",
"151 347 OFFCURVE",
"160 353 OFFCURVE",
"160 359 QCURVE SMOOTH",
"160 526 LINE SMOOTH",
"160 532 OFFCURVE",
"151 539 OFFCURVE",
"146 541 QCURVE"
);
},
{
nodes = (
"267 461 LINE",
"267 489 LINE",
"228 489 LINE",
"228 461 LINE"
);
}
);
width = 478;
}
);
unicode = 00AE;
},
{
glyphname = acute;
layers = (
{
layerId = "2063BA69-310B-4872-9248-C1144A07CAA9";
paths = (
{
nodes = (
"287 716 LINE",
"104 716 LINE",
"212 884 LINE",
"390 884 LINE"
);
}
);
width = 456;
}
);
unicode = 00B4;
},
{
glyphname = ae;
layers = (
{
layerId = "2063BA69-310B-4872-9248-C1144A07CAA9";
paths = (
{
nodes = (
"836 401 LINE SMOOTH",
"856 401 OFFCURVE",
"886 421 OFFCURVE",
"896 438 QCURVE",
"912 438 LINE",
"912 240 LINE",
"896 240 LINE",
"886 257 OFFCURVE",
"856 278 OFFCURVE",
"836 278 QCURVE SMOOTH",
"689 278 LINE",
"689 185 LINE",
"950 185 LINE SMOOTH",
"970 185 OFFCURVE",
"1000 205 OFFCURVE",
"1010 222 QCURVE",
"1026 222 LINE",
"1026 0 LINE",
"412 0 LINE",
"412 13 LINE",
"428 19 OFFCURVE",
"458 41 OFFCURVE",
"458 61 QCURVE SMOOTH",
"458 185 LINE",
"310 185 LINE",
"310 61 LINE SMOOTH",
"310 41 OFFCURVE",
"340 19 OFFCURVE",
"356 13 QCURVE",
"356 0 LINE",
"37 0 LINE",
"37 13 LINE",
"52 19 OFFCURVE",
"83 42 OFFCURVE",
"83 61 QCURVE SMOOTH",
"83 256 LINE SMOOTH",
"83 281 OFFCURVE",
"82 314 OFFCURVE",
"82 322 QCURVE SMOOTH",
"82 330 OFFCURVE",
"82 346 OFFCURVE",
"83 354 QCURVE SMOOTH",
"84 375 OFFCURVE",
"107 429 OFFCURVE",
"141 487 OFFCURVE",
"180 544 OFFCURVE",
"213 591 OFFCURVE",
"235 626 OFFCURVE",
"235 633 QCURVE SMOOTH",
"235 646 OFFCURVE",
"214 661 OFFCURVE",
"203 665 QCURVE",
"203 679 LINE",
"1026 679 LINE",
"1026 456 LINE",
"1010 456 LINE",
"1000 473 OFFCURVE",
"970 494 OFFCURVE",
"950 494 QCURVE SMOOTH",
"689 494 LINE",
"689 401 LINE"
);
},
{
nodes = (
"347 415 LINE",
"335 398 OFFCURVE",
"320 372 OFFCURVE",
"312 348 OFFCURVE",
"310 323 OFFCURVE",
"310 308 QCURVE",
"458 308 LINE",
"458 555 LINE"
);
}
);
width = 1067;
}
);
unicode = 00E6;
},
{
glyphname = AE;
layers = (
{
layerId = "2063BA69-310B-4872-9248-C1144A07CAA9";
paths = (
{
nodes = (
"836 401 LINE SMOOTH",
"856 401 OFFCURVE",
"886 421 OFFCURVE",
"896 438 QCURVE",
"912 438 LINE",
"912 240 LINE",
"896 240 LINE",
"886 257 OFFCURVE",
"856 278 OFFCURVE",
"836 278 QCURVE SMOOTH",
"689 278 LINE",
"689 185 LINE",
"950 185 LINE SMOOTH",
"970 185 OFFCURVE",
"1000 205 OFFCURVE",
"1010 222 QCURVE",
"1026 222 LINE",
"1026 0 LINE",
"412 0 LINE",
"412 13 LINE",
"428 19 OFFCURVE",
"458 41 OFFCURVE",
"458 61 QCURVE SMOOTH",
"458 185 LINE",
"310 185 LINE",
"310 61 LINE SMOOTH",
"310 41 OFFCURVE",
"340 19 OFFCURVE",
"356 13 QCURVE",
"356 0 LINE",
"37 0 LINE",
"37 13 LINE",
"52 19 OFFCURVE",
"83 42 OFFCURVE",
"83 61 QCURVE SMOOTH",
"83 256 LINE SMOOTH",
"83 281 OFFCURVE",
"82 314 OFFCURVE",
"82 322 QCURVE SMOOTH",
"82 330 OFFCURVE",
"82 346 OFFCURVE",
"83 354 QCURVE SMOOTH",
"84 375 OFFCURVE",
"107 429 OFFCURVE",
"141 487 OFFCURVE",
"180 544 OFFCURVE",
"213 591 OFFCURVE",
"235 626 OFFCURVE",
"235 633 QCURVE SMOOTH",
"235 646 OFFCURVE",
"214 661 OFFCURVE",
"203 665 QCURVE",
"203 679 LINE",
"1026 679 LINE",
"1026 456 LINE",
"1010 456 LINE",
"1000 473 OFFCURVE",
"970 494 OFFCURVE",
"950 494 QCURVE SMOOTH",
"689 494 LINE",
"689 401 LINE"
);
},
{
nodes = (
"347 415 LINE",
"335 398 OFFCURVE",
"320 372 OFFCURVE",
"312 348 OFFCURVE",
"310 323 OFFCURVE",
"310 308 QCURVE",
"458 308 LINE",
"458 555 LINE"
);
}
);
width = 1067;
}
);
unicode = 00C6;
},
{
glyphname = multiply;
layers = (
{
layerId = "2063BA69-310B-4872-9248-C1144A07CAA9";
paths = (
{
nodes = (
"382 609 LINE",
"501 490 LINE",
"382 371 LINE",
"501 252 LINE",
"383 134 LINE",
"264 253 LINE",
"144 134 LINE",
"26 252 LINE",
"145 371 LINE",
"26 490 LINE",
"145 609 LINE",
"264 490 LINE"
);
}
);
width = 540;
}
);
unicode = 00D7;
},
{
glyphname = divide;
layers = (
{
layerId = "2063BA69-310B-4872-9248-C1144A07CAA9";
paths = (
{
nodes = (
"302 680 OFFCURVE",
"343 667 OFFCURVE",
"375 643 OFFCURVE",
"396 609 OFFCURVE",
"396 587 QCURVE SMOOTH",
"396 565 OFFCURVE",
"375 531 OFFCURVE",
"343 507 OFFCURVE",
"302 495 OFFCURVE",
"283 495 QCURVE SMOOTH",
"263 495 OFFCURVE",
"223 507 OFFCURVE",
"190 531 OFFCURVE",
"169 565 OFFCURVE",
"169 587 QCURVE SMOOTH",
"169 609 OFFCURVE",
"190 644 OFFCURVE",
"223 668 OFFCURVE",
"263 680 OFFCURVE",
"283 680 QCURVE SMOOTH"
);
},
{
nodes = (
"27 432 LINE",
"531 432 LINE",
"531 264 LINE",
"27 264 LINE"
);
},
{
nodes = (
"302 185 OFFCURVE",
"343 172 OFFCURVE",
"375 148 OFFCURVE",
"396 114 OFFCURVE",
"396 92 QCURVE SMOOTH",
"396 70 OFFCURVE",
"375 36 OFFCURVE",
"343 12 OFFCURVE",
"302 0 OFFCURVE",
"283 0 QCURVE SMOOTH",
"263 0 OFFCURVE",
"223 12 OFFCURVE",
"190 36 OFFCURVE",
"169 70 OFFCURVE",
"169 92 QCURVE SMOOTH",
"169 114 OFFCURVE",
"190 149 OFFCURVE",
"223 173 OFFCURVE",
"263 185 OFFCURVE",
"283 185 QCURVE SMOOTH"
);
}
);
width = 573;
}
);
unicode = 00F7;
},
{
glyphname = Oslash;
layers = (
{
layerId = "2063BA69-310B-4872-9248-C1144A07CAA9";
paths = (
{
nodes = (
"635 752 LINE",
"583 669 LINE",
"588 667 OFFCURVE",
"596 664 OFFCURVE",
"601 662 QCURVE SMOOTH",
"624 653 OFFCURVE",
"654 616 OFFCURVE",
"654 586 QCURVE SMOOTH",
"654 92 LINE SMOOTH",
"654 62 OFFCURVE",
"624 25 OFFCURVE",
"579 6 OFFCURVE",
"526 0 OFFCURVE",
"502 0 QCURVE SMOOTH",
"199 0 LINE SMOOTH",
"192 0 OFFCURVE",
"178 0 OFFCURVE",
"171 1 QCURVE",
"118 -86 LINE",
"34 -86 LINE",
"97 16 LINE",
"75 27 OFFCURVE",
"62 43 QCURVE",
"48 63 OFFCURVE",
"48 92 QCURVE SMOOTH",
"48 586 LINE SMOOTH",
"48 616 OFFCURVE",
"77 653 OFFCURVE",
"122 672 OFFCURVE",
"175 678 OFFCURVE",
"199 678 QCURVE SMOOTH",
"505 678 LINE",
"551 752 LINE"
);
},
{
nodes = (
"275 305 LINE",
"391 493 LINE",
"275 493 LINE"
);
},
{
nodes = (
"426 185 LINE",
"426 413 LINE",
"285 185 LINE"
);
}
);
width = 700;
}
);
unicode = 00D8;
},
{
glyphname = oslash;
layers = (
{
layerId = "2063BA69-310B-4872-9248-C1144A07CAA9";
paths = (
{
nodes = (
"635 752 LINE",
"583 669 LINE",
"588 667 OFFCURVE",
"596 664 OFFCURVE",
"601 662 QCURVE SMOOTH",
"624 653 OFFCURVE",
"654 616 OFFCURVE",
"654 586 QCURVE SMOOTH",
"654 92 LINE SMOOTH",
"654 62 OFFCURVE",
"624 25 OFFCURVE",
"579 6 OFFCURVE",
"526 0 OFFCURVE",
"502 0 QCURVE SMOOTH",
"199 0 LINE SMOOTH",
"192 0 OFFCURVE",
"178 0 OFFCURVE",
"171 1 QCURVE",
"118 -86 LINE",
"34 -86 LINE",
"97 16 LINE",
"75 27 OFFCURVE",
"62 43 QCURVE",
"48 63 OFFCURVE",
"48 92 QCURVE SMOOTH",
"48 586 LINE SMOOTH",
"48 616 OFFCURVE",
"77 653 OFFCURVE",
"122 672 OFFCURVE",
"175 678 OFFCURVE",
"199 678 QCURVE SMOOTH",
"505 678 LINE",
"551 752 LINE"
);
},
{
nodes = (
"275 305 LINE",
"391 493 LINE",
"275 493 LINE"
);
},
{
nodes = (
"426 185 LINE",
"426 413 LINE",
"285 185 LINE"
);
}
);
width = 700;
}
);
unicode = 00F8;
},
{
glyphname = Thorn;
layers = (
{
layerId = "2063BA69-310B-4872-9248-C1144A07CAA9";
paths = (
{
nodes = (
"233 772 LINE",
"233 593 LINE",
"422 593 LINE SMOOTH",
"446 593 OFFCURVE",
"499 587 OFFCURVE",
"544 568 OFFCURVE",
"574 531 OFFCURVE",
"574 501 QCURVE SMOOTH",
"574 191 LINE SMOOTH",
"574 161 OFFCURVE",
"544 124 OFFCURVE",
"499 105 OFFCURVE",
"446 99 OFFCURVE",
"422 99 QCURVE SMOOTH",
"233 99 LINE",
"233 -91 LINE",
"51 -91 LINE",
"51 772 LINE"
);
},
{
nodes = (
"399 284 LINE",
"399 408 LINE",
"233 408 LINE",
"233 284 LINE"
);
}
);
width = 604;
}
);
unicode = 00DE;
},
{
glyphname = thorn;
layers = (
{
layerId = "2063BA69-310B-4872-9248-C1144A07CAA9";
paths = (
{
nodes = (
"233 772 LINE",
"233 593 LINE",
"422 593 LINE SMOOTH",
"446 593 OFFCURVE",
"499 587 OFFCURVE",
"544 568 OFFCURVE",
"574 531 OFFCURVE",
"574 501 QCURVE SMOOTH",
"574 191 LINE SMOOTH",
"574 161 OFFCURVE",
"544 124 OFFCURVE",
"499 105 OFFCURVE",
"446 99 OFFCURVE",
"422 99 QCURVE SMOOTH",
"233 99 LINE",
"233 -91 LINE",
"51 -91 LINE",
"51 772 LINE"
);
},
{
nodes = (
"399 284 LINE",
"399 408 LINE",
"233 408 LINE",
"233 284 LINE"
);
}
);
width = 604;
}
);
unicode = 00FE;
},
{
glyphname = ydieresis;
layers = (
{
layerId = "2063BA69-310B-4872-9248-C1144A07CAA9";
paths = (
{
nodes = (
"234 870 OFFCURVE",
"270 858 OFFCURVE",
"299 837 OFFCURVE",
"318 806 OFFCURVE",
"318 787 QCURVE SMOOTH",
"318 768 OFFCURVE",
"299 738 OFFCURVE",
"270 717 OFFCURVE",
"234 706 OFFCURVE",
"217 706 QCURVE SMOOTH",
"199 706 OFFCURVE",
"163 717 OFFCURVE",
"134 738 OFFCURVE",
"115 768 OFFCURVE",
"115 787 QCURVE SMOOTH",
"115 807 OFFCURVE",
"134 838 OFFCURVE",
"163 859 OFFCURVE",
"199 870 OFFCURVE",
"217 870 QCURVE SMOOTH"
);
},
{
nodes = (
"490 870 OFFCURVE",
"526 858 OFFCURVE",
"555 837 OFFCURVE",
"573 806 OFFCURVE",
"573 787 QCURVE SMOOTH",
"573 768 OFFCURVE",
"555 738 OFFCURVE",
"526 717 OFFCURVE",
"490 706 OFFCURVE",
"472 706 QCURVE SMOOTH",
"454 706 OFFCURVE",
"418 717 OFFCURVE",
"389 738 OFFCURVE",
"370 768 OFFCURVE",
"370 787 QCURVE SMOOTH",
"370 807 OFFCURVE",
"389 838 OFFCURVE",
"418 859 OFFCURVE",
"454 870 OFFCURVE",
"472 870 QCURVE SMOOTH"
);
},
{
nodes = (
"452 278 LINE",
"452 62 LINE SMOOTH",
"452 42 OFFCURVE",
"481 19 OFFCURVE",
"498 13 QCURVE",
"498 0 LINE",
"178 0 LINE",
"178 13 LINE",
"194 19 OFFCURVE",
"225 42 OFFCURVE",
"225 62 QCURVE SMOOTH",
"225 278 LINE",
"172 278 LINE SMOOTH",
"133 278 OFFCURVE",
"87 308 OFFCURVE",
"63 355 OFFCURVE",
"56 410 OFFCURVE",
"56 436 QCURVE SMOOTH",
"56 443 OFFCURVE",
"58 492 OFFCURVE",
"58 525 QCURVE SMOOTH",
"58 617 LINE SMOOTH",
"58 637 OFFCURVE",
"29 660 OFFCURVE",
"12 666 QCURVE",
"12 679 LINE",
"331 679 LINE",
"331 666 LINE",
"315 660 OFFCURVE",
"285 637 OFFCURVE",
"285 617 QCURVE SMOOTH",
"285 401 LINE",
"401 401 LINE",
"401 617 LINE SMOOTH",
"401 637 OFFCURVE",
"371 660 OFFCURVE",
"355 666 QCURVE",
"355 679 LINE",
"674 679 LINE",
"674 666 LINE",
"657 660 OFFCURVE",
"628 637 OFFCURVE",
"628 617 QCURVE SMOOTH",
"628 525 LINE SMOOTH",
"628 492 OFFCURVE",
"630 443 OFFCURVE",
"630 436 QCURVE SMOOTH",
"630 410 OFFCURVE",
"623 355 OFFCURVE",
"599 308 OFFCURVE",
"553 278 OFFCURVE",
"514 278 QCURVE SMOOTH"
);
}
);
width = 688;
}
);
unicode = 00FF;
},
{
glyphname = germandbls;
layers = (
{
layerId = "2063BA69-310B-4872-9248-C1144A07CAA9";
paths = (
{
nodes = (
"431 401 LINE",
"431 494 LINE",
"286 494 LINE",
"286 0 LINE",
"12 0 LINE",
"12 13 LINE",
"28 18 OFFCURVE",
"58 41 OFFCURVE",
"58 61 QCURVE SMOOTH",
"58 586 LINE SMOOTH",
"58 616 OFFCURVE",
"88 653 OFFCURVE",
"133 673 OFFCURVE",
"186 679 OFFCURVE",
"210 679 QCURVE SMOOTH",
"507 679 LINE SMOOTH",
"531 679 OFFCURVE",
"584 673 OFFCURVE",
"629 653 OFFCURVE",
"658 616 OFFCURVE",
"658 586 QCURVE SMOOTH",
"658 432 LINE SMOOTH",
"658 393 OFFCURVE",
"620 351 OFFCURVE",
"589 343 QCURVE SMOOTH",
"581 341 OFFCURVE",
"567 340 OFFCURVE",
"560 339 QCURVE",
"567 338 OFFCURVE",
"581 336 OFFCURVE",
"589 334 QCURVE SMOOTH",
"620 328 OFFCURVE",
"658 286 OFFCURVE",
"658 247 QCURVE SMOOTH",
"658 92 LINE SMOOTH",
"658 62 OFFCURVE",
"628 25 OFFCURVE",
"583 6 OFFCURVE",
"530 0 OFFCURVE",
"507 0 QCURVE SMOOTH",
"321 0 LINE",
"321 185 LINE",
"431 185 LINE",
"431 278 LINE",
"320 278 LINE",
"320 401 LINE"
);
}
);
width = 696;
}
);
unicode = 00DF;
},
{
glyphname = wdieresis;
layers = (
{
layerId = "2063BA69-310B-4872-9248-C1144A07CAA9";
paths = (
{
nodes = (
"1084 679 LINE",
"1084 666 LINE",
"1051 652 OFFCURVE",
"1037 620 OFFCURVE",
"1037 603 QCURVE SMOOTH",
"1037 599 OFFCURVE",
"1038 578 OFFCURVE",
"1038 556 QCURVE SMOOTH",
"1038 326 LINE SMOOTH",
"1038 277 OFFCURVE",
"1010 236 QCURVE SMOOTH",
"1006 229 OFFCURVE",
"984 199 OFFCURVE",
"956 159 OFFCURVE",
"926 116 OFFCURVE",
"902 78 OFFCURVE",
"886 49 OFFCURVE",
"886 45 QCURVE SMOOTH",
"886 32 OFFCURVE",
"908 17 OFFCURVE",
"919 13 QCURVE",
"919 0 LINE",
"552 0 LINE",
"552 13 LINE",
"563 17 OFFCURVE",
"585 32 OFFCURVE",
"585 45 QCURVE SMOOTH",
"585 51 OFFCURVE",
"576 70 OFFCURVE",
"563 89 OFFCURVE",
"550 106 OFFCURVE",
"546 111 QCURVE",
"542 106 OFFCURVE",
"529 89 OFFCURVE",
"516 70 OFFCURVE",
"507 51 OFFCURVE",
"507 45 QCURVE SMOOTH",
"507 32 OFFCURVE",
"529 17 OFFCURVE",
"540 13 QCURVE",
"540 0 LINE",
"174 0 LINE",
"174 13 LINE",
"184 17 OFFCURVE",
"207 32 OFFCURVE",
"207 45 QCURVE SMOOTH",
"207 49 OFFCURVE",
"191 77 OFFCURVE",
"166 115 OFFCURVE",
"136 158 OFFCURVE",
"108 198 OFFCURVE",
"87 229 OFFCURVE",
"83 236 QCURVE SMOOTH",
"69 257 OFFCURVE",
"54 300 OFFCURVE",
"54 326 QCURVE SMOOTH",
"54 556 LINE SMOOTH",
"54 578 OFFCURVE",
"55 599 OFFCURVE",
"55 603 QCURVE SMOOTH",
"55 620 OFFCURVE",
"41 652 OFFCURVE",
"8 666 QCURVE",
"8 679 LINE",
"327 679 LINE",
"327 666 LINE",
"310 660 OFFCURVE",
"281 637 OFFCURVE",
"281 617 QCURVE SMOOTH",
"281 357 LINE SMOOTH",
"281 334 OFFCURVE",
"295 292 OFFCURVE",
"317 253 OFFCURVE",
"344 216 OFFCURVE",
"357 198 QCURVE",
"370 216 OFFCURVE",
"396 253 OFFCURVE",
"418 292 OFFCURVE",
"432 333 OFFCURVE",
"432 357 QCURVE SMOOTH",
"432 617 LINE SMOOTH",
"432 637 OFFCURVE",
"403 659 OFFCURVE",
"387 666 QCURVE",
"387 679 LINE",
"706 679 LINE",
"706 666 LINE",
"689 660 OFFCURVE",
"660 637 OFFCURVE",
"660 617 QCURVE SMOOTH",
"660 357 LINE SMOOTH",
"660 333 OFFCURVE",
"674 291 OFFCURVE",
"696 253 OFFCURVE",
"722 217 OFFCURVE",
"735 198 QCURVE",
"748 217 OFFCURVE",
"775 254 OFFCURVE",
"797 292 OFFCURVE",
"811 333 OFFCURVE",
"811 357 QCURVE SMOOTH",
"811 617 LINE SMOOTH",
"811 637 OFFCURVE",
"782 660 OFFCURVE",
"765 666 QCURVE",
"765 679 LINE"
);
},
{
nodes = (
"435 870 OFFCURVE",
"471 858 OFFCURVE",
"500 837 OFFCURVE",
"519 806 OFFCURVE",
"519 787 QCURVE SMOOTH",
"519 768 OFFCURVE",
"500 738 OFFCURVE",
"471 717 OFFCURVE",
"435 706 OFFCURVE",
"418 706 QCURVE SMOOTH",
"400 706 OFFCURVE",
"364 717 OFFCURVE",
"335 738 OFFCURVE",
"316 768 OFFCURVE",
"316 787 QCURVE SMOOTH",
"316 807 OFFCURVE",
"335 838 OFFCURVE",
"364 859 OFFCURVE",
"400 870 OFFCURVE",
"418 870 QCURVE SMOOTH"
);
},
{
nodes = (
"691 870 OFFCURVE",
"727 858 OFFCURVE",
"756 837 OFFCURVE",
"774 806 OFFCURVE",
"774 787 QCURVE SMOOTH",
"774 768 OFFCURVE",
"756 738 OFFCURVE",
"727 717 OFFCURVE",
"691 706 OFFCURVE",
"673 706 QCURVE SMOOTH",
"655 706 OFFCURVE",
"619 717 OFFCURVE",
"590 738 OFFCURVE",
"571 768 OFFCURVE",
"571 787 QCURVE SMOOTH",
"571 807 OFFCURVE",
"590 838 OFFCURVE",
"619 859 OFFCURVE",
"655 870 OFFCURVE",
"673 870 QCURVE SMOOTH"
);
}
);
width = 1091;
}
);
unicode = 1E85;
},
{
glyphname = Wdieresis;
layers = (
{
layerId = "2063BA69-310B-4872-9248-C1144A07CAA9";
paths = (
{
nodes = (
"1084 679 LINE",
"1084 666 LINE",
"1051 652 OFFCURVE",
"1037 620 OFFCURVE",
"1037 603 QCURVE SMOOTH",
"1037 599 OFFCURVE",
"1038 578 OFFCURVE",
"1038 556 QCURVE SMOOTH",
"1038 326 LINE SMOOTH",
"1038 277 OFFCURVE",
"1010 236 QCURVE SMOOTH",
"1006 229 OFFCURVE",
"984 199 OFFCURVE",
"956 159 OFFCURVE",
"926 116 OFFCURVE",
"902 78 OFFCURVE",
"886 49 OFFCURVE",
"886 45 QCURVE SMOOTH",
"886 32 OFFCURVE",
"908 17 OFFCURVE",
"919 13 QCURVE",
"919 0 LINE",
"552 0 LINE",
"552 13 LINE",
"563 17 OFFCURVE",
"585 32 OFFCURVE",
"585 45 QCURVE SMOOTH",
"585 51 OFFCURVE",
"576 70 OFFCURVE",
"563 89 OFFCURVE",
"550 106 OFFCURVE",
"546 111 QCURVE",
"542 106 OFFCURVE",
"529 89 OFFCURVE",
"516 70 OFFCURVE",
"507 51 OFFCURVE",
"507 45 QCURVE SMOOTH",
"507 32 OFFCURVE",
"529 17 OFFCURVE",
"540 13 QCURVE",
"540 0 LINE",
"174 0 LINE",
"174 13 LINE",
"184 17 OFFCURVE",
"207 32 OFFCURVE",
"207 45 QCURVE SMOOTH",
"207 49 OFFCURVE",
"191 77 OFFCURVE",
"166 115 OFFCURVE",
"136 158 OFFCURVE",
"108 198 OFFCURVE",
"87 229 OFFCURVE",
"83 236 QCURVE SMOOTH",
"69 257 OFFCURVE",
"54 300 OFFCURVE",
"54 326 QCURVE SMOOTH",
"54 556 LINE SMOOTH",
"54 578 OFFCURVE",
"55 599 OFFCURVE",
"55 603 QCURVE SMOOTH",
"55 620 OFFCURVE",
"41 652 OFFCURVE",
"8 666 QCURVE",
"8 679 LINE",
"327 679 LINE",
"327 666 LINE",
"310 660 OFFCURVE",
"281 637 OFFCURVE",
"281 617 QCURVE SMOOTH",
"281 357 LINE SMOOTH",
"281 334 OFFCURVE",
"295 292 OFFCURVE",
"317 253 OFFCURVE",
"344 216 OFFCURVE",
"357 198 QCURVE",
"370 216 OFFCURVE",
"396 253 OFFCURVE",
"418 292 OFFCURVE",
"432 333 OFFCURVE",
"432 357 QCURVE SMOOTH",
"432 617 LINE SMOOTH",
"432 637 OFFCURVE",
"403 659 OFFCURVE",
"387 666 QCURVE",
"387 679 LINE",
"706 679 LINE",
"706 666 LINE",
"689 660 OFFCURVE",
"660 637 OFFCURVE",
"660 617 QCURVE SMOOTH",
"660 357 LINE SMOOTH",
"660 333 OFFCURVE",
"674 291 OFFCURVE",
"696 253 OFFCURVE",
"722 217 OFFCURVE",
"735 198 QCURVE",
"748 217 OFFCURVE",
"775 254 OFFCURVE",
"797 292 OFFCURVE",
"811 333 OFFCURVE",
"811 357 QCURVE SMOOTH",
"811 617 LINE SMOOTH",
"811 637 OFFCURVE",
"782 660 OFFCURVE",
"765 666 QCURVE",
"765 679 LINE"
);
},
{
nodes = (
"435 870 OFFCURVE",
"471 858 OFFCURVE",
"500 837 OFFCURVE",
"519 806 OFFCURVE",
"519 787 QCURVE SMOOTH",
"519 768 OFFCURVE",
"500 738 OFFCURVE",
"471 717 OFFCURVE",
"435 706 OFFCURVE",
"418 706 QCURVE SMOOTH",
"400 706 OFFCURVE",
"364 717 OFFCURVE",
"335 738 OFFCURVE",
"316 768 OFFCURVE",
"316 787 QCURVE SMOOTH",
"316 807 OFFCURVE",
"335 838 OFFCURVE",
"364 859 OFFCURVE",
"400 870 OFFCURVE",
"418 870 QCURVE SMOOTH"
);
},
{
nodes = (
"691 870 OFFCURVE",
"727 858 OFFCURVE",
"756 837 OFFCURVE",
"774 806 OFFCURVE",
"774 787 QCURVE SMOOTH",
"774 768 OFFCURVE",
"756 738 OFFCURVE",
"727 717 OFFCURVE",
"691 706 OFFCURVE",
"673 706 QCURVE SMOOTH",
"655 706 OFFCURVE",
"619 717 OFFCURVE",
"590 738 OFFCURVE",
"571 768 OFFCURVE",
"571 787 QCURVE SMOOTH",
"571 807 OFFCURVE",
"590 838 OFFCURVE",
"619 859 OFFCURVE",
"655 870 OFFCURVE",
"673 870 QCURVE SMOOTH"
);
}
);
width = 1091;
}
);
unicode = 1E84;
},
{
glyphname = Wgrave;
layers = (
{
layerId = "2063BA69-310B-4872-9248-C1144A07CAA9";
paths = (
{
nodes = (
"360 884 LINE",
"538 884 LINE",
"646 716 LINE",
"463 716 LINE"
);
},
{
nodes = (
"1084 679 LINE",
"1084 666 LINE",
"1051 652 OFFCURVE",
"1037 620 OFFCURVE",
"1037 603 QCURVE SMOOTH",
"1037 599 OFFCURVE",
"1038 578 OFFCURVE",
"1038 556 QCURVE SMOOTH",
"1038 326 LINE SMOOTH",
"1038 277 OFFCURVE",
"1010 236 QCURVE SMOOTH",
"1006 229 OFFCURVE",
"984 199 OFFCURVE",
"956 159 OFFCURVE",
"926 116 OFFCURVE",
"902 78 OFFCURVE",
"886 49 OFFCURVE",
"886 45 QCURVE SMOOTH",
"886 32 OFFCURVE",
"908 17 OFFCURVE",
"919 13 QCURVE",
"919 0 LINE",
"552 0 LINE",
"552 13 LINE",
"563 17 OFFCURVE",
"585 32 OFFCURVE",
"585 45 QCURVE SMOOTH",
"585 51 OFFCURVE",
"576 70 OFFCURVE",
"563 89 OFFCURVE",
"550 106 OFFCURVE",
"546 111 QCURVE",
"542 106 OFFCURVE",
"529 89 OFFCURVE",
"516 70 OFFCURVE",
"507 51 OFFCURVE",
"507 45 QCURVE SMOOTH",
"507 32 OFFCURVE",
"529 17 OFFCURVE",
"540 13 QCURVE",
"540 0 LINE",
"174 0 LINE",
"174 13 LINE",
"184 17 OFFCURVE",
"207 32 OFFCURVE",
"207 45 QCURVE SMOOTH",
"207 49 OFFCURVE",
"191 77 OFFCURVE",
"166 115 OFFCURVE",
"136 158 OFFCURVE",
"108 198 OFFCURVE",
"87 229 OFFCURVE",
"83 236 QCURVE SMOOTH",
"69 257 OFFCURVE",
"54 300 OFFCURVE",
"54 326 QCURVE SMOOTH",
"54 556 LINE SMOOTH",
"54 578 OFFCURVE",
"55 599 OFFCURVE",
"55 603 QCURVE SMOOTH",
"55 620 OFFCURVE",
"41 652 OFFCURVE",
"8 666 QCURVE",
"8 679 LINE",
"327 679 LINE",
"327 666 LINE",
"310 660 OFFCURVE",
"281 637 OFFCURVE",
"281 617 QCURVE SMOOTH",
"281 357 LINE SMOOTH",
"281 334 OFFCURVE",
"295 292 OFFCURVE",
"317 253 OFFCURVE",
"344 216 OFFCURVE",
"357 198 QCURVE",
"370 216 OFFCURVE",
"396 253 OFFCURVE",
"418 292 OFFCURVE",
"432 333 OFFCURVE",
"432 357 QCURVE SMOOTH",
"432 617 LINE SMOOTH",
"432 637 OFFCURVE",
"403 659 OFFCURVE",
"387 666 QCURVE",
"387 679 LINE",
"706 679 LINE",
"706 666 LINE",
"689 660 OFFCURVE",
"660 637 OFFCURVE",
"660 617 QCURVE SMOOTH",
"660 357 LINE SMOOTH",
"660 333 OFFCURVE",
"674 291 OFFCURVE",
"696 253 OFFCURVE",
"722 217 OFFCURVE",
"735 198 QCURVE",
"748 217 OFFCURVE",
"775 254 OFFCURVE",
"797 292 OFFCURVE",
"811 333 OFFCURVE",
"811 357 QCURVE SMOOTH",
"811 617 LINE SMOOTH",
"811 637 OFFCURVE",
"782 660 OFFCURVE",
"765 666 QCURVE",
"765 679 LINE"
);
}
);
width = 1091;
}
);
unicode = 1E80;
},
{
glyphname = wgrave;
layers = (
{
layerId = "2063BA69-310B-4872-9248-C1144A07CAA9";
paths = (
{
nodes = (
"360 884 LINE",
"538 884 LINE",
"646 716 LINE",
"463 716 LINE"
);
},
{
nodes = (
"1084 679 LINE",
"1084 666 LINE",
"1051 652 OFFCURVE",
"1037 620 OFFCURVE",
"1037 603 QCURVE SMOOTH",
"1037 599 OFFCURVE",
"1038 578 OFFCURVE",
"1038 556 QCURVE SMOOTH",
"1038 326 LINE SMOOTH",
"1038 277 OFFCURVE",
"1010 236 QCURVE SMOOTH",
"1006 229 OFFCURVE",
"984 199 OFFCURVE",
"956 159 OFFCURVE",
"926 116 OFFCURVE",
"902 78 OFFCURVE",
"886 49 OFFCURVE",
"886 45 QCURVE SMOOTH",
"886 32 OFFCURVE",
"908 17 OFFCURVE",
"919 13 QCURVE",
"919 0 LINE",
"552 0 LINE",
"552 13 LINE",
"563 17 OFFCURVE",
"585 32 OFFCURVE",
"585 45 QCURVE SMOOTH",
"585 51 OFFCURVE",
"576 70 OFFCURVE",
"563 89 OFFCURVE",
"550 106 OFFCURVE",
"546 111 QCURVE",
"542 106 OFFCURVE",
"529 89 OFFCURVE",
"516 70 OFFCURVE",
"507 51 OFFCURVE",
"507 45 QCURVE SMOOTH",
"507 32 OFFCURVE",
"529 17 OFFCURVE",
"540 13 QCURVE",
"540 0 LINE",
"174 0 LINE",
"174 13 LINE",
"184 17 OFFCURVE",
"207 32 OFFCURVE",
"207 45 QCURVE SMOOTH",
"207 49 OFFCURVE",
"191 77 OFFCURVE",
"166 115 OFFCURVE",
"136 158 OFFCURVE",
"108 198 OFFCURVE",
"87 229 OFFCURVE",
"83 236 QCURVE SMOOTH",
"69 257 OFFCURVE",
"54 300 OFFCURVE",
"54 326 QCURVE SMOOTH",
"54 556 LINE SMOOTH",
"54 578 OFFCURVE",
"55 599 OFFCURVE",
"55 603 QCURVE SMOOTH",
"55 620 OFFCURVE",
"41 652 OFFCURVE",
"8 666 QCURVE",
"8 679 LINE",
"327 679 LINE",
"327 666 LINE",
"310 660 OFFCURVE",
"281 637 OFFCURVE",
"281 617 QCURVE SMOOTH",
"281 357 LINE SMOOTH",
"281 334 OFFCURVE",
"295 292 OFFCURVE",
"317 253 OFFCURVE",
"344 216 OFFCURVE",
"357 198 QCURVE",
"370 216 OFFCURVE",
"396 253 OFFCURVE",
"418 292 OFFCURVE",
"432 333 OFFCURVE",
"432 357 QCURVE SMOOTH",
"432 617 LINE SMOOTH",
"432 637 OFFCURVE",
"403 659 OFFCURVE",
"387 666 QCURVE",
"387 679 LINE",
"706 679 LINE",
"706 666 LINE",
"689 660 OFFCURVE",
"660 637 OFFCURVE",
"660 617 QCURVE SMOOTH",
"660 357 LINE SMOOTH",
"660 333 OFFCURVE",
"674 291 OFFCURVE",
"696 253 OFFCURVE",
"722 217 OFFCURVE",
"735 198 QCURVE",
"748 217 OFFCURVE",
"775 254 OFFCURVE",
"797 292 OFFCURVE",
"811 333 OFFCURVE",
"811 357 QCURVE SMOOTH",
"811 617 LINE SMOOTH",
"811 637 OFFCURVE",
"782 660 OFFCURVE",
"765 666 QCURVE",
"765 679 LINE"
);
}
);
width = 1091;
}
);
unicode = 1E81;
},
{
glyphname = Wacute;
layers = (
{
layerId = "2063BA69-310B-4872-9248-C1144A07CAA9";
paths = (
{
nodes = (
"629 716 LINE",
"446 716 LINE",
"554 884 LINE",
"732 884 LINE"
);
},
{
nodes = (
"327 679 LINE",
"327 666 LINE",
"310 660 OFFCURVE",
"281 637 OFFCURVE",
"281 617 QCURVE SMOOTH",
"281 357 LINE SMOOTH",
"281 333 OFFCURVE",
"295 292 OFFCURVE",
"317 254 OFFCURVE",
"344 217 OFFCURVE",
"357 198 QCURVE",
"370 217 OFFCURVE",
"396 253 OFFCURVE",
"418 291 OFFCURVE",
"432 333 OFFCURVE",
"432 357 QCURVE SMOOTH",
"432 617 LINE SMOOTH",
"432 637 OFFCURVE",
"403 660 OFFCURVE",
"386 666 QCURVE",
"386 679 LINE",
"705 679 LINE",
"705 666 LINE",
"689 659 OFFCURVE",
"660 637 OFFCURVE",
"660 617 QCURVE SMOOTH",
"660 357 LINE SMOOTH",
"660 333 OFFCURVE",
"674 292 OFFCURVE",
"696 253 OFFCURVE",
"722 216 OFFCURVE",
"735 198 QCURVE",
"748 216 OFFCURVE",
"775 253 OFFCURVE",
"797 292 OFFCURVE",
"811 334 OFFCURVE",
"811 357 QCURVE SMOOTH",
"811 617 LINE SMOOTH",
"811 637 OFFCURVE",
"782 660 OFFCURVE",
"765 666 QCURVE",
"765 679 LINE",
"1084 679 LINE",
"1084 666 LINE",
"1051 652 OFFCURVE",
"1037 620 OFFCURVE",
"1037 603 QCURVE SMOOTH",
"1037 599 OFFCURVE",
"1038 578 OFFCURVE",
"1038 556 QCURVE SMOOTH",
"1038 326 LINE SMOOTH",
"1038 300 OFFCURVE",
"1023 257 OFFCURVE",
"1009 236 QCURVE SMOOTH",
"1005 229 OFFCURVE",
"984 198 OFFCURVE",
"956 158 OFFCURVE",
"926 115 OFFCURVE",
"901 77 OFFCURVE",
"885 49 OFFCURVE",
"885 45 QCURVE SMOOTH",
"885 32 OFFCURVE",
"908 17 OFFCURVE",
"918 13 QCURVE",
"918 0 LINE",
"552 0 LINE",
"552 13 LINE",
"563 17 OFFCURVE",
"585 32 OFFCURVE",
"585 45 QCURVE SMOOTH",
"585 51 OFFCURVE",
"576 70 OFFCURVE",
"563 89 OFFCURVE",
"550 106 OFFCURVE",
"546 111 QCURVE",
"542 106 OFFCURVE",
"529 89 OFFCURVE",
"516 70 OFFCURVE",
"507 51 OFFCURVE",
"507 45 QCURVE SMOOTH",
"507 32 OFFCURVE",
"529 17 OFFCURVE",
"540 13 QCURVE",
"540 0 LINE",
"173 0 LINE",
"173 13 LINE",
"184 17 OFFCURVE",
"206 32 OFFCURVE",
"206 45 QCURVE SMOOTH",
"206 49 OFFCURVE",
"190 78 OFFCURVE",
"166 116 OFFCURVE",
"136 159 OFFCURVE",
"108 199 OFFCURVE",
"86 229 OFFCURVE",
"82 236 QCURVE SMOOTH",
"54 277 OFFCURVE",
"54 326 QCURVE SMOOTH",
"54 556 LINE SMOOTH",
"54 578 OFFCURVE",
"55 599 OFFCURVE",
"55 603 QCURVE SMOOTH",
"55 620 OFFCURVE",
"41 652 OFFCURVE",
"8 666 QCURVE",
"8 679 LINE"
);
}
);
width = 1091;
}
);
unicode = 1E82;
},
{
glyphname = wacute;
layers = (
{
layerId = "2063BA69-310B-4872-9248-C1144A07CAA9";
paths = (
{
nodes = (
"629 716 LINE",
"446 716 LINE",
"554 884 LINE",
"732 884 LINE"
);
},
{
nodes = (
"327 679 LINE",
"327 666 LINE",
"310 660 OFFCURVE",
"281 637 OFFCURVE",
"281 617 QCURVE SMOOTH",
"281 357 LINE SMOOTH",
"281 333 OFFCURVE",
"295 292 OFFCURVE",
"317 254 OFFCURVE",
"344 217 OFFCURVE",
"357 198 QCURVE",
"370 217 OFFCURVE",
"396 253 OFFCURVE",
"418 291 OFFCURVE",
"432 333 OFFCURVE",
"432 357 QCURVE SMOOTH",
"432 617 LINE SMOOTH",
"432 637 OFFCURVE",
"403 660 OFFCURVE",
"386 666 QCURVE",
"386 679 LINE",
"705 679 LINE",
"705 666 LINE",
"689 659 OFFCURVE",
"660 637 OFFCURVE",
"660 617 QCURVE SMOOTH",
"660 357 LINE SMOOTH",
"660 333 OFFCURVE",
"674 292 OFFCURVE",
"696 253 OFFCURVE",
"722 216 OFFCURVE",
"735 198 QCURVE",
"748 216 OFFCURVE",
"775 253 OFFCURVE",
"797 292 OFFCURVE",
"811 334 OFFCURVE",
"811 357 QCURVE SMOOTH",
"811 617 LINE SMOOTH",
"811 637 OFFCURVE",
"782 660 OFFCURVE",
"765 666 QCURVE",
"765 679 LINE",
"1084 679 LINE",
"1084 666 LINE",
"1051 652 OFFCURVE",
"1037 620 OFFCURVE",
"1037 603 QCURVE SMOOTH",
"1037 599 OFFCURVE",
"1038 578 OFFCURVE",
"1038 556 QCURVE SMOOTH",
"1038 326 LINE SMOOTH",
"1038 300 OFFCURVE",
"1023 257 OFFCURVE",
"1009 236 QCURVE SMOOTH",
"1005 229 OFFCURVE",
"984 198 OFFCURVE",
"956 158 OFFCURVE",
"926 115 OFFCURVE",
"901 77 OFFCURVE",
"885 49 OFFCURVE",
"885 45 QCURVE SMOOTH",
"885 32 OFFCURVE",
"908 17 OFFCURVE",
"918 13 QCURVE",
"918 0 LINE",
"552 0 LINE",
"552 13 LINE",
"563 17 OFFCURVE",
"585 32 OFFCURVE",
"585 45 QCURVE SMOOTH",
"585 51 OFFCURVE",
"576 70 OFFCURVE",
"563 89 OFFCURVE",
"550 106 OFFCURVE",
"546 111 QCURVE",
"542 106 OFFCURVE",
"529 89 OFFCURVE",
"516 70 OFFCURVE",
"507 51 OFFCURVE",
"507 45 QCURVE SMOOTH",
"507 32 OFFCURVE",
"529 17 OFFCURVE",
"540 13 QCURVE",
"540 0 LINE",
"173 0 LINE",
"173 13 LINE",
"184 17 OFFCURVE",
"206 32 OFFCURVE",
"206 45 QCURVE SMOOTH",
"206 49 OFFCURVE",
"190 78 OFFCURVE",
"166 116 OFFCURVE",
"136 159 OFFCURVE",
"108 199 OFFCURVE",
"86 229 OFFCURVE",
"82 236 QCURVE SMOOTH",
"54 277 OFFCURVE",
"54 326 QCURVE SMOOTH",
"54 556 LINE SMOOTH",
"54 578 OFFCURVE",
"55 599 OFFCURVE",
"55 603 QCURVE SMOOTH",
"55 620 OFFCURVE",
"41 652 OFFCURVE",
"8 666 QCURVE",
"8 679 LINE"
);
}
);
width = 1091;
}
);
unicode = 1E83;
},
{
glyphname = bullet;
layers = (
{
layerId = "2063BA69-310B-4872-9248-C1144A07CAA9";
paths = (
{
nodes = (
"28 377 OFFCURVE",
"48 423 OFFCURVE",
"81 456 OFFCURVE",
"126 476 OFFCURVE",
"152 476 QCURVE SMOOTH",
"177 476 OFFCURVE",
"223 456 OFFCURVE",
"256 423 OFFCURVE",
"276 377 OFFCURVE",
"276 352 QCURVE SMOOTH",
"276 326 OFFCURVE",
"256 281 OFFCURVE",
"223 248 OFFCURVE",
"177 228 OFFCURVE",
"152 228 QCURVE SMOOTH",
"126 228 OFFCURVE",
"81 248 OFFCURVE",
"48 281 OFFCURVE",
"28 326 OFFCURVE",
"28 352 QCURVE SMOOTH"
);
}
);
width = 306;
}
);
unicode = 2022;
},
{
glyphname = ellipsis;
layers = (
{
layerId = "2063BA69-310B-4872-9248-C1144A07CAA9";
paths = (
{
nodes = (
"158 185 OFFCURVE",
"199 172 OFFCURVE",
"231 148 OFFCURVE",
"252 114 OFFCURVE",
"252 92 QCURVE SMOOTH",
"252 70 OFFCURVE",
"231 36 OFFCURVE",
"199 12 OFFCURVE",
"158 0 OFFCURVE",
"139 0 QCURVE SMOOTH",
"119 0 OFFCURVE",
"79 12 OFFCURVE",
"46 36 OFFCURVE",
"25 70 OFFCURVE",
"25 92 QCURVE SMOOTH",
"25 114 OFFCURVE",
"46 149 OFFCURVE",
"79 173 OFFCURVE",
"119 185 OFFCURVE",
"139 185 QCURVE SMOOTH"
);
},
{
nodes = (
"438 185 OFFCURVE",
"479 172 OFFCURVE",
"511 148 OFFCURVE",
"532 114 OFFCURVE",
"532 92 QCURVE SMOOTH",
"532 70 OFFCURVE",
"511 36 OFFCURVE",
"479 12 OFFCURVE",
"438 0 OFFCURVE",
"419 0 QCURVE SMOOTH",
"399 0 OFFCURVE",
"359 12 OFFCURVE",
"326 36 OFFCURVE",
"305 70 OFFCURVE",
"305 92 QCURVE SMOOTH",
"305 114 OFFCURVE",
"326 149 OFFCURVE",
"359 173 OFFCURVE",
"399 185 OFFCURVE",
"419 185 QCURVE SMOOTH"
);
},
{
nodes = (
"718 185 OFFCURVE",
"759 172 OFFCURVE",
"791 148 OFFCURVE",
"812 114 OFFCURVE",
"812 92 QCURVE SMOOTH",
"812 70 OFFCURVE",
"791 36 OFFCURVE",
"759 12 OFFCURVE",
"718 0 OFFCURVE",
"699 0 QCURVE SMOOTH",
"679 0 OFFCURVE",
"639 12 OFFCURVE",
"606 36 OFFCURVE",
"585 70 OFFCURVE",
"585 92 QCURVE SMOOTH",
"585 114 OFFCURVE",
"606 149 OFFCURVE",
"639 173 OFFCURVE",
"679 185 OFFCURVE",
"699 185 QCURVE SMOOTH"
);
}
);
width = 840;
}
);
unicode = 2026;
},
{
glyphname = breve;
layers = (
{
layerId = "2063BA69-310B-4872-9248-C1144A07CAA9";
paths = (
{
nodes = (
"495 884 LINE",
"490 846 OFFCURVE",
"456 780 OFFCURVE",
"404 732 OFFCURVE",
"338 704 OFFCURVE",
"301 704 QCURVE SMOOTH",
"263 704 OFFCURVE",
"197 732 OFFCURVE",
"146 780 OFFCURVE",
"112 846 OFFCURVE",
"107 884 QCURVE",
"215 884 LINE",
"223 855 OFFCURVE",
"270 817 OFFCURVE",
"301 817 QCURVE SMOOTH",
"332 817 OFFCURVE",
"378 855 OFFCURVE",
"387 884 QCURVE"
);
}
);
width = 602;
}
);
unicode = 02D8;
},
{
glyphname = dotaccent;
layers = (
{
layerId = "2063BA69-310B-4872-9248-C1144A07CAA9";
paths = (
{
nodes = (
"168 870 OFFCURVE",
"204 858 OFFCURVE",
"233 837 OFFCURVE",
"251 806 OFFCURVE",
"251 787 QCURVE SMOOTH",
"251 768 OFFCURVE",
"233 738 OFFCURVE",
"204 717 OFFCURVE",
"168 706 OFFCURVE",
"150 706 QCURVE SMOOTH",
"132 706 OFFCURVE",
"96 717 OFFCURVE",
"67 738 OFFCURVE",
"48 768 OFFCURVE",
"48 787 QCURVE SMOOTH",
"48 807 OFFCURVE",
"67 838 OFFCURVE",
"96 859 OFFCURVE",
"132 870 OFFCURVE",
"150 870 QCURVE SMOOTH"
);
}
);
width = 297;
}
);
unicode = 02D9;
},
{
glyphname = ring;
layers = (
{
layerId = "2063BA69-310B-4872-9248-C1144A07CAA9";
paths = (
{
nodes = (
"224 944 OFFCURVE",
"271 925 OFFCURVE",
"306 892 OFFCURVE",
"326 847 OFFCURVE",
"326 822 QCURVE SMOOTH",
"326 796 OFFCURVE",
"306 752 OFFCURVE",
"271 718 OFFCURVE",
"224 699 OFFCURVE",
"197 699 QCURVE SMOOTH",
"170 699 OFFCURVE",
"123 718 OFFCURVE",
"88 752 OFFCURVE",
"68 796 OFFCURVE",
"68 822 QCURVE SMOOTH",
"68 847 OFFCURVE",
"88 892 OFFCURVE",
"123 925 OFFCURVE",
"170 944 OFFCURVE",
"197 944 QCURVE SMOOTH"
);
},
{
nodes = (
"212 780 OFFCURVE",
"238 804 OFFCURVE",
"238 822 QCURVE SMOOTH",
"238 839 OFFCURVE",
"212 863 OFFCURVE",
"194 863 QCURVE SMOOTH",
"175 863 OFFCURVE",
"151 839 OFFCURVE",
"151 822 QCURVE SMOOTH",
"151 804 OFFCURVE",
"175 780 OFFCURVE",
"194 780 QCURVE SMOOTH"
);
}
);
width = 373;
}
);
unicode = 02DA;
},
{
glyphname = ogonek;
layers = (
{
layerId = "2063BA69-310B-4872-9248-C1144A07CAA9";
paths = (
{
nodes = (
"97 -82 LINE SMOOTH",
"97 -70 OFFCURVE",
"111 -55 OFFCURVE",
"131 -47 OFFCURVE",
"153 -44 OFFCURVE",
"161 -44 QCURVE SMOOTH",
"225 -44 LINE",
"225 0 LINE",
"329 0 LINE",
"329 -125 LINE",
"194 -125 LINE",
"194 -157 LINE",
"328 -157 LINE",
"328 -247 LINE",
"162 -247 LINE SMOOTH",
"152 -247 OFFCURVE",
"129 -245 OFFCURVE",
"110 -237 OFFCURVE",
"97 -222 OFFCURVE",
"97 -209 QCURVE SMOOTH"
);
}
);
width = 415;
}
);
unicode = 02DB;
},
{
glyphname = tilde;
layers = (
{
layerId = "2063BA69-310B-4872-9248-C1144A07CAA9";
paths = (
{
nodes = (
"505 830 LINE",
"504 828 OFFCURVE",
"487 798 OFFCURVE",
"471 780 QCURVE SMOOTH",
"451 757 OFFCURVE",
"429 741 QCURVE SMOOTH",
"399 720 OFFCURVE",
"364 712 QCURVE SMOOTH",
"349 708 OFFCURVE",
"332 708 QCURVE SMOOTH",
"322 708 OFFCURVE",
"304 711 OFFCURVE",
"294 713 QCURVE SMOOTH",
"258 720 OFFCURVE",
"222 747 QCURVE SMOOTH",
"211 755 OFFCURVE",
"202 757 OFFCURVE",
"200 757 QCURVE",
"198 757 OFFCURVE",
"197 756 QCURVE",
"181 751 OFFCURVE",
"166 733 QCURVE",
"156 723 OFFCURVE",
"152 716 QCURVE SMOOTH",
"150 714 OFFCURVE",
"148 710 OFFCURVE",
"147 708 QCURVE",
"34 771 LINE",
"35 773 OFFCURVE",
"52 801 OFFCURVE",
"67 819 QCURVE SMOOTH",
"76 830 OFFCURVE",
"96 848 OFFCURVE",
"107 856 QCURVE SMOOTH",
"140 880 OFFCURVE",
"168 884 QCURVE",
"181 888 OFFCURVE",
"202 888 QCURVE SMOOTH",
"208 888 OFFCURVE",
"225 888 OFFCURVE",
"249 883 OFFCURVE",
"279 869 OFFCURVE",
"299 854 QCURVE SMOOTH",
"315 841 OFFCURVE",
"327 840 OFFCURVE",
"329 840 QCURVE",
"335 840 OFFCURVE",
"336 841 QCURVE",
"353 844 OFFCURVE",
"374 868 QCURVE SMOOTH",
"377 872 OFFCURVE",
"383 880 OFFCURVE",
"386 885 QCURVE SMOOTH",
"388 887 OFFCURVE",
"390 891 OFFCURVE",
"391 893 QCURVE",
"448 860 LINE"
);
}
);
width = 531;
}
);
unicode = 02DC;
},
{
glyphname = hungarumlaut;
layers = (
{
layerId = "2063BA69-310B-4872-9248-C1144A07CAA9";
paths = (
{
nodes = (
"265 716 LINE",
"82 716 LINE",
"190 884 LINE",
"368 884 LINE"
);
},
{
nodes = (
"531 716 LINE",
"348 716 LINE",
"456 884 LINE",
"634 884 LINE"
);
}
);
width = 687;
}
);
unicode = 02DD;
},
{
glyphname = acutecomb;
layers = (
{
layerId = "2063BA69-310B-4872-9248-C1144A07CAA9";
paths = (
{
nodes = (
"287 716 LINE",
"104 716 LINE",
"212 884 LINE",
"390 884 LINE"
);
}
);
width = 456;
}
);
unicode = 0301;
},
{
glyphname = amacron;
layers = (
{
layerId = "2063BA69-310B-4872-9248-C1144A07CAA9";
paths = (
{
nodes = (
"545 665 LINE",
"534 661 OFFCURVE",
"512 646 OFFCURVE",
"512 633 QCURVE SMOOTH",
"512 626 OFFCURVE",
"535 591 OFFCURVE",
"569 542 OFFCURVE",
"608 484 OFFCURVE",
"642 427 OFFCURVE",
"665 374 OFFCURVE",
"665 354 QCURVE SMOOTH",
"665 61 LINE SMOOTH",
"665 41 OFFCURVE",
"695 19 OFFCURVE",
"711 13 QCURVE",
"711 0 LINE",
"391 0 LINE",
"391 13 LINE",
"407 19 OFFCURVE",
"437 41 OFFCURVE",
"437 61 QCURVE SMOOTH",
"437 185 LINE",
"286 185 LINE",
"286 61 LINE SMOOTH",
"286 41 OFFCURVE",
"316 19 OFFCURVE",
"332 13 QCURVE",
"332 0 LINE",
"13 0 LINE",
"13 13 LINE",
"28 19 OFFCURVE",
"59 42 OFFCURVE",
"59 61 QCURVE SMOOTH",
"59 256 LINE SMOOTH",
"59 281 OFFCURVE",
"58 314 OFFCURVE",
"58 322 QCURVE SMOOTH",
"58 330 OFFCURVE",
"58 346 OFFCURVE",
"59 354 QCURVE SMOOTH",
"60 375 OFFCURVE",
"83 429 OFFCURVE",
"117 487 OFFCURVE",
"156 544 OFFCURVE",
"189 591 OFFCURVE",
"211 626 OFFCURVE",
"211 633 QCURVE SMOOTH",
"211 646 OFFCURVE",
"190 661 OFFCURVE",
"179 665 QCURVE",
"179 679 LINE",
"545 679 LINE"
);
},
{
nodes = (
"437 308 LINE",
"437 322 LINE SMOOTH",
"437 347 OFFCURVE",
"423 388 OFFCURVE",
"401 425 OFFCURVE",
"375 461 OFFCURVE",
"362 481 QCURVE",
"346 458 OFFCURVE",
"318 421 OFFCURVE",
"298 382 OFFCURVE",
"286 338 OFFCURVE",
"286 308 QCURVE"
);
},
{
nodes = (
"203 851 LINE",
"519 851 LINE",
"519 713 LINE",
"203 713 LINE"
);
}
);
width = 722;
}
);
unicode = 0101;
},
{
glyphname = Amacron;
layers = (
{
layerId = "2063BA69-310B-4872-9248-C1144A07CAA9";
paths = (
{
nodes = (
"545 665 LINE",
"534 661 OFFCURVE",
"512 646 OFFCURVE",
"512 633 QCURVE SMOOTH",
"512 626 OFFCURVE",
"535 591 OFFCURVE",
"569 542 OFFCURVE",
"608 484 OFFCURVE",
"642 427 OFFCURVE",
"665 374 OFFCURVE",
"665 354 QCURVE SMOOTH",
"665 61 LINE SMOOTH",
"665 41 OFFCURVE",
"695 19 OFFCURVE",
"711 13 QCURVE",
"711 0 LINE",
"391 0 LINE",
"391 13 LINE",
"407 19 OFFCURVE",
"437 41 OFFCURVE",
"437 61 QCURVE SMOOTH",
"437 185 LINE",
"286 185 LINE",
"286 61 LINE SMOOTH",
"286 41 OFFCURVE",
"316 19 OFFCURVE",
"332 13 QCURVE",
"332 0 LINE",
"13 0 LINE",
"13 13 LINE",
"28 19 OFFCURVE",
"59 42 OFFCURVE",
"59 61 QCURVE SMOOTH",
"59 256 LINE SMOOTH",
"59 281 OFFCURVE",
"58 314 OFFCURVE",
"58 322 QCURVE SMOOTH",
"58 330 OFFCURVE",
"58 346 OFFCURVE",
"59 354 QCURVE SMOOTH",
"60 375 OFFCURVE",
"83 429 OFFCURVE",
"117 487 OFFCURVE",
"156 544 OFFCURVE",
"189 591 OFFCURVE",
"211 626 OFFCURVE",
"211 633 QCURVE SMOOTH",
"211 646 OFFCURVE",
"190 661 OFFCURVE",
"179 665 QCURVE",
"179 679 LINE",
"545 679 LINE"
);
},
{
nodes = (
"437 308 LINE",
"437 322 LINE SMOOTH",
"437 347 OFFCURVE",
"423 388 OFFCURVE",
"401 425 OFFCURVE",
"375 461 OFFCURVE",
"362 481 QCURVE",
"346 458 OFFCURVE",
"318 421 OFFCURVE",
"298 382 OFFCURVE",
"286 338 OFFCURVE",
"286 308 QCURVE"
);
},
{
nodes = (
"203 851 LINE",
"519 851 LINE",
"519 713 LINE",
"203 713 LINE"
);
}
);
width = 722;
}
);
unicode = 0100;
},
{
glyphname = hbar;
layers = (
{
layerId = "2063BA69-310B-4872-9248-C1144A07CAA9";
paths = (
{
nodes = (
"353 666 LINE",
"337 660 OFFCURVE",
"307 636 OFFCURVE",
"307 617 QCURVE SMOOTH",
"307 546 LINE",
"459 546 LINE",
"459 617 LINE SMOOTH",
"459 637 OFFCURVE",
"429 660 OFFCURVE",
"413 666 QCURVE",
"413 679 LINE",
"732 679 LINE",
"732 666 LINE",
"716 660 OFFCURVE",
"686 637 OFFCURVE",
"686 617 QCURVE SMOOTH",
"686 546 LINE",
"738 546 LINE",
"738 455 LINE",
"686 455 LINE",
"686 61 LINE SMOOTH",
"686 41 OFFCURVE",
"716 19 OFFCURVE",
"732 13 QCURVE",
"732 0 LINE",
"413 0 LINE",
"413 13 LINE",
"429 19 OFFCURVE",
"459 41 OFFCURVE",
"459 61 QCURVE SMOOTH",
"459 278 LINE",
"307 278 LINE",
"307 61 LINE SMOOTH",
"307 42 OFFCURVE",
"338 19 OFFCURVE",
"353 13 QCURVE",
"353 0 LINE",
"34 0 LINE",
"34 13 LINE",
"50 19 OFFCURVE",
"80 41 OFFCURVE",
"80 61 QCURVE SMOOTH",
"80 455 LINE",
"15 455 LINE",
"15 546 LINE",
"80 546 LINE",
"80 617 LINE SMOOTH",
"80 637 OFFCURVE",
"50 660 OFFCURVE",
"34 666 QCURVE",
"34 679 LINE",
"353 679 LINE"
);
},
{
nodes = (
"459 401 LINE",
"459 455 LINE",
"307 455 LINE",
"307 401 LINE"
);
}
);
width = 770;
}
);
unicode = 0127;
},
{
glyphname = Hbar;
layers = (
{
layerId = "2063BA69-310B-4872-9248-C1144A07CAA9";
paths = (
{
nodes = (
"353 666 LINE",
"337 660 OFFCURVE",
"307 636 OFFCURVE",
"307 617 QCURVE SMOOTH",
"307 546 LINE",
"459 546 LINE",
"459 617 LINE SMOOTH",
"459 637 OFFCURVE",
"429 660 OFFCURVE",
"413 666 QCURVE",
"413 679 LINE",
"732 679 LINE",
"732 666 LINE",
"716 660 OFFCURVE",
"686 637 OFFCURVE",
"686 617 QCURVE SMOOTH",
"686 546 LINE",
"738 546 LINE",
"738 455 LINE",
"686 455 LINE",
"686 61 LINE SMOOTH",
"686 41 OFFCURVE",
"716 19 OFFCURVE",
"732 13 QCURVE",
"732 0 LINE",
"413 0 LINE",
"413 13 LINE",
"429 19 OFFCURVE",
"459 41 OFFCURVE",
"459 61 QCURVE SMOOTH",
"459 278 LINE",
"307 278 LINE",
"307 61 LINE SMOOTH",
"307 42 OFFCURVE",
"338 19 OFFCURVE",
"353 13 QCURVE",
"353 0 LINE",
"34 0 LINE",
"34 13 LINE",
"50 19 OFFCURVE",
"80 41 OFFCURVE",
"80 61 QCURVE SMOOTH",
"80 455 LINE",
"15 455 LINE",
"15 546 LINE",
"80 546 LINE",
"80 617 LINE SMOOTH",
"80 637 OFFCURVE",
"50 660 OFFCURVE",
"34 666 QCURVE",
"34 679 LINE",
"353 679 LINE"
);
},
{
nodes = (
"459 401 LINE",
"459 455 LINE",
"307 455 LINE",
"307 401 LINE"
);
}
);
width = 770;
}
);
unicode = 0126;
},
{
glyphname = ccedilla;
layers = (
{
layerId = "2063BA69-310B-4872-9248-C1144A07CAA9";
paths = (
{
nodes = (
"618 247 LINE",
"618 93 LINE SMOOTH",
"618 63 OFFCURVE",
"589 26 OFFCURVE",
"544 6 OFFCURVE",
"491 0 OFFCURVE",
"467 0 QCURVE SMOOTH",
"203 0 LINE SMOOTH",
"179 0 OFFCURVE",
"126 6 OFFCURVE",
"81 26 OFFCURVE",
"52 63 OFFCURVE",
"52 93 QCURVE SMOOTH",
"52 586 LINE SMOOTH",
"52 616 OFFCURVE",
"81 653 OFFCURVE",
"126 673 OFFCURVE",
"179 679 OFFCURVE",
"203 679 QCURVE SMOOTH",
"467 679 LINE SMOOTH",
"491 679 OFFCURVE",
"544 673 OFFCURVE",
"589 653 OFFCURVE",
"618 616 OFFCURVE",
"618 586 QCURVE SMOOTH",
"618 432 LINE",
"354 432 LINE",
"354 445 LINE",
"371 451 OFFCURVE",
"400 474 OFFCURVE",
"400 494 QCURVE",
"279 494 LINE",
"279 185 LINE",
"400 185 LINE",
"400 205 OFFCURVE",
"371 228 OFFCURVE",
"354 234 QCURVE",
"354 247 LINE"
);
},
{
nodes = (
"451 -209 LINE SMOOTH",
"451 -222 OFFCURVE",
"438 -237 OFFCURVE",
"418 -245 OFFCURVE",
"396 -247 OFFCURVE",
"386 -247 QCURVE SMOOTH",
"220 -247 LINE",
"220 -157 LINE",
"354 -157 LINE",
"354 -125 LINE",
"219 -125 LINE",
"219 0 LINE",
"323 0 LINE",
"323 -44 LINE",
"387 -44 LINE SMOOTH",
"395 -44 OFFCURVE",
"417 -47 OFFCURVE",
"437 -55 OFFCURVE",
"451 -70 OFFCURVE",
"451 -82 QCURVE SMOOTH"
);
}
);
width = 670;
}
);
unicode = 00E7;
},
{
glyphname = Ccedilla;
layers = (
{
layerId = "2063BA69-310B-4872-9248-C1144A07CAA9";
paths = (
{
nodes = (
"618 247 LINE",
"618 93 LINE SMOOTH",
"618 63 OFFCURVE",
"589 26 OFFCURVE",
"544 6 OFFCURVE",
"491 0 OFFCURVE",
"467 0 QCURVE SMOOTH",
"203 0 LINE SMOOTH",
"179 0 OFFCURVE",
"126 6 OFFCURVE",
"81 26 OFFCURVE",
"52 63 OFFCURVE",
"52 93 QCURVE SMOOTH",
"52 586 LINE SMOOTH",
"52 616 OFFCURVE",
"81 653 OFFCURVE",
"126 673 OFFCURVE",
"179 679 OFFCURVE",
"203 679 QCURVE SMOOTH",
"467 679 LINE SMOOTH",
"491 679 OFFCURVE",
"544 673 OFFCURVE",
"589 653 OFFCURVE",
"618 616 OFFCURVE",
"618 586 QCURVE SMOOTH",
"618 432 LINE",
"354 432 LINE",
"354 445 LINE",
"371 451 OFFCURVE",
"400 474 OFFCURVE",
"400 494 QCURVE",
"279 494 LINE",
"279 185 LINE",
"400 185 LINE",
"400 205 OFFCURVE",
"371 228 OFFCURVE",
"354 234 QCURVE",
"354 247 LINE"
);
},
{
nodes = (
"451 -209 LINE SMOOTH",
"451 -222 OFFCURVE",
"438 -237 OFFCURVE",
"418 -245 OFFCURVE",
"396 -247 OFFCURVE",
"386 -247 QCURVE SMOOTH",
"220 -247 LINE",
"220 -157 LINE",
"354 -157 LINE",
"354 -125 LINE",
"219 -125 LINE",
"219 0 LINE",
"323 0 LINE",
"323 -44 LINE",
"387 -44 LINE SMOOTH",
"395 -44 OFFCURVE",
"417 -47 OFFCURVE",
"437 -55 OFFCURVE",
"451 -70 OFFCURVE",
"451 -82 QCURVE SMOOTH"
);
}
);
width = 670;
}
);
unicode = 00C7;
},
{
glyphname = imacron;
layers = (
{
layerId = "2063BA69-310B-4872-9248-C1144A07CAA9";
paths = (
{
nodes = (
"342 679 LINE",
"342 666 LINE",
"326 660 OFFCURVE",
"296 638 OFFCURVE",
"296 618 QCURVE SMOOTH",
"296 62 LINE SMOOTH",
"296 42 OFFCURVE",
"326 20 OFFCURVE",
"342 14 QCURVE",
"342 0 LINE",
"22 0 LINE",
"22 14 LINE",
"38 20 OFFCURVE",
"68 42 OFFCURVE",
"68 62 QCURVE SMOOTH",
"68 618 LINE SMOOTH",
"68 638 OFFCURVE",
"38 660 OFFCURVE",
"22 666 QCURVE",
"22 679 LINE"
);
},
{
nodes = (
"22 851 LINE",
"338 851 LINE",
"338 713 LINE",
"22 713 LINE"
);
}
);
width = 359;
}
);
unicode = 012B;
},
{
glyphname = Imacron;
layers = (
{
layerId = "2063BA69-310B-4872-9248-C1144A07CAA9";
paths = (
{
nodes = (
"342 679 LINE",
"342 666 LINE",
"326 660 OFFCURVE",
"296 638 OFFCURVE",
"296 618 QCURVE SMOOTH",
"296 62 LINE SMOOTH",
"296 42 OFFCURVE",
"326 20 OFFCURVE",
"342 14 QCURVE",
"342 0 LINE",
"22 0 LINE",
"22 14 LINE",
"38 20 OFFCURVE",
"68 42 OFFCURVE",
"68 62 QCURVE SMOOTH",
"68 618 LINE SMOOTH",
"68 638 OFFCURVE",
"38 660 OFFCURVE",
"22 666 QCURVE",
"22 679 LINE"
);
},
{
nodes = (
"22 851 LINE",
"338 851 LINE",
"338 713 LINE",
"22 713 LINE"
);
}
);
width = 359;
}
);
unicode = 012A;
},
{
glyphname = emacron;
layers = (
{
layerId = "2063BA69-310B-4872-9248-C1144A07CAA9";
paths = (
{
nodes = (
"445 401 LINE SMOOTH",
"465 401 OFFCURVE",
"495 421 OFFCURVE",
"505 438 QCURVE",
"521 438 LINE",
"521 240 LINE",
"505 240 LINE",
"495 257 OFFCURVE",
"465 278 OFFCURVE",
"445 278 QCURVE SMOOTH",
"294 278 LINE",
"294 185 LINE",
"559 185 LINE SMOOTH",
"579 185 OFFCURVE",
"609 205 OFFCURVE",
"619 222 QCURVE",
"635 222 LINE",
"635 0 LINE",
"21 0 LINE",
"21 13 LINE",
"37 19 OFFCURVE",
"67 41 OFFCURVE",
"67 61 QCURVE SMOOTH",
"67 617 LINE SMOOTH",
"67 637 OFFCURVE",
"37 660 OFFCURVE",
"21 666 QCURVE",
"21 679 LINE",
"635 679 LINE",
"635 456 LINE",
"619 456 LINE",
"609 473 OFFCURVE",
"579 494 OFFCURVE",
"559 494 QCURVE SMOOTH",
"294 494 LINE",
"294 401 LINE"
);
},
{
nodes = (
"178 851 LINE",
"494 851 LINE",
"494 713 LINE",
"178 713 LINE"
);
}
);
width = 673;
}
);
unicode = 0113;
},
{
glyphname = Emacron;
layers = (
{
layerId = "2063BA69-310B-4872-9248-C1144A07CAA9";
paths = (
{
nodes = (
"445 401 LINE SMOOTH",
"465 401 OFFCURVE",
"495 421 OFFCURVE",
"505 438 QCURVE",
"521 438 LINE",
"521 240 LINE",
"505 240 LINE",
"495 257 OFFCURVE",
"465 278 OFFCURVE",
"445 278 QCURVE SMOOTH",
"294 278 LINE",
"294 185 LINE",
"559 185 LINE SMOOTH",
"579 185 OFFCURVE",
"609 205 OFFCURVE",
"619 222 QCURVE",
"635 222 LINE",
"635 0 LINE",
"21 0 LINE",
"21 13 LINE",
"37 19 OFFCURVE",
"67 41 OFFCURVE",
"67 61 QCURVE SMOOTH",
"67 617 LINE SMOOTH",
"67 637 OFFCURVE",
"37 660 OFFCURVE",
"21 666 QCURVE",
"21 679 LINE",
"635 679 LINE",
"635 456 LINE",
"619 456 LINE",
"609 473 OFFCURVE",
"579 494 OFFCURVE",
"559 494 QCURVE SMOOTH",
"294 494 LINE",
"294 401 LINE"
);
},
{
nodes = (
"178 851 LINE",
"494 851 LINE",
"494 713 LINE",
"178 713 LINE"
);
}
);
width = 673;
}
);
unicode = 0112;
},
{
glyphname = dcroat;
layers = (
{
layerId = "2063BA69-310B-4872-9248-C1144A07CAA9";
paths = (
{
nodes = (
"40 432 LINE",
"93 432 LINE",
"93 617 LINE SMOOTH",
"93 636 OFFCURVE",
"63 659 OFFCURVE",
"47 665 QCURVE",
"47 678 LINE",
"519 678 LINE SMOOTH",
"543 678 OFFCURVE",
"596 672 OFFCURVE",
"641 653 OFFCURVE",
"671 616 OFFCURVE",
"671 586 QCURVE SMOOTH",
"671 92 LINE SMOOTH",
"671 62 OFFCURVE",
"641 25 OFFCURVE",
"596 6 OFFCURVE",
"543 0 OFFCURVE",
"519 0 QCURVE SMOOTH",
"47 0 LINE",
"47 13 LINE",
"62 19 OFFCURVE",
"93 42 OFFCURVE",
"93 61 QCURVE SMOOTH",
"93 264 LINE",
"40 264 LINE"
);
},
{
nodes = (
"444 185 LINE",
"444 493 LINE",
"320 493 LINE",
"320 432 LINE",
"392 432 LINE",
"392 264 LINE",
"320 264 LINE",
"320 185 LINE"
);
}
);
width = 720;
}
);
unicode = 0111;
},
{
glyphname = Dcroat;
layers = (
{
layerId = "2063BA69-310B-4872-9248-C1144A07CAA9";
paths = (
{
nodes = (
"40 432 LINE",
"93 432 LINE",
"93 617 LINE SMOOTH",
"93 636 OFFCURVE",
"63 659 OFFCURVE",
"47 665 QCURVE",
"47 678 LINE",
"519 678 LINE SMOOTH",
"543 678 OFFCURVE",
"596 672 OFFCURVE",
"641 653 OFFCURVE",
"671 616 OFFCURVE",
"671 586 QCURVE SMOOTH",
"671 92 LINE SMOOTH",
"671 62 OFFCURVE",
"641 25 OFFCURVE",
"596 6 OFFCURVE",
"543 0 OFFCURVE",
"519 0 QCURVE SMOOTH",
"47 0 LINE",
"47 13 LINE",
"62 19 OFFCURVE",
"93 42 OFFCURVE",
"93 61 QCURVE SMOOTH",
"93 264 LINE",
"40 264 LINE"
);
},
{
nodes = (
"444 185 LINE",
"444 493 LINE",
"320 493 LINE",
"320 432 LINE",
"392 432 LINE",
"392 264 LINE",
"320 264 LINE",
"320 185 LINE"
);
}
);
width = 720;
}
);
unicode = 0110;
},
{
glyphname = dcaron;
layers = (
{
layerId = "2063BA69-310B-4872-9248-C1144A07CAA9";
paths = (
{
nodes = (
"17 13 LINE",
"32 19 OFFCURVE",
"63 42 OFFCURVE",
"63 61 QCURVE SMOOTH",
"63 617 LINE SMOOTH",
"63 636 OFFCURVE",
"33 659 OFFCURVE",
"17 665 QCURVE",
"17 678 LINE",
"489 678 LINE SMOOTH",
"513 678 OFFCURVE",
"566 672 OFFCURVE",
"611 653 OFFCURVE",
"641 616 OFFCURVE",
"641 586 QCURVE SMOOTH",
"641 92 LINE SMOOTH",
"641 62 OFFCURVE",
"611 25 OFFCURVE",
"566 6 OFFCURVE",
"513 0 OFFCURVE",
"489 0 QCURVE SMOOTH",
"17 0 LINE"
);
},
{
nodes = (
"414 185 LINE",
"414 493 LINE",
"290 493 LINE",
"290 185 LINE"
);
},
{
nodes = (
"673 680 LINE",
"825 680 LINE",
"825 432 LINE",
"673 432 LINE"
);
}
);
width = 849;
}
);
unicode = 010F;
},
{
glyphname = Dcaron;
layers = (
{
layerId = "2063BA69-310B-4872-9248-C1144A07CAA9";
paths = (
{
nodes = (
"453 716 LINE",
"200 716 LINE",
"97 884 LINE",
"275 884 LINE",
"326 804 LINE",
"378 884 LINE",
"556 884 LINE"
);
},
{
nodes = (
"17 13 LINE",
"32 19 OFFCURVE",
"63 42 OFFCURVE",
"63 61 QCURVE SMOOTH",
"63 617 LINE SMOOTH",
"63 636 OFFCURVE",
"33 659 OFFCURVE",
"17 665 QCURVE",
"17 678 LINE",
"489 678 LINE SMOOTH",
"513 678 OFFCURVE",
"566 672 OFFCURVE",
"611 653 OFFCURVE",
"641 616 OFFCURVE",
"641 586 QCURVE SMOOTH",
"641 92 LINE SMOOTH",
"641 62 OFFCURVE",
"611 25 OFFCURVE",
"566 6 OFFCURVE",
"513 0 OFFCURVE",
"489 0 QCURVE SMOOTH",
"17 0 LINE"
);
},
{
nodes = (
"414 185 LINE",
"414 493 LINE",
"290 493 LINE",
"290 185 LINE"
);
}
);
width = 700;
}
);
unicode = 010E;
},
{
glyphname = cdotaccent;
layers = (
{
layerId = "2063BA69-310B-4872-9248-C1144A07CAA9";
paths = (
{
nodes = (
"618 247 LINE",
"618 93 LINE SMOOTH",
"618 63 OFFCURVE",
"589 26 OFFCURVE",
"544 6 OFFCURVE",
"491 0 OFFCURVE",
"467 0 QCURVE SMOOTH",
"203 0 LINE SMOOTH",
"179 0 OFFCURVE",
"126 6 OFFCURVE",
"81 26 OFFCURVE",
"52 63 OFFCURVE",
"52 93 QCURVE SMOOTH",
"52 586 LINE SMOOTH",
"52 616 OFFCURVE",
"81 653 OFFCURVE",
"126 673 OFFCURVE",
"179 679 OFFCURVE",
"203 679 QCURVE SMOOTH",
"467 679 LINE SMOOTH",
"491 679 OFFCURVE",
"544 673 OFFCURVE",
"589 653 OFFCURVE",
"618 616 OFFCURVE",
"618 586 QCURVE SMOOTH",
"618 432 LINE",
"354 432 LINE",
"354 445 LINE",
"371 451 OFFCURVE",
"400 474 OFFCURVE",
"400 494 QCURVE",
"279 494 LINE",
"279 185 LINE",
"400 185 LINE",
"400 205 OFFCURVE",
"371 228 OFFCURVE",
"354 234 QCURVE",
"354 247 LINE"
);
},
{
nodes = (
"353 870 OFFCURVE",
"389 858 OFFCURVE",
"418 837 OFFCURVE",
"436 806 OFFCURVE",
"436 787 QCURVE SMOOTH",
"436 768 OFFCURVE",
"418 738 OFFCURVE",
"389 717 OFFCURVE",
"353 706 OFFCURVE",
"335 706 QCURVE SMOOTH",
"317 706 OFFCURVE",
"281 717 OFFCURVE",
"252 738 OFFCURVE",
"233 768 OFFCURVE",
"233 787 QCURVE SMOOTH",
"233 807 OFFCURVE",
"252 838 OFFCURVE",
"281 859 OFFCURVE",
"317 870 OFFCURVE",
"335 870 QCURVE SMOOTH"
);
}
);
width = 670;
}
);
unicode = 010B;
},
{
glyphname = Cdotaccent;
layers = (
{
layerId = "2063BA69-310B-4872-9248-C1144A07CAA9";
paths = (
{
nodes = (
"618 247 LINE",
"618 93 LINE SMOOTH",
"618 63 OFFCURVE",
"589 26 OFFCURVE",
"544 6 OFFCURVE",
"491 0 OFFCURVE",
"467 0 QCURVE SMOOTH",
"203 0 LINE SMOOTH",
"179 0 OFFCURVE",
"126 6 OFFCURVE",
"81 26 OFFCURVE",
"52 63 OFFCURVE",
"52 93 QCURVE SMOOTH",
"52 586 LINE SMOOTH",
"52 616 OFFCURVE",
"81 653 OFFCURVE",
"126 673 OFFCURVE",
"179 679 OFFCURVE",
"203 679 QCURVE SMOOTH",
"467 679 LINE SMOOTH",
"491 679 OFFCURVE",
"544 673 OFFCURVE",
"589 653 OFFCURVE",
"618 616 OFFCURVE",
"618 586 QCURVE SMOOTH",
"618 432 LINE",
"354 432 LINE",
"354 445 LINE",
"371 451 OFFCURVE",
"400 474 OFFCURVE",
"400 494 QCURVE",
"279 494 LINE",
"279 185 LINE",
"400 185 LINE",
"400 205 OFFCURVE",
"371 228 OFFCURVE",
"354 234 QCURVE",
"354 247 LINE"
);
},
{
nodes = (
"353 870 OFFCURVE",
"389 858 OFFCURVE",
"418 837 OFFCURVE",
"436 806 OFFCURVE",
"436 787 QCURVE SMOOTH",
"436 768 OFFCURVE",
"418 738 OFFCURVE",
"389 717 OFFCURVE",
"353 706 OFFCURVE",
"335 706 QCURVE SMOOTH",
"317 706 OFFCURVE",
"281 717 OFFCURVE",
"252 738 OFFCURVE",
"233 768 OFFCURVE",
"233 787 QCURVE SMOOTH",
"233 807 OFFCURVE",
"252 838 OFFCURVE",
"281 859 OFFCURVE",
"317 870 OFFCURVE",
"335 870 QCURVE SMOOTH"
);
}
);
width = 670;
}
);
unicode = 010A;
},
{
glyphname = ccaron;
layers = (
{
layerId = "2063BA69-310B-4872-9248-C1144A07CAA9";
paths = (
{
nodes = (
"461 716 LINE",
"208 716 LINE",
"105 884 LINE",
"283 884 LINE",
"334 804 LINE",
"386 884 LINE",
"564 884 LINE"
);
},
{
nodes = (
"618 247 LINE",
"618 93 LINE SMOOTH",
"618 63 OFFCURVE",
"589 26 OFFCURVE",
"544 6 OFFCURVE",
"491 0 OFFCURVE",
"467 0 QCURVE SMOOTH",
"203 0 LINE SMOOTH",
"179 0 OFFCURVE",
"126 6 OFFCURVE",
"81 26 OFFCURVE",
"52 63 OFFCURVE",
"52 93 QCURVE SMOOTH",
"52 586 LINE SMOOTH",
"52 616 OFFCURVE",
"81 653 OFFCURVE",
"126 673 OFFCURVE",
"179 679 OFFCURVE",
"203 679 QCURVE SMOOTH",
"467 679 LINE SMOOTH",
"491 679 OFFCURVE",
"544 673 OFFCURVE",
"589 653 OFFCURVE",
"618 616 OFFCURVE",
"618 586 QCURVE SMOOTH",
"618 432 LINE",
"354 432 LINE",
"354 445 LINE",
"371 451 OFFCURVE",
"400 474 OFFCURVE",
"400 494 QCURVE",
"279 494 LINE",
"279 185 LINE",
"400 185 LINE",
"400 205 OFFCURVE",
"371 228 OFFCURVE",
"354 234 QCURVE",
"354 247 LINE"
);
}
);
width = 670;
}
);
unicode = 010D;
},
{
glyphname = Ccaron;
layers = (
{
layerId = "2063BA69-310B-4872-9248-C1144A07CAA9";
paths = (
{
nodes = (
"461 716 LINE",
"208 716 LINE",
"105 884 LINE",
"283 884 LINE",
"334 804 LINE",
"386 884 LINE",
"564 884 LINE"
);
},
{
nodes = (
"618 247 LINE",
"618 93 LINE SMOOTH",
"618 63 OFFCURVE",
"589 26 OFFCURVE",
"544 6 OFFCURVE",
"491 0 OFFCURVE",
"467 0 QCURVE SMOOTH",
"203 0 LINE SMOOTH",
"179 0 OFFCURVE",
"126 6 OFFCURVE",
"81 26 OFFCURVE",
"52 63 OFFCURVE",
"52 93 QCURVE SMOOTH",
"52 586 LINE SMOOTH",
"52 616 OFFCURVE",
"81 653 OFFCURVE",
"126 673 OFFCURVE",
"179 679 OFFCURVE",
"203 679 QCURVE SMOOTH",
"467 679 LINE SMOOTH",
"491 679 OFFCURVE",
"544 673 OFFCURVE",
"589 653 OFFCURVE",
"618 616 OFFCURVE",
"618 586 QCURVE SMOOTH",
"618 432 LINE",
"354 432 LINE",
"354 445 LINE",
"371 451 OFFCURVE",
"400 474 OFFCURVE",
"400 494 QCURVE",
"279 494 LINE",
"279 185 LINE",
"400 185 LINE",
"400 205 OFFCURVE",
"371 228 OFFCURVE",
"354 234 QCURVE",
"354 247 LINE"
);
}
);
width = 670;
}
);
unicode = 010C;
},
{
glyphname = scedilla;
layers = (
{
layerId = "2063BA69-310B-4872-9248-C1144A07CAA9";
paths = (
{
nodes = (
"622 92 LINE SMOOTH",
"622 62 OFFCURVE",
"593 25 OFFCURVE",
"548 6 OFFCURVE",
"495 0 OFFCURVE",
"471 0 QCURVE SMOOTH",
"197 0 LINE SMOOTH",
"173 0 OFFCURVE",
"120 6 OFFCURVE",
"75 25 OFFCURVE",
"46 62 OFFCURVE",
"46 92 QCURVE SMOOTH",
"46 246 LINE",
"319 246 LINE",
"319 233 LINE",
"303 228 OFFCURVE",
"273 205 OFFCURVE",
"273 185 QCURVE",
"395 185 LINE",
"395 277 LINE",
"273 277 LINE SMOOTH",
"246 277 OFFCURVE",
"203 276 OFFCURVE",
"198 276 QCURVE SMOOTH",
"175 276 OFFCURVE",
"121 282 OFFCURVE",
"76 302 OFFCURVE",
"46 339 OFFCURVE",
"46 370 QCURVE SMOOTH",
"46 586 LINE SMOOTH",
"46 616 OFFCURVE",
"75 653 OFFCURVE",
"120 672 OFFCURVE",
"173 678 OFFCURVE",
"197 678 QCURVE SMOOTH",
"471 678 LINE SMOOTH",
"495 678 OFFCURVE",
"548 672 OFFCURVE",
"593 653 OFFCURVE",
"622 616 OFFCURVE",
"622 586 QCURVE SMOOTH",
"622 431 LINE",
"349 431 LINE",
"349 445 LINE",
"365 451 OFFCURVE",
"395 474 OFFCURVE",
"395 493 QCURVE",
"273 493 LINE",
"273 401 LINE",
"395 401 LINE SMOOTH",
"422 401 OFFCURVE",
"465 402 OFFCURVE",
"470 402 QCURVE SMOOTH",
"494 402 OFFCURVE",
"547 396 OFFCURVE",
"592 376 OFFCURVE",
"622 339 OFFCURVE",
"622 308 QCURVE SMOOTH"
);
},
{
nodes = (
"452 -209 LINE SMOOTH",
"452 -222 OFFCURVE",
"439 -237 OFFCURVE",
"419 -245 OFFCURVE",
"397 -247 OFFCURVE",
"387 -247 QCURVE SMOOTH",
"221 -247 LINE",
"221 -157 LINE",
"355 -157 LINE",
"355 -125 LINE",
"220 -125 LINE",
"220 0 LINE",
"324 0 LINE",
"324 -44 LINE",
"388 -44 LINE SMOOTH",
"396 -44 OFFCURVE",
"418 -47 OFFCURVE",
"438 -55 OFFCURVE",
"452 -70 OFFCURVE",
"452 -82 QCURVE SMOOTH"
);
}
);
width = 673;
}
);
unicode = 015F;
},
{
glyphname = Scedilla;
layers = (
{
layerId = "2063BA69-310B-4872-9248-C1144A07CAA9";
paths = (
{
nodes = (
"622 92 LINE SMOOTH",
"622 62 OFFCURVE",
"593 25 OFFCURVE",
"548 6 OFFCURVE",
"495 0 OFFCURVE",
"471 0 QCURVE SMOOTH",
"197 0 LINE SMOOTH",
"173 0 OFFCURVE",
"120 6 OFFCURVE",
"75 25 OFFCURVE",
"46 62 OFFCURVE",
"46 92 QCURVE SMOOTH",
"46 246 LINE",
"319 246 LINE",
"319 233 LINE",
"303 228 OFFCURVE",
"273 205 OFFCURVE",
"273 185 QCURVE",
"395 185 LINE",
"395 277 LINE",
"273 277 LINE SMOOTH",
"246 277 OFFCURVE",
"203 276 OFFCURVE",
"198 276 QCURVE SMOOTH",
"175 276 OFFCURVE",
"121 282 OFFCURVE",
"76 302 OFFCURVE",
"46 339 OFFCURVE",
"46 370 QCURVE SMOOTH",
"46 586 LINE SMOOTH",
"46 616 OFFCURVE",
"75 653 OFFCURVE",
"120 672 OFFCURVE",
"173 678 OFFCURVE",
"197 678 QCURVE SMOOTH",
"471 678 LINE SMOOTH",
"495 678 OFFCURVE",
"548 672 OFFCURVE",
"593 653 OFFCURVE",
"622 616 OFFCURVE",
"622 586 QCURVE SMOOTH",
"622 431 LINE",
"349 431 LINE",
"349 445 LINE",
"365 451 OFFCURVE",
"395 474 OFFCURVE",
"395 493 QCURVE",
"273 493 LINE",
"273 401 LINE",
"395 401 LINE SMOOTH",
"422 401 OFFCURVE",
"465 402 OFFCURVE",
"470 402 QCURVE SMOOTH",
"494 402 OFFCURVE",
"547 396 OFFCURVE",
"592 376 OFFCURVE",
"622 339 OFFCURVE",
"622 308 QCURVE SMOOTH"
);
},
{
nodes = (
"452 -209 LINE SMOOTH",
"452 -222 OFFCURVE",
"439 -237 OFFCURVE",
"419 -245 OFFCURVE",
"397 -247 OFFCURVE",
"387 -247 QCURVE SMOOTH",
"221 -247 LINE",
"221 -157 LINE",
"355 -157 LINE",
"355 -125 LINE",
"220 -125 LINE",
"220 0 LINE",
"324 0 LINE",
"324 -44 LINE",
"388 -44 LINE SMOOTH",
"396 -44 OFFCURVE",
"418 -47 OFFCURVE",
"438 -55 OFFCURVE",
"452 -70 OFFCURVE",
"452 -82 QCURVE SMOOTH"
);
}
);
width = 673;
}
);
unicode = 015E;
},
{
glyphname = cacute;
layers = (
{
layerId = "2063BA69-310B-4872-9248-C1144A07CAA9";
paths = (
{
nodes = (
"618 247 LINE",
"618 93 LINE SMOOTH",
"618 63 OFFCURVE",
"589 26 OFFCURVE",
"544 6 OFFCURVE",
"491 0 OFFCURVE",
"467 0 QCURVE SMOOTH",
"203 0 LINE SMOOTH",
"179 0 OFFCURVE",
"126 6 OFFCURVE",
"81 26 OFFCURVE",
"52 63 OFFCURVE",
"52 93 QCURVE SMOOTH",
"52 586 LINE SMOOTH",
"52 616 OFFCURVE",
"81 653 OFFCURVE",
"126 673 OFFCURVE",
"179 679 OFFCURVE",
"203 679 QCURVE SMOOTH",
"467 679 LINE SMOOTH",
"491 679 OFFCURVE",
"544 673 OFFCURVE",
"589 653 OFFCURVE",
"618 616 OFFCURVE",
"618 586 QCURVE SMOOTH",
"618 432 LINE",
"354 432 LINE",
"354 445 LINE",
"371 451 OFFCURVE",
"400 474 OFFCURVE",
"400 494 QCURVE",
"279 494 LINE",
"279 185 LINE",
"400 185 LINE",
"400 205 OFFCURVE",
"371 228 OFFCURVE",
"354 234 QCURVE",
"354 247 LINE"
);
},
{
nodes = (
"375 716 LINE",
"192 716 LINE",
"300 884 LINE",
"478 884 LINE"
);
}
);
width = 670;
}
);
unicode = 0107;
},
{
glyphname = aogonek;
layers = (
{
layerId = "2063BA69-310B-4872-9248-C1144A07CAA9";
paths = (
{
nodes = (
"545 665 LINE",
"534 661 OFFCURVE",
"512 646 OFFCURVE",
"512 633 QCURVE SMOOTH",
"512 626 OFFCURVE",
"535 591 OFFCURVE",
"569 542 OFFCURVE",
"608 484 OFFCURVE",
"642 427 OFFCURVE",
"665 374 OFFCURVE",
"665 354 QCURVE SMOOTH",
"665 61 LINE SMOOTH",
"665 41 OFFCURVE",
"695 19 OFFCURVE",
"711 13 QCURVE",
"711 0 LINE",
"391 0 LINE",
"391 13 LINE",
"407 19 OFFCURVE",
"437 41 OFFCURVE",
"437 61 QCURVE SMOOTH",
"437 185 LINE",
"286 185 LINE",
"286 61 LINE SMOOTH",
"286 41 OFFCURVE",
"316 19 OFFCURVE",
"332 13 QCURVE",
"332 0 LINE",
"13 0 LINE",
"13 13 LINE",
"28 19 OFFCURVE",
"59 42 OFFCURVE",
"59 61 QCURVE SMOOTH",
"59 256 LINE SMOOTH",
"59 281 OFFCURVE",
"58 314 OFFCURVE",
"58 322 QCURVE SMOOTH",
"58 330 OFFCURVE",
"58 346 OFFCURVE",
"59 354 QCURVE SMOOTH",
"60 375 OFFCURVE",
"83 429 OFFCURVE",
"117 487 OFFCURVE",
"156 544 OFFCURVE",
"189 591 OFFCURVE",
"211 626 OFFCURVE",
"211 633 QCURVE SMOOTH",
"211 646 OFFCURVE",
"190 661 OFFCURVE",
"179 665 QCURVE",
"179 679 LINE",
"545 679 LINE"
);
},
{
nodes = (
"437 308 LINE",
"437 322 LINE SMOOTH",
"437 347 OFFCURVE",
"423 388 OFFCURVE",
"401 425 OFFCURVE",
"375 461 OFFCURVE",
"362 481 QCURVE",
"346 458 OFFCURVE",
"318 421 OFFCURVE",
"298 382 OFFCURVE",
"286 338 OFFCURVE",
"286 308 QCURVE"
);
},
{
nodes = (
"401 -82 LINE SMOOTH",
"401 -70 OFFCURVE",
"415 -55 OFFCURVE",
"435 -47 OFFCURVE",
"457 -44 OFFCURVE",
"465 -44 QCURVE SMOOTH",
"529 -44 LINE",
"529 0 LINE",
"633 0 LINE",
"633 -125 LINE",
"498 -125 LINE",
"498 -157 LINE",
"632 -157 LINE",
"632 -247 LINE",
"466 -247 LINE SMOOTH",
"456 -247 OFFCURVE",
"433 -245 OFFCURVE",
"414 -237 OFFCURVE",
"401 -222 OFFCURVE",
"401 -209 QCURVE SMOOTH"
);
}
);
width = 722;
}
);
unicode = 0105;
},
{
glyphname = abreve;
layers = (
{
layerId = "2063BA69-310B-4872-9248-C1144A07CAA9";
paths = (
{
nodes = (
"545 665 LINE",
"534 661 OFFCURVE",
"512 646 OFFCURVE",
"512 633 QCURVE SMOOTH",
"512 626 OFFCURVE",
"535 591 OFFCURVE",
"569 542 OFFCURVE",
"608 484 OFFCURVE",
"642 427 OFFCURVE",
"665 374 OFFCURVE",
"665 354 QCURVE SMOOTH",
"665 61 LINE SMOOTH",
"665 41 OFFCURVE",
"695 19 OFFCURVE",
"711 13 QCURVE",
"711 0 LINE",
"391 0 LINE",
"391 13 LINE",
"407 19 OFFCURVE",
"437 41 OFFCURVE",
"437 61 QCURVE SMOOTH",
"437 185 LINE",
"286 185 LINE",
"286 61 LINE SMOOTH",
"286 41 OFFCURVE",
"316 19 OFFCURVE",
"332 13 QCURVE",
"332 0 LINE",
"13 0 LINE",
"13 13 LINE",
"28 19 OFFCURVE",
"59 42 OFFCURVE",
"59 61 QCURVE SMOOTH",
"59 256 LINE SMOOTH",
"59 281 OFFCURVE",
"58 314 OFFCURVE",
"58 322 QCURVE SMOOTH",
"58 330 OFFCURVE",
"58 346 OFFCURVE",
"59 354 QCURVE SMOOTH",
"60 375 OFFCURVE",
"83 429 OFFCURVE",
"117 487 OFFCURVE",
"156 544 OFFCURVE",
"189 591 OFFCURVE",
"211 626 OFFCURVE",
"211 633 QCURVE SMOOTH",
"211 646 OFFCURVE",
"190 661 OFFCURVE",
"179 665 QCURVE",
"179 679 LINE",
"545 679 LINE"
);
},
{
nodes = (
"437 308 LINE",
"437 322 LINE SMOOTH",
"437 347 OFFCURVE",
"423 388 OFFCURVE",
"401 425 OFFCURVE",
"375 461 OFFCURVE",
"362 481 QCURVE",
"346 458 OFFCURVE",
"318 421 OFFCURVE",
"298 382 OFFCURVE",
"286 338 OFFCURVE",
"286 308 QCURVE"
);
},
{
nodes = (
"551 884 LINE",
"546 846 OFFCURVE",
"512 780 OFFCURVE",
"460 732 OFFCURVE",
"394 704 OFFCURVE",
"357 704 QCURVE SMOOTH",
"319 704 OFFCURVE",
"253 732 OFFCURVE",
"202 780 OFFCURVE",
"168 846 OFFCURVE",
"163 884 QCURVE",
"271 884 LINE",
"279 855 OFFCURVE",
"326 817 OFFCURVE",
"357 817 QCURVE SMOOTH",
"388 817 OFFCURVE",
"434 855 OFFCURVE",
"443 884 QCURVE"
);
}
);
width = 722;
}
);
unicode = 0103;
},
{
glyphname = Abreve;
layers = (
{
layerId = "2063BA69-310B-4872-9248-C1144A07CAA9";
paths = (
{
nodes = (
"545 665 LINE",
"534 661 OFFCURVE",
"512 646 OFFCURVE",
"512 633 QCURVE SMOOTH",
"512 626 OFFCURVE",
"535 591 OFFCURVE",
"569 542 OFFCURVE",
"608 484 OFFCURVE",
"642 427 OFFCURVE",
"665 374 OFFCURVE",
"665 354 QCURVE SMOOTH",
"665 61 LINE SMOOTH",
"665 41 OFFCURVE",
"695 19 OFFCURVE",
"711 13 QCURVE",
"711 0 LINE",
"391 0 LINE",
"391 13 LINE",
"407 19 OFFCURVE",
"437 41 OFFCURVE",
"437 61 QCURVE SMOOTH",
"437 185 LINE",
"286 185 LINE",
"286 61 LINE SMOOTH",
"286 41 OFFCURVE",
"316 19 OFFCURVE",
"332 13 QCURVE",
"332 0 LINE",
"13 0 LINE",
"13 13 LINE",
"28 19 OFFCURVE",
"59 42 OFFCURVE",
"59 61 QCURVE SMOOTH",
"59 256 LINE SMOOTH",
"59 281 OFFCURVE",
"58 314 OFFCURVE",
"58 322 QCURVE SMOOTH",
"58 330 OFFCURVE",
"58 346 OFFCURVE",
"59 354 QCURVE SMOOTH",
"60 375 OFFCURVE",
"83 429 OFFCURVE",
"117 487 OFFCURVE",
"156 544 OFFCURVE",
"189 591 OFFCURVE",
"211 626 OFFCURVE",
"211 633 QCURVE SMOOTH",
"211 646 OFFCURVE",
"190 661 OFFCURVE",
"179 665 QCURVE",
"179 679 LINE",
"545 679 LINE"
);
},
{
nodes = (
"437 308 LINE",
"437 322 LINE SMOOTH",
"437 347 OFFCURVE",
"423 388 OFFCURVE",
"401 425 OFFCURVE",
"375 461 OFFCURVE",
"362 481 QCURVE",
"346 458 OFFCURVE",
"318 421 OFFCURVE",
"298 382 OFFCURVE",
"286 338 OFFCURVE",
"286 308 QCURVE"
);
},
{
nodes = (
"551 884 LINE",
"546 846 OFFCURVE",
"512 780 OFFCURVE",
"460 732 OFFCURVE",
"394 704 OFFCURVE",
"357 704 QCURVE SMOOTH",
"319 704 OFFCURVE",
"253 732 OFFCURVE",
"202 780 OFFCURVE",
"168 846 OFFCURVE",
"163 884 QCURVE",
"271 884 LINE",
"279 855 OFFCURVE",
"326 817 OFFCURVE",
"357 817 QCURVE SMOOTH",
"388 817 OFFCURVE",
"434 855 OFFCURVE",
"443 884 QCURVE"
);
}
);
width = 722;
}
);
unicode = 0102;
},
{
glyphname = Cacute;
layers = (
{
layerId = "2063BA69-310B-4872-9248-C1144A07CAA9";
paths = (
{
nodes = (
"618 247 LINE",
"618 93 LINE SMOOTH",
"618 63 OFFCURVE",
"589 26 OFFCURVE",
"544 6 OFFCURVE",
"491 0 OFFCURVE",
"467 0 QCURVE SMOOTH",
"203 0 LINE SMOOTH",
"179 0 OFFCURVE",
"126 6 OFFCURVE",
"81 26 OFFCURVE",
"52 63 OFFCURVE",
"52 93 QCURVE SMOOTH",
"52 586 LINE SMOOTH",
"52 616 OFFCURVE",
"81 653 OFFCURVE",
"126 673 OFFCURVE",
"179 679 OFFCURVE",
"203 679 QCURVE SMOOTH",
"467 679 LINE SMOOTH",
"491 679 OFFCURVE",
"544 673 OFFCURVE",
"589 653 OFFCURVE",
"618 616 OFFCURVE",
"618 586 QCURVE SMOOTH",
"618 432 LINE",
"354 432 LINE",
"354 445 LINE",
"371 451 OFFCURVE",
"400 474 OFFCURVE",
"400 494 QCURVE",
"279 494 LINE",
"279 185 LINE",
"400 185 LINE",
"400 205 OFFCURVE",
"371 228 OFFCURVE",
"354 234 QCURVE",
"354 247 LINE"
);
},
{
nodes = (
"375 716 LINE",
"192 716 LINE",
"300 884 LINE",
"478 884 LINE"
);
}
);
width = 670;
}
);
unicode = 0106;
},
{
glyphname = gdotaccent;
layers = (
{
layerId = "2063BA69-310B-4872-9248-C1144A07CAA9";
paths = (
{
nodes = (
"315 401 LINE",
"656 401 LINE",
"656 93 LINE SMOOTH",
"656 63 OFFCURVE",
"626 26 OFFCURVE",
"581 6 OFFCURVE",
"528 0 OFFCURVE",
"504 0 QCURVE SMOOTH",
"201 0 LINE SMOOTH",
"177 0 OFFCURVE",
"124 6 OFFCURVE",
"79 26 OFFCURVE",
"50 63 OFFCURVE",
"50 93 QCURVE SMOOTH",
"50 587 LINE SMOOTH",
"50 617 OFFCURVE",
"80 654 OFFCURVE",
"125 673 OFFCURVE",
"178 679 OFFCURVE",
"201 679 QCURVE SMOOTH",
"504 679 LINE SMOOTH",
"527 679 OFFCURVE",
"581 673 OFFCURVE",
"626 654 OFFCURVE",
"656 617 OFFCURVE",
"656 587 QCURVE SMOOTH",
"656 432 LINE",
"382 432 LINE",
"382 445 LINE",
"398 451 OFFCURVE",
"429 474 OFFCURVE",
"429 494 QCURVE",
"277 494 LINE",
"277 185 LINE",
"429 185 LINE",
"429 278 LINE",
"391 278 LINE SMOOTH",
"371 278 OFFCURVE",
"342 257 OFFCURVE",
"331 240 QCURVE",
"315 240 LINE"
);
},
{
nodes = (
"371 870 OFFCURVE",
"407 858 OFFCURVE",
"436 837 OFFCURVE",
"454 806 OFFCURVE",
"454 787 QCURVE SMOOTH",
"454 768 OFFCURVE",
"436 738 OFFCURVE",
"407 717 OFFCURVE",
"371 706 OFFCURVE",
"353 706 QCURVE SMOOTH",
"335 706 OFFCURVE",
"299 717 OFFCURVE",
"270 738 OFFCURVE",
"251 768 OFFCURVE",
"251 787 QCURVE SMOOTH",
"251 807 OFFCURVE",
"270 838 OFFCURVE",
"299 859 OFFCURVE",
"335 870 OFFCURVE",
"353 870 QCURVE SMOOTH"
);
}
);
width = 705;
}
);
unicode = 0121;
},
{
glyphname = Gdotaccent;
layers = (
{
layerId = "2063BA69-310B-4872-9248-C1144A07CAA9";
paths = (
{
nodes = (
"315 401 LINE",
"656 401 LINE",
"656 93 LINE SMOOTH",
"656 63 OFFCURVE",
"626 26 OFFCURVE",
"581 6 OFFCURVE",
"528 0 OFFCURVE",
"504 0 QCURVE SMOOTH",
"201 0 LINE SMOOTH",
"177 0 OFFCURVE",
"124 6 OFFCURVE",
"79 26 OFFCURVE",
"50 63 OFFCURVE",
"50 93 QCURVE SMOOTH",
"50 587 LINE SMOOTH",
"50 617 OFFCURVE",
"80 654 OFFCURVE",
"125 673 OFFCURVE",
"178 679 OFFCURVE",
"201 679 QCURVE SMOOTH",
"504 679 LINE SMOOTH",
"527 679 OFFCURVE",
"581 673 OFFCURVE",
"626 654 OFFCURVE",
"656 617 OFFCURVE",
"656 587 QCURVE SMOOTH",
"656 432 LINE",
"382 432 LINE",
"382 445 LINE",
"398 451 OFFCURVE",
"429 474 OFFCURVE",
"429 494 QCURVE",
"277 494 LINE",
"277 185 LINE",
"429 185 LINE",
"429 278 LINE",
"391 278 LINE SMOOTH",
"371 278 OFFCURVE",
"342 257 OFFCURVE",
"331 240 QCURVE",
"315 240 LINE"
);
},
{
nodes = (
"371 870 OFFCURVE",
"407 858 OFFCURVE",
"436 837 OFFCURVE",
"454 806 OFFCURVE",
"454 787 QCURVE SMOOTH",
"454 768 OFFCURVE",
"436 738 OFFCURVE",
"407 717 OFFCURVE",
"371 706 OFFCURVE",
"353 706 QCURVE SMOOTH",
"335 706 OFFCURVE",
"299 717 OFFCURVE",
"270 738 OFFCURVE",
"251 768 OFFCURVE",
"251 787 QCURVE SMOOTH",
"251 807 OFFCURVE",
"270 838 OFFCURVE",
"299 859 OFFCURVE",
"335 870 OFFCURVE",
"353 870 QCURVE SMOOTH"
);
}
);
width = 705;
}
);
unicode = 0120;
},
{
glyphname = nacute;
layers = (
{
layerId = "2063BA69-310B-4872-9248-C1144A07CAA9";
paths = (
{
nodes = (
"17 13 LINE",
"34 19 OFFCURVE",
"63 42 OFFCURVE",
"63 62 QCURVE SMOOTH",
"63 617 LINE SMOOTH",
"63 637 OFFCURVE",
"34 660 OFFCURVE",
"17 666 QCURVE",
"17 679 LINE",
"336 679 LINE",
"336 666 LINE",
"320 660 OFFCURVE",
"290 637 OFFCURVE",
"290 617 QCURVE SMOOTH",
"290 494 LINE",
"442 344 LINE",
"442 617 LINE SMOOTH",
"442 637 OFFCURVE",
"413 660 OFFCURVE",
"396 666 QCURVE",
"396 679 LINE",
"715 679 LINE",
"715 666 LINE",
"698 660 OFFCURVE",
"669 637 OFFCURVE",
"669 617 QCURVE SMOOTH",
"669 62 LINE SMOOTH",
"669 42 OFFCURVE",
"698 19 OFFCURVE",
"715 13 QCURVE",
"715 0 LINE",
"396 0 LINE",
"396 13 LINE",
"413 19 OFFCURVE",
"442 42 OFFCURVE",
"442 62 QCURVE SMOOTH",
"442 150 LINE",
"290 300 LINE",
"290 62 LINE SMOOTH",
"290 42 OFFCURVE",
"320 19 OFFCURVE",
"336 13 QCURVE",
"336 0 LINE",
"17 0 LINE"
);
},
{
nodes = (
"403 716 LINE",
"220 716 LINE",
"328 884 LINE",
"506 884 LINE"
);
}
);
width = 727;
}
);
unicode = 0144;
},
{
glyphname = Nacute;
layers = (
{
layerId = "2063BA69-310B-4872-9248-C1144A07CAA9";
paths = (
{
nodes = (
"17 13 LINE",
"34 19 OFFCURVE",
"63 42 OFFCURVE",
"63 62 QCURVE SMOOTH",
"63 617 LINE SMOOTH",
"63 637 OFFCURVE",
"34 660 OFFCURVE",
"17 666 QCURVE",
"17 679 LINE",
"336 679 LINE",
"336 666 LINE",
"320 660 OFFCURVE",
"290 637 OFFCURVE",
"290 617 QCURVE SMOOTH",
"290 494 LINE",
"442 344 LINE",
"442 617 LINE SMOOTH",
"442 637 OFFCURVE",
"413 660 OFFCURVE",
"396 666 QCURVE",
"396 679 LINE",
"715 679 LINE",
"715 666 LINE",
"698 660 OFFCURVE",
"669 637 OFFCURVE",
"669 617 QCURVE SMOOTH",
"669 62 LINE SMOOTH",
"669 42 OFFCURVE",
"698 19 OFFCURVE",
"715 13 QCURVE",
"715 0 LINE",
"396 0 LINE",
"396 13 LINE",
"413 19 OFFCURVE",
"442 42 OFFCURVE",
"442 62 QCURVE SMOOTH",
"442 150 LINE",
"290 300 LINE",
"290 62 LINE SMOOTH",
"290 42 OFFCURVE",
"320 19 OFFCURVE",
"336 13 QCURVE",
"336 0 LINE",
"17 0 LINE"
);
},
{
nodes = (
"403 716 LINE",
"220 716 LINE",
"328 884 LINE",
"506 884 LINE"
);
}
);
width = 727;
}
);
unicode = 0143;
},
{
glyphname = lslash;
layers = (
{
layerId = "2063BA69-310B-4872-9248-C1144A07CAA9";
paths = (
{
nodes = (
"577 222 LINE",
"577 0 LINE",
"54 0 LINE",
"54 13 LINE",
"69 19 OFFCURVE",
"100 42 OFFCURVE",
"100 61 QCURVE SMOOTH",
"100 264 LINE",
"45 264 LINE",
"45 432 LINE",
"100 432 LINE",
"100 617 LINE SMOOTH",
"100 636 OFFCURVE",
"70 660 OFFCURVE",
"54 666 QCURVE",
"54 679 LINE",
"373 679 LINE",
"373 666 LINE",
"357 660 OFFCURVE",
"327 637 OFFCURVE",
"327 617 QCURVE SMOOTH",
"327 432 LINE",
"397 432 LINE",
"397 264 LINE",
"327 264 LINE",
"327 185 LINE",
"501 185 LINE SMOOTH",
"521 185 OFFCURVE",
"550 205 OFFCURVE",
"561 222 QCURVE"
);
}
);
width = 607;
}
);
unicode = 0142;
},
{
glyphname = tcaron;
layers = (
{
layerId = "2063BA69-310B-4872-9248-C1144A07CAA9";
paths = (
{
nodes = (
"19 679 LINE",
"544 679 LINE",
"544 456 LINE",
"528 456 LINE",
"518 473 OFFCURVE",
"489 494 OFFCURVE",
"469 494 QCURVE SMOOTH",
"396 494 LINE",
"396 62 LINE SMOOTH",
"396 42 OFFCURVE",
"425 19 OFFCURVE",
"442 13 QCURVE",
"442 0 LINE",
"123 0 LINE",
"123 13 LINE",
"139 19 OFFCURVE",
"169 42 OFFCURVE",
"169 62 QCURVE SMOOTH",
"169 494 LINE",
"95 494 LINE SMOOTH",
"75 494 OFFCURVE",
"46 473 OFFCURVE",
"36 456 QCURVE",
"19 456 LINE"
);
},
{
nodes = (
"639 469 LINE",
"609 478 OFFCURVE",
"563 523 OFFCURVE",
"563 556 QCURVE SMOOTH",
"563 578 OFFCURVE",
"583 613 OFFCURVE",
"616 637 OFFCURVE",
"656 649 OFFCURVE",
"676 649 QCURVE SMOOTH",
"695 649 OFFCURVE",
"736 637 OFFCURVE",
"769 613 OFFCURVE",
"790 578 OFFCURVE",
"790 556 QCURVE SMOOTH",
"790 529 OFFCURVE",
"771 483 OFFCURVE",
"740 445 OFFCURVE",
"699 414 OFFCURVE",
"677 402 QCURVE",
"639 402 LINE"
);
}
);
width = 825;
}
);
unicode = 0165;
},
{
glyphname = Tcaron;
layers = (
{
layerId = "2063BA69-310B-4872-9248-C1144A07CAA9";
paths = (
{
nodes = (
"409 716 LINE",
"156 716 LINE",
"53 884 LINE",
"231 884 LINE",
"282 804 LINE",
"334 884 LINE",
"512 884 LINE"
);
},
{
nodes = (
"19 679 LINE",
"544 679 LINE",
"544 456 LINE",
"528 456 LINE",
"518 473 OFFCURVE",
"489 494 OFFCURVE",
"469 494 QCURVE SMOOTH",
"396 494 LINE",
"396 62 LINE SMOOTH",
"396 42 OFFCURVE",
"425 19 OFFCURVE",
"442 13 QCURVE",
"442 0 LINE",
"123 0 LINE",
"123 13 LINE",
"139 19 OFFCURVE",
"169 42 OFFCURVE",
"169 62 QCURVE SMOOTH",
"169 494 LINE",
"95 494 LINE SMOOTH",
"75 494 OFFCURVE",
"46 473 OFFCURVE",
"36 456 QCURVE",
"19 456 LINE"
);
}
);
width = 565;
}
);
unicode = 0164;
},
{
glyphname = Ncaron;
layers = (
{
layerId = "2063BA69-310B-4872-9248-C1144A07CAA9";
paths = (
{
nodes = (
"490 716 LINE",
"237 716 LINE",
"134 884 LINE",
"312 884 LINE",
"363 804 LINE",
"415 884 LINE",
"593 884 LINE"
);
},
{
nodes = (
"17 13 LINE",
"34 19 OFFCURVE",
"63 42 OFFCURVE",
"63 62 QCURVE SMOOTH",
"63 617 LINE SMOOTH",
"63 637 OFFCURVE",
"34 660 OFFCURVE",
"17 666 QCURVE",
"17 679 LINE",
"336 679 LINE",
"336 666 LINE",
"320 660 OFFCURVE",
"290 637 OFFCURVE",
"290 617 QCURVE SMOOTH",
"290 494 LINE",
"442 344 LINE",
"442 617 LINE SMOOTH",
"442 637 OFFCURVE",
"413 660 OFFCURVE",
"396 666 QCURVE",
"396 679 LINE",
"715 679 LINE",
"715 666 LINE",
"698 660 OFFCURVE",
"669 637 OFFCURVE",
"669 617 QCURVE SMOOTH",
"669 62 LINE SMOOTH",
"669 42 OFFCURVE",
"698 19 OFFCURVE",
"715 13 QCURVE",
"715 0 LINE",
"396 0 LINE",
"396 13 LINE",
"413 19 OFFCURVE",
"442 42 OFFCURVE",
"442 62 QCURVE SMOOTH",
"442 150 LINE",
"290 300 LINE",
"290 62 LINE SMOOTH",
"290 42 OFFCURVE",
"320 19 OFFCURVE",
"336 13 QCURVE",
"336 0 LINE",
"17 0 LINE"
);
}
);
width = 727;
}
);
unicode = 0147;
},
